Geist-Italic.glyphspackage
{
color = 4;
glyphname = exclam;
kernLeft = exclam;
kernRight = exclam;
layers = (
{
anchors = (
{
name = top;
pos = (138,530);
}
);
associatedMasterId = "EE2FFE84-06F1-4AFB-BBEC-60D09A436D14";
layerId = "89098DA8-21DF-4174-9759-EA410723EA26";
name = "25 de ene. de 23 09:33";
shapes = (
{
closed = 1;
nodes = (
(171,-6,o),
(196,18,o),
(196,51,cs),
(196,84,o),
(171,108,o),
(138,108,cs),
(105,108,o),
(80,84,o),
(80,51,cs),
(80,18,o),
(105,-6,o),
(138,-6,cs)
);
},
{
closed = 1;
nodes = (
(94,480,l),
(110,205,l),
(166,205,l),
(182,480,l),
(182,710,l),
(94,710,l)
);
}
);
width = 276;
},
{
layerId = "EE2FFE84-06F1-4AFB-BBEC-60D09A436D14";
name = Regular;
shapes = (
{
closed = 1;
nodes = (
(86,205,l),
(107,295,o),
(128,378,o),
(145,460,cs),
(198,710,l),
(166,710,l),
(113,460,ls),
(96,378,o),
(81,295,o),
(64,205,c)
);
},
{
pos = (5,0);
ref = period;
}
);
width = 170;
},
{
layerId = "3507EE3D-0D92-4546-A145-3A991F0A2B71";
name = Regular;
shapes = (
{
closed = 1;
nodes = (
(207,242,l),
(233,308,o),
(276,427,o),
(293,507,cs),
(336,710,l),
(141,710,l),
(98,507,ls),
(81,427,o),
(75,308,o),
(73,242,c)
);
},
{
alignment = -1;
pos = (13,0);
ref = period;
}
);
width = 288;
},
{
layerId = "6C190511-B94A-4F5A-B519-D6E9DB0E7B93";
name = Regular;
shapes = (
{
closed = 1;
nodes = (
(122,205,l),
(143,275,o),
(178,400,o),
(195,480,cs),
(244,710,l),
(158,710,l),
(109,480,ls),
(92,400,o),
(76,275,o),
(67,205,c)
);
},
{
alignment = -1;
pos = (6,0);
ref = period;
}
);
width = 213;
}
);
metricLeft = "=O+5";
metricRight = "=O+5";
unicode = 33;
}
{
color = 4;
glyphname = quotedbl;
kernLeft = quotesingle;
kernRight = quotesingle;
layers = (
{
background = {
shapes = (
{
angle = 180;
pos = (358,1240);
ref = quotedblleft;
}
);
};
layerId = "EE2FFE84-06F1-4AFB-BBEC-60D09A436D14";
shapes = (
{
closed = 1;
nodes = (
(129,464,l),
(183,710,l),
(145,710,l),
(130,640,l),
(101,464,l)
);
},
{
closed = 1;
nodes = (
(241,464,l),
(286,640,l),
(301,710,l),
(263,710,l),
(213,464,l)
);
}
);
width = 256;
},
{
layerId = "3507EE3D-0D92-4546-A145-3A991F0A2B71";
shapes = (
{
closed = 1;
nodes = (
(205,422,l),
(274,710,l),
(134,710,l),
(116,624,l),
(95,422,l)
);
},
{
closed = 1;
nodes = (
(391,422,l),
(456,624,l),
(474,710,l),
(334,710,l),
(281,422,l)
);
}
);
width = 421;
},
{
layerId = "6C190511-B94A-4F5A-B519-D6E9DB0E7B93";
shapes = (
{
closed = 1;
nodes = (
(165,444,l),
(228,710,l),
(140,710,l),
(123,630,l),
(103,444,l)
);
},
{
closed = 1;
nodes = (
(319,444,l),
(379,630,l),
(396,710,l),
(308,710,l),
(257,444,l)
);
}
);
width = 346;
}
);
metricLeft = O;
metricRight = O;
unicode = 34;
}
{
color = 4;
glyphname = numbersign;
layers = (
{
background = {
shapes = (
{
closed = 1;
nodes = (
(129,0,l),
(260,710,l),
(186,709,l),
(56,0,l)
);
},
{
closed = 1;
nodes = (
(335,0,l),
(466,710,l),
(392,709,l),
(262,0,l)
);
},
{
closed = 1;
nodes = (
(50,439,l),
(492,439,l),
(503,511,l),
(61,511,l)
);
},
{
closed = 1;
nodes = (
(10,196,l),
(452,196,l),
(463,268,l),
(21,268,l)
);
}
);
};
guides = (
{
pos = (195,513);
},
{
pos = (148,267);
},
{
angle = 270;
pos = (195,513);
},
{
angle = 270;
pos = (148,267);
},
{
angle = 270;
pos = (255,447);
}
);
layerId = "EE2FFE84-06F1-4AFB-BBEC-60D09A436D14";
shapes = (
{
closed = 1;
nodes = (
(299,0,l),
(443,710,l),
(411,710,l),
(267,0,l)
);
},
{
closed = 1;
nodes = (
(453,216,l),
(461,246,l),
(16,246,l),
(8,216,l)
);
},
{
closed = 1;
nodes = (
(102,0,l),
(246,710,l),
(214,710,l),
(70,0,l)
);
},
{
closed = 1;
nodes = (
(497,461,l),
(505,491,l),
(60,491,l),
(52,461,l)
);
}
);
width = 475;
},
{
layerId = "3507EE3D-0D92-4546-A145-3A991F0A2B71";
shapes = (
{
closed = 1;
nodes = (
(466,0,l),
(623,710,l),
(442,710,l),
(286,0,l)
);
},
{
closed = 1;
nodes = (
(566,141,l),
(600,293,l),
(17,293,l),
(-17,141,l)
);
},
{
closed = 1;
nodes = (
(199,0,l),
(356,710,l),
(175,710,l),
(19,0,l)
);
},
{
closed = 1;
nodes = (
(625,408,l),
(658,560,l),
(76,560,l),
(43,408,l)
);
}
);
width = 606;
},
{
layerId = "6C190511-B94A-4F5A-B519-D6E9DB0E7B93";
shapes = (
{
closed = 1;
nodes = (
(309,0,l),
(465,710,l),
(393,710,l),
(237,0,l)
);
},
{
closed = 1;
nodes = (
(440,197,l),
(455,267,l),
(14,267,l),
(-1,197,l)
);
},
{
closed = 1;
nodes = (
(111,0,l),
(267,710,l),
(195,710,l),
(39,0,l)
);
},
{
closed = 1;
nodes = (
(489,440,l),
(503,510,l),
(62,510,l),
(48,440,l)
);
}
);
width = 465;
}
);
metricLeft = "=10";
metricRight = "=10";
unicode = 35;
}
{
color = 4;
glyphname = percent;
layers = (
{
background = {
shapes = (
{
closed = 1;
nodes = (
(254,398,o),
(317,458,o),
(338,558,cs),
(342,577,o),
(344,594,o),
(344,610,cs),
(344,678,o),
(308,718,o),
(248,718,cs),
(174,718,o),
(111,658,o),
(90,558,cs),
(86,539,o),
(84,522,o),
(84,506,cs),
(84,438,o),
(120,398,o),
(180,398,cs)
);
},
{
closed = 1;
nodes = (
(140,426,o),
(114,453,o),
(114,508,cs),
(114,522,o),
(116,539,o),
(120,558,cs),
(139,646,o),
(184,690,o),
(242,690,cs),
(288,690,o),
(314,663,o),
(314,608,cs),
(314,594,o),
(312,577,o),
(308,558,cs),
(289,470,o),
(244,426,o),
(186,426,cs)
);
}
);
};
layerId = "EE2FFE84-06F1-4AFB-BBEC-60D09A436D14";
shapes = (
{
closed = 1;
nodes = (
(298,398,o),
(368,490,o),
(368,610,cs),
(368,678,o),
(332,718,o),
(272,718,cs),
(178,718,o),
(108,626,o),
(108,506,cs),
(108,438,o),
(144,398,o),
(204,398,cs)
);
},
{
closed = 1;
nodes = (
(163,426,o),
(138,452,o),
(138,508,cs),
(138,618,o),
(200,690,o),
(266,690,cs),
(313,690,o),
(338,664,o),
(338,608,cs),
(338,498,o),
(276,426,o),
(210,426,cs)
);
},
{
pos = (275,0);
ref = fraction;
},
{
closed = 1;
nodes = (
(549,-8,o),
(619,84,o),
(619,204,cs),
(619,272,o),
(583,312,o),
(523,312,cs),
(429,312,o),
(359,220,o),
(359,100,cs),
(359,32,o),
(395,-8,o),
(455,-8,cs)
);
},
{
closed = 1;
nodes = (
(414,20,o),
(389,46,o),
(389,102,cs),
(389,212,o),
(451,284,o),
(517,284,cs),
(564,284,o),
(589,258,o),
(589,202,cs),
(589,92,o),
(527,20,o),
(461,20,cs)
);
}
);
width = 689;
},
{
background = {
shapes = (
{
closed = 1;
nodes = (
(327,366,o),
(411,419,o),
(437,542,cs),
(441,561,o),
(443,578,o),
(443,594,cs),
(443,680,o),
(386,718,o),
(302,718,cs),
(202,718,o),
(116,664,o),
(90,542,cs),
(86,523,o),
(84,506,o),
(84,490,cs),
(84,404,o),
(142,366,o),
(227,366,cs)
);
},
{
closed = 1;
nodes = (
(220,452,o),
(207,467,o),
(207,499,cs),
(207,511,o),
(209,525,o),
(212,542,cs),
(226,604,o),
(250,632,o),
(284,632,cs),
(309,632,o),
(322,617,o),
(322,586,cs),
(322,574,o),
(320,559,o),
(316,542,cs),
(303,479,o),
(279,452,o),
(245,452,cs)
);
}
);
};
layerId = "3507EE3D-0D92-4546-A145-3A991F0A2B71";
shapes = (
{
closed = 1;
nodes = (
(357,366,o),
(445,444,o),
(445,594,cs),
(445,674,o),
(404,718,o),
(304,718,cs),
(176,718,o),
(86,640,o),
(86,490,cs),
(86,410,o),
(129,366,o),
(229,366,cs)
);
},
{
closed = 1;
nodes = (
(219,452,o),
(208,468,o),
(208,499,cs),
(208,569,o),
(242,632,o),
(286,632,cs),
(311,632,o),
(323,617,o),
(323,586,cs),
(323,516,o),
(288,452,o),
(244,452,cs)
);
},
{
pos = (362,0);
ref = fraction;
},
{
closed = 1;
nodes = (
(745,-8,o),
(833,70,o),
(833,220,cs),
(833,300,o),
(792,344,o),
(692,344,cs),
(564,344,o),
(474,266,o),
(474,116,cs),
(474,36,o),
(517,-8,o),
(617,-8,cs)
);
},
{
closed = 1;
nodes = (
(607,78,o),
(596,94,o),
(596,125,cs),
(596,195,o),
(630,258,o),
(674,258,cs),
(699,258,o),
(711,243,o),
(711,212,cs),
(711,142,o),
(676,78,o),
(632,78,cs)
);
}
);
width = 883;
},
{
background = {
shapes = (
{
closed = 1;
nodes = (
(310,366,o),
(387,428,o),
(411,542,cs),
(415,562,o),
(417,580,o),
(417,596,cs),
(417,675,o),
(370,718,o),
(295,718,cs),
(205,718,o),
(128,656,o),
(103,542,cs),
(99,523,o),
(97,505,o),
(97,489,cs),
(97,409,o),
(145,366,o),
(220,366,cs)
);
},
{
closed = 1;
nodes = (
(191,428,o),
(170,454,o),
(170,499,cs),
(170,512,o),
(172,526,o),
(175,542,cs),
(191,614,o),
(228,656,o),
(282,656,cs),
(324,656,o),
(344,631,o),
(344,587,cs),
(344,573,o),
(343,558,o),
(339,542,cs),
(324,470,o),
(287,428,o),
(233,428,cs)
);
}
);
};
layerId = "6C190511-B94A-4F5A-B519-D6E9DB0E7B93";
shapes = (
{
closed = 1;
nodes = (
(338,366,o),
(419,454,o),
(419,596,cs),
(419,674,o),
(375,718,o),
(297,718,cs),
(181,718,o),
(99,631,o),
(99,489,cs),
(99,411,o),
(144,366,o),
(222,366,cs)
);
},
{
closed = 1;
nodes = (
(194,428,o),
(172,451,o),
(172,499,cs),
(172,597,o),
(224,656,o),
(284,656,cs),
(325,656,o),
(346,635,o),
(346,587,cs),
(346,489,o),
(295,428,o),
(235,428,cs)
);
},
{
pos = (338,0);
ref = fraction;
},
{
closed = 1;
nodes = (
(704,-8,o),
(785,80,o),
(785,222,cs),
(785,300,o),
(741,344,o),
(663,344,cs),
(547,344,o),
(465,257,o),
(465,115,cs),
(465,37,o),
(510,-8,o),
(588,-8,cs)
);
},
{
closed = 1;
nodes = (
(560,54,o),
(538,77,o),
(538,125,cs),
(538,223,o),
(590,282,o),
(650,282,cs),
(691,282,o),
(712,261,o),
(712,213,cs),
(712,115,o),
(661,54,o),
(601,54,cs)
);
}
);
width = 846;
}
);
metricLeft = o;
metricRight = o;
unicode = 37;
}
{
color = 4;
glyphname = ampersand;
kernLeft = ampersand;
kernRight = ampersand;
layers = (
{
associatedMasterId = "EE2FFE84-06F1-4AFB-BBEC-60D09A436D14";
layerId = "ED6EEBD0-B4D0-4FD3-8853-D40404FF21B9";
name = "25 de ene. de 23 17:22";
shapes = (
{
closed = 1;
nodes = (
(45,276,o),
(85,327,o),
(183,393,c),
(-5,633,o),
(263,821,o),
(412,673,cs),
(501,584,o),
(453,452,o),
(305,374,c),
(467,168,l),
(491,200,o),
(500,265,o),
(496,320,c),
(586,312,l),
(586,232,o),
(560,150,o),
(521,103,c),
(607,0,l),
(503,0,l),
(467,44,l),
(428,8,o),
(366,-16,o),
(297,-16,cs),
(147,-16,o),
(45,58,o),
(45,188,cs)
);
},
{
closed = 1;
nodes = (
(134,117,o),
(189,64,o),
(297,64,cs),
(337,64,o),
(386,81,o),
(408,108,c),
(237,326,l),
(193,297,o),
(134,254,o),
(134,188,cs)
);
},
{
closed = 1;
nodes = (
(295,677,o),
(124,618,o),
(254,440,c),
(347,498,o),
(397,563,o),
(352,611,cs)
);
}
);
width = 642;
},
{
background = {
shapes = (
{
closed = 1;
nodes = (
(283,-16,o),
(358,20,o),
(414,70,c),
(455,0,l),
(495,0,l),
(440,95,l),
(477,131,o),
(515,188,o),
(534,242,c),
(501,246,l),
(485,198,o),
(458,155,o),
(426,120,c),
(271,384,l),
(396,452,o),
(449,506,o),
(466,584,cs),
(485,676,o),
(435,726,o),
(351,726,cs),
(264,726,o),
(195,671,o),
(177,584,cs),
(164,524,o),
(180,486,o),
(230,395,c),
(122,335,o),
(48,272,o),
(27,170,cs),
(1,50,o),
(73,-16,o),
(197,-16,cs)
);
},
{
closed = 1;
nodes = (
(102,16,o),
(39,68,o),
(61,170,cs),
(77,246,o),
(129,306,o),
(242,370,c),
(400,96,l),
(351,48,o),
(277,16,o),
(208,16,cs)
);
},
{
closed = 1;
nodes = (
(212,494,o),
(200,534,o),
(211,584,cs),
(225,652,o),
(277,694,o),
(344,694,cs),
(413,694,o),
(446,651,o),
(431,582,cs),
(416,512,o),
(376,476,o),
(259,408,c)
);
}
);
};
layerId = "EE2FFE84-06F1-4AFB-BBEC-60D09A436D14";
name = Regular;
shapes = (
{
closed = 1;
nodes = (
(283,-16,o),
(359,18,o),
(415,72,c),
(455,0,l),
(495,0,l),
(439,95,l),
(477,132,o),
(515,188,o),
(534,242,c),
(501,246,l),
(485,198,o),
(457,156,o),
(424,120,c),
(270,384,l),
(410,454,o),
(475,499,o),
(475,600,cs),
(475,684,o),
(426,726,o),
(347,726,cs),
(247,726,o),
(172,664,o),
(172,564,cs),
(172,500,o),
(191,464,o),
(231,395,c),
(78,318,o),
(19,250,o),
(19,138,cs),
(19,32,o),
(88,-16,o),
(195,-16,cs)
);
},
{
closed = 1;
nodes = (
(114,16,o),
(53,54,o),
(53,142,cs),
(53,242,o),
(116,304,o),
(243,370,c),
(400,98,l),
(351,47,o),
(275,16,o),
(200,16,cs)
);
},
{
closed = 1;
nodes = (
(222,468,o),
(206,510,o),
(206,560,cs),
(206,636,o),
(258,694,o),
(343,694,cs),
(405,694,o),
(441,665,o),
(441,598,cs),
(441,516,o),
(400,476,o),
(258,408,c)
);
}
);
width = 600;
},
{
background = {
shapes = (
{
closed = 1;
nodes = (
(328,-16,o),
(409,-1,o),
(460,21,c),
(474,0,l),
(701,0,l),
(622,118,l),
(682,171,o),
(729,242,o),
(752,315,c),
(559,334,l),
(551,305,o),
(538,277,o),
(524,260,c),
(465,354,l),
(578,406,o),
(643,455,o),
(662,544,cs),
(683,644,o),
(619,726,o),
(453,726,cs),
(294,726,o),
(194,648,o),
(170,534,cs),
(157,472,o),
(176,430,o),
(213,386,c),
(93,327,o),
(34,266,o),
(15,176,cs),
(-11,52,o),
(65,-16,o),
(251,-16,cs)
);
},
{
closed = 1;
nodes = (
(245,148,o),
(215,170,o),
(222,204,cs),
(228,233,o),
(249,258,o),
(289,278,c),
(363,160,l),
(347,152,o),
(327,148,o),
(300,148,cs)
);
},
{
closed = 1;
nodes = (
(368,486,o),
(362,504,o),
(366,524,cs),
(371,550,o),
(392,569,o),
(423,569,cs),
(452,569,o),
(466,552,o),
(460,526,cs),
(454,498,o),
(432,480,o),
(390,460,c)
);
}
);
};
layerId = "3507EE3D-0D92-4546-A145-3A991F0A2B71";
name = "Ultra Black";
shapes = (
{
closed = 1;
nodes = (
(328,-16,o),
(409,-1,o),
(460,21,c),
(474,0,l),
(701,0,l),
(622,118,l),
(682,171,o),
(729,242,o),
(752,315,c),
(559,334,l),
(551,305,o),
(538,277,o),
(524,260,c),
(465,354,l),
(593,406,o),
(666,457,o),
(666,570,cs),
(666,663,o),
(599,726,o),
(453,726,cs),
(295,726,o),
(166,662,o),
(166,509,cs),
(166,466,o),
(185,424,o),
(213,386,c),
(94,328,o),
(9,265,o),
(9,135,cs),
(9,27,o),
(89,-16,o),
(251,-16,cs)
);
},
{
closed = 1;
nodes = (
(246,148,o),
(221,166,o),
(221,195,cs),
(221,237,o),
(256,261,o),
(289,278,c),
(363,160,l),
(347,152,o),
(323,148,o),
(292,148,cs)
);
},
{
closed = 1;
nodes = (
(372,480,o),
(365,494,o),
(365,515,cs),
(365,549,o),
(387,569,o),
(422,569,cs),
(447,569,o),
(461,553,o),
(461,533,cs),
(461,490,o),
(428,474,o),
(390,460,c)
);
}
);
width = 794;
},
{
background = {
shapes = (
{
closed = 1;
nodes = (
(295,-16,o),
(367,8,o),
(414,45,c),
(442,0,l),
(543,0,l),
(479,103,l),
(528,150,o),
(572,230,o),
(590,310,c),
(508,318,l),
(494,250,o),
(471,199,o),
(440,166,c),
(322,373,l),
(444,444,o),
(496,498,o),
(513,574,cs),
(533,668,o),
(485,726,o),
(379,726,cs),
(271,726,o),
(192,664,o),
(170,562,cs),
(157,499,o),
(173,454,o),
(206,394,c),
(84,319,o),
(39,265,o),
(20,174,cs),
(-6,52,o),
(63,-16,o),
(199,-16,cs)
);
},
{
closed = 1;
nodes = (
(128,64,o),
(95,107,o),
(110,174,cs),
(123,236,o),
(160,278,o),
(242,328,c),
(371,106,l),
(343,82,o),
(294,64,o),
(226,64,cs)
);
},
{
closed = 1;
nodes = (
(258,488,o),
(251,521,o),
(260,562,cs),
(271,612,o),
(308,642,o),
(361,642,cs),
(409,642,o),
(431,616,o),
(421,568,cs),
(410,517,o),
(375,481,o),
(289,434,c)
);
}
);
};
layerId = "6C190511-B94A-4F5A-B519-D6E9DB0E7B93";
name = Regular;
shapes = (
{
closed = 1;
nodes = (
(295,-16,o),
(367,8,o),
(414,45,c),
(442,0,l),
(543,0,l),
(479,103,l),
(528,150,o),
(572,230,o),
(590,310,c),
(508,318,l),
(494,250,o),
(471,199,o),
(440,164,c),
(322,373,l),
(470,460,o),
(516,498,o),
(516,588,cs),
(516,669,o),
(469,726,o),
(372,726,cs),
(234,726,o),
(166,652,o),
(166,532,cs),
(166,489,o),
(181,440,o),
(206,394,c),
(76,321,o),
(10,268,o),
(10,140,cs),
(10,35,o),
(82,-16,o),
(199,-16,cs)
);
},
{
closed = 1;
nodes = (
(140,64,o),
(100,91,o),
(100,154,cs),
(100,234,o),
(150,276,o),
(242,328,c),
(374,106,l),
(343,82,o),
(291,64,o),
(220,64,cs)
);
},
{
closed = 1;
nodes = (
(266,474,o),
(256,510,o),
(256,542,cs),
(256,594,o),
(280,642,o),
(354,642,cs),
(400,642,o),
(426,625,o),
(426,580,cs),
(426,520,o),
(400,494,o),
(289,434,c)
);
}
);
width = 632;
}
);
metricLeft = eight;
metricRight = "=eight-20";
unicode = 38;
}
{
color = 4;
glyphname = quotesingle;
kernLeft = quotesingle;
kernRight = quotesingle;
layers = (
{
layerId = "EE2FFE84-06F1-4AFB-BBEC-60D09A436D14";
shapes = (
{
closed = 1;
nodes = (
(125,467,l),
(168,640,l),
(183,710,l),
(145,710,l),
(130,640,l),
(99,467,l)
);
}
);
width = 138;
},
{
layerId = "3507EE3D-0D92-4546-A145-3A991F0A2B71";
shapes = (
{
closed = 1;
nodes = (
(198,422,l),
(255,624,l),
(274,710,l),
(134,710,l),
(115,624,l),
(86,422,l)
);
}
);
width = 220;
},
{
layerId = "6C190511-B94A-4F5A-B519-D6E9DB0E7B93";
shapes = (
{
closed = 1;
nodes = (
(156,444,l),
(211,630,l),
(228,710,l),
(140,710,l),
(123,630,l),
(100,444,l)
);
}
);
width = 178;
}
);
metricLeft = O;
metricRight = O;
unicode = 39;
}
{
color = 4;
glyphname = parenleft;
kernLeft = parenleft;
kernRight = parenleft;
layers = (
{
background = {
shapes = (
{
closed = 1;
nodes = (
(130,-110,l),
(90,34,o),
(86,177,o),
(116,320,cs),
(146,463,o),
(212,607,o),
(312,750,c),
(287,750,l),
(181,607,o),
(112,463,o),
(82,320,cs),
(52,177,o),
(59,34,o),
(105,-110,c)
);
}
);
};
layerId = "EE2FFE84-06F1-4AFB-BBEC-60D09A436D14";
shapes = (
{
closed = 1;
nodes = (
(130,-110,l),
(107,-29,o),
(96,53,o),
(96,136,cs),
(96,348,o),
(178,558,o),
(312,750,c),
(287,750,l),
(148,562,o),
(64,364,o),
(64,148,cs),
(64,60,o),
(77,-24,o),
(105,-110,c)
);
}
);
width = 260;
},
{
background = {
shapes = (
{
closed = 1;
nodes = (
(275,-110,l),
(227,34,o),
(219,177,o),
(249,320,cs),
(279,463,o),
(349,607,o),
(457,750,c),
(285,750,l),
(167,608,o),
(92,464,o),
(61,320,cs),
(30,176,o),
(45,32,o),
(103,-110,c)
);
}
);
};
layerId = "3507EE3D-0D92-4546-A145-3A991F0A2B71";
shapes = (
{
closed = 1;
nodes = (
(275,-110,l),
(246,-22,o),
(231,64,o),
(231,152,cs),
(231,362,o),
(313,559,o),
(457,750,c),
(285,750,l),
(137,572,o),
(45,378,o),
(45,173,cs),
(45,77,o),
(65,-16,o),
(103,-110,c)
);
}
);
width = 386;
},
{
background = {
shapes = (
{
closed = 1;
nodes = (
(195,-110,l),
(141,34,o),
(129,177,o),
(159,320,cs),
(189,463,o),
(263,607,o),
(377,750,c),
(302,750,l),
(181,612,o),
(103,466,o),
(72,320,cs),
(41,174,o),
(57,28,o),
(120,-110,c)
);
}
);
};
layerId = "6C190511-B94A-4F5A-B519-D6E9DB0E7B93";
shapes = (
{
closed = 1;
nodes = (
(195,-110,l),
(160,-17,o),
(143,73,o),
(143,167,cs),
(143,377,o),
(228,563,o),
(377,750,c),
(302,750,l),
(146,572,o),
(57,384,o),
(57,176,cs),
(57,76,o),
(78,-18,o),
(120,-110,c)
);
}
);
width = 315;
}
);
unicode = 40;
}
{
color = 4;
glyphname = asterisk;
kernLeft = asterisk;
kernRight = asterisk;
layers = (
{
guides = (
{
pos = (300,706);
},
{
pos = (287,378);
},
{
angle = 270;
pos = (444,608);
},
{
angle = 270;
pos = (123,598);
},
{
pos = (226,706);
}
);
layerId = "EE2FFE84-06F1-4AFB-BBEC-60D09A436D14";
shapes = (
{
closed = 1;
nodes = (
(279,528,l),
(326,398,l),
(354,414,l),
(304,539,l),
(450,539,l),
(456,569,l),
(313,569,l),
(416,694,l),
(391,710,l),
(287,580,l),
(240,710,l),
(212,694,l),
(262,569,l),
(115,569,l),
(109,539,l),
(253,539,l),
(150,414,l),
(175,398,l)
);
}
);
width = 442;
},
{
associatedMasterId = "EE2FFE84-06F1-4AFB-BBEC-60D09A436D14";
guides = (
{
pos = (228,706);
},
{
pos = (215,378);
},
{
angle = 270;
pos = (372,608);
},
{
angle = 270;
pos = (51,598);
},
{
pos = (154,706);
}
);
layerId = "5C64FE3B-FF75-41D6-99E9-254AEB2DE07B";
name = "24 de feb. de 23 13:25";
shapes = (
{
closed = 1;
nodes = (
(40,562,l),
(40,532,l),
(382,532,l),
(382,562,l)
);
},
{
closed = 1;
nodes = (
(138,703,l),
(113,688,l),
(284,391,l),
(309,406,l)
);
},
{
closed = 1;
nodes = (
(138,391,l),
(309,688,l),
(284,703,l),
(113,406,l)
);
}
);
width = 422;
},
{
layerId = "3507EE3D-0D92-4546-A145-3A991F0A2B71";
shapes = (
{
closed = 1;
nodes = (
(242,432,l),
(274,351,l),
(376,403,l),
(336,479,l),
(426,477,l),
(452,601,l),
(362,599,l),
(428,675,l),
(342,727,l),
(284,644,l),
(256,727,l),
(152,675,l),
(190,599,l),
(100,601,l),
(74,477,l),
(164,479,l),
(100,403,l),
(188,351,l)
);
}
);
width = 412;
},
{
layerId = "6C190511-B94A-4F5A-B519-D6E9DB0E7B93";
shapes = (
{
closed = 1;
nodes = (
(264,488,l),
(303,382,l),
(363,416,l),
(316,518,l),
(435,518,l),
(449,582,l),
(330,582,l),
(419,684,l),
(369,718,l),
(283,611,l),
(242,718,l),
(182,684,l),
(228,582,l),
(108,582,l),
(94,518,l),
(214,518,l),
(126,416,l),
(174,382,l)
);
}
);
width = 422;
}
);
unicode = 42;
}
{
color = 4;
glyphname = comma;
kernLeft = period;
kernRight = period;
layers = (
{
background = {
shapes = (
{
closed = 1;
nodes = (
(19,-125,l),
(59,0,l),
(27,0,l),
(-3,-125,l)
);
},
{
closed = 1;
nodes = (
(59,0,l),
(59,65,l),
(0,65,l),
(0,0,l)
);
}
);
};
layerId = "EE2FFE84-06F1-4AFB-BBEC-60D09A436D14";
shapes = (
{
closed = 1;
nodes = (
(-21,-125,l),
(47,8,l),
(59,65,l),
(0,65,l),
(-14,0,l),
(15,0,l),
(-43,-125,l)
);
}
);
width = 142;
},
{
background = {
shapes = (
{
closed = 1;
nodes = (
(122,-160,l),
(198,0,l),
(68,0,l),
(19,-160,l)
);
},
{
closed = 1;
nodes = (
(198,0,l),
(198,180,l),
(2,180,l),
(2,0,l)
);
}
);
};
layerId = "3507EE3D-0D92-4546-A145-3A991F0A2B71";
shapes = (
{
closed = 1;
nodes = (
(49,-160,l),
(163,18,l),
(197,180,l),
(1,180,l),
(-37,0,l),
(38,0,l),
(-54,-160,l)
);
}
);
width = 237;
},
{
background = {
shapes = (
{
closed = 1;
nodes = (
(57,-154,l),
(114,0,l),
(47,0,l),
(8,-154,l)
);
},
{
closed = 1;
nodes = (
(114,0,l),
(114,113,l),
(1,113,l),
(1,0,l)
);
}
);
};
layerId = "6C190511-B94A-4F5A-B519-D6E9DB0E7B93";
shapes = (
{
closed = 1;
nodes = (
(-6,-156,l),
(90,14,l),
(111,113,l),
(-2,113,l),
(-26,0,l),
(25,0,l),
(-56,-156,l)
);
}
);
width = 173;
}
);
metricLeft = period;
metricRight = period;
unicode = 44;
}
{
color = 4;
glyphname = hyphen;
kernLeft = hyphen;
kernRight = hyphen;
layers = (
{
background = {
shapes = (
{
closed = 1;
nodes = (
(26,232,l),
(358,232,l),
(358,312,l),
(26,312,l)
);
}
);
};
layerId = "EE2FFE84-06F1-4AFB-BBEC-60D09A436D14";
shapes = (
{
closed = 1;
nodes = (
(347,266,l),
(353,296,l),
(57,296,l),
(51,266,l)
);
}
);
width = 397;
},
{
layerId = "3507EE3D-0D92-4546-A145-3A991F0A2B71";
shapes = (
{
closed = 1;
nodes = (
(373,216,l),
(405,368,l),
(53,368,l),
(21,216,l)
);
}
);
width = 416;
},
{
layerId = "6C190511-B94A-4F5A-B519-D6E9DB0E7B93";
shapes = (
{
closed = 1;
nodes = (
(373,252,l),
(389,331,l),
(58,331,l),
(42,252,l)
);
}
);
width = 420;
}
);
metricLeft = o;
metricRight = o;
unicode = 45;
}
{
color = 4;
glyphname = period;
kernLeft = period;
kernRight = period;
layers = (
{
background = {
shapes = (
{
closed = 1;
nodes = (
(35,-6,o),
(48,7,o),
(48,24,cs),
(48,42,o),
(35,55,o),
(17,55,cs),
(-1,55,o),
(-14,42,o),
(-14,24,cs),
(-14,7,o),
(-1,-6,o),
(17,-6,cs)
);
}
);
};
layerId = "EE2FFE84-06F1-4AFB-BBEC-60D09A436D14";
shapes = (
{
closed = 1;
nodes = (
(53,0,l),
(67,65,l),
(8,65,l),
(-6,0,l)
);
}
);
width = 160;
},
{
layerId = "3507EE3D-0D92-4546-A145-3A991F0A2B71";
shapes = (
{
closed = 1;
nodes = (
(171,0,l),
(209,180,l),
(13,180,l),
(-25,0,l)
);
}
);
width = 260;
},
{
layerId = "6C190511-B94A-4F5A-B519-D6E9DB0E7B93";
shapes = (
{
closed = 1;
nodes = (
(101,0,l),
(125,113,l),
(12,113,l),
(-12,0,l)
);
}
);
width = 201;
}
);
metricLeft = o;
metricRight = o;
unicode = 46;
}
{
color = 4;
glyphname = slash;
kernLeft = A;
kernRight = V;
layers = (
{
layerId = "EE2FFE84-06F1-4AFB-BBEC-60D09A436D14";
shapes = (
{
closed = 1;
nodes = (
(-29,-110,l),
(449,750,l),
(417,750,l),
(-60,-110,l)
);
}
);
width = 386;
},
{
layerId = "3507EE3D-0D92-4546-A145-3A991F0A2B71";
shapes = (
{
closed = 1;
nodes = (
(133,-110,l),
(612,750,l),
(418,750,l),
(-61,-110,l)
);
}
);
width = 550;
},
{
layerId = "6C190511-B94A-4F5A-B519-D6E9DB0E7B93";
shapes = (
{
closed = 1;
nodes = (
(20,-110,l),
(497,750,l),
(417,750,l),
(-60,-110,l)
);
}
);
width = 434;
}
);
metricLeft = "=20";
metricRight = "=40";
unicode = 47;
}
{
color = 4;
glyphname = zero;
kernLeft = zero;
kernRight = zero;
layers = (
{
background = {
shapes = (
{
closed = 1;
nodes = (
(427,-16,o),
(560,127,o),
(608,354,cs),
(656,583,o),
(585,726,o),
(423,726,cs),
(261,726,o),
(128,583,o),
(80,354,cs),
(32,127,o),
(103,-16,o),
(265,-16,cs)
);
},
{
closed = 1;
nodes = (
(130,16,o),
(69,142,o),
(114,354,cs),
(159,566,o),
(274,694,o),
(416,694,cs),
(558,694,o),
(619,566,o),
(574,354,cs),
(529,142,o),
(414,16,o),
(272,16,cs)
);
}
);
};
layerId = "EE2FFE84-06F1-4AFB-BBEC-60D09A436D14";
shapes = (
{
closed = 1;
nodes = (
(509,-16,o),
(623,290,o),
(623,484,cs),
(623,636,o),
(552,726,o),
(423,726,cs),
(178,726,o),
(65,419,o),
(65,225,cs),
(65,74,o),
(136,-16,o),
(265,-16,cs)
);
},
{
closed = 1;
nodes = (
(161,16,o),
(99,93,o),
(99,228,cs),
(99,396,o),
(196,694,o),
(416,694,cs),
(527,694,o),
(589,616,o),
(589,480,cs),
(589,312,o),
(492,16,o),
(272,16,cs)
);
}
);
width = 650;
},
{
background = {
shapes = (
{
closed = 1;
nodes = (
(496,-16,o),
(646,125,o),
(695,354,cs),
(744,584,o),
(653,726,o),
(458,726,cs),
(262,726,o),
(111,584,o),
(62,354,cs),
(13,124,o),
(103,-16,o),
(300,-16,cs)
);
},
{
closed = 1;
nodes = (
(258,141,o),
(232,209,o),
(263,354,cs),
(294,499,o),
(348,569,o),
(424,569,cs),
(499,569,o),
(525,499,o),
(494,354,cs),
(463,209,o),
(409,141,o),
(334,141,cs)
);
}
);
};
layerId = "3507EE3D-0D92-4546-A145-3A991F0A2B71";
shapes = (
{
closed = 1;
nodes = (
(544,-16,o),
(708,177,o),
(708,469,cs),
(708,632,o),
(616,726,o),
(458,726,cs),
(214,726,o),
(49,531,o),
(49,239,cs),
(49,76,o),
(140,-16,o),
(300,-16,cs)
);
},
{
closed = 1;
nodes = (
(278,141,o),
(250,178,o),
(250,251,cs),
(250,431,o),
(335,569,o),
(427,569,cs),
(479,569,o),
(507,531,o),
(507,457,cs),
(507,277,o),
(423,141,o),
(331,141,cs)
);
}
);
width = 722;
},
{
background = {
shapes = (
{
closed = 1;
nodes = (
(445,-16,o),
(585,127,o),
(633,354,cs),
(681,583,o),
(603,726,o),
(430,726,cs),
(258,726,o),
(118,582,o),
(70,354,cs),
(22,127,o),
(100,-16,o),
(272,-16,cs)
);
},
{
closed = 1;
nodes = (
(168,68,o),
(121,171,o),
(160,354,cs),
(199,538,o),
(290,642,o),
(412,642,cs),
(535,642,o),
(582,538,o),
(543,354,cs),
(504,171,o),
(413,68,o),
(290,68,cs)
);
}
);
};
layerId = "6C190511-B94A-4F5A-B519-D6E9DB0E7B93";
shapes = (
{
closed = 1;
nodes = (
(475,-16,o),
(647,211,o),
(647,478,cs),
(647,636,o),
(567,726,o),
(430,726,cs),
(229,726,o),
(56,497,o),
(56,231,cs),
(56,73,o),
(136,-16,o),
(272,-16,cs)
);
},
{
closed = 1;
nodes = (
(197,68,o),
(147,127,o),
(147,241,cs),
(147,461,o),
(268,642,o),
(412,642,cs),
(506,642,o),
(556,582,o),
(556,468,cs),
(556,248,o),
(435,68,o),
(290,68,cs)
);
}
);
width = 666;
}
);
unicode = 48;
}
{
color = 4;
glyphname = one;
kernLeft = one;
kernRight = H;
layers = (
{
background = {
shapes = (
{
closed = 1;
nodes = (
(156,0,l),
(306,710,l),
(280,710,l),
(260,614,o),
(228,590,o),
(148,590,cs),
(100,590,l),
(94,564,l),
(243,564,l),
(124,0,l)
);
}
);
};
layerId = "EE2FFE84-06F1-4AFB-BBEC-60D09A436D14";
shapes = (
{
closed = 1;
nodes = (
(176,0,l),
(326,710,l),
(300,710,l),
(280,614,o),
(248,590,o),
(168,590,cs),
(120,590,l),
(114,564,l),
(263,564,l),
(144,0,l)
);
}
);
width = 352;
},
{
associatedMasterId = "EE2FFE84-06F1-4AFB-BBEC-60D09A436D14";
background = {
shapes = (
{
closed = 1;
nodes = (
(46,512,l),
(192,620,l),
(160,647,l),
(160,0,l),
(246,0,l),
(246,710,l),
(172,710,l),
(-8,577,l)
);
}
);
};
layerId = "62097056-30DA-40BF-A05F-DD5AA35C8A84";
name = "4 de may. de 23 16:51";
shapes = (
{
closed = 1;
nodes = (
(25,590,l),
(143,678,l),
(143,0,l),
(173,0,l),
(173,710,l),
(137,710,l),
(5,611,l)
);
}
);
width = 269;
},
{
background = {
shapes = (
{
closed = 1;
nodes = (
(315,0,l),
(465,710,l),
(309,710,l),
(286,600,o),
(238,564,o),
(142,564,cs),
(80,564,l),
(52,428,l),
(210,428,l),
(119,0,l)
);
}
);
};
layerId = "3507EE3D-0D92-4546-A145-3A991F0A2B71";
shapes = (
{
closed = 1;
nodes = (
(333,0,l),
(483,710,l),
(327,710,l),
(304,600,o),
(256,564,o),
(160,564,cs),
(98,564,l),
(70,428,l),
(228,428,l),
(137,0,l)
);
}
);
width = 492;
},
{
background = {
shapes = (
{
closed = 1;
nodes = (
(199,0,l),
(349,710,l),
(281,710,l),
(264,626,o),
(230,600,o),
(152,600,cs),
(92,600,l),
(76,526,l),
(224,526,l),
(113,0,l)
);
}
);
};
layerId = "6C190511-B94A-4F5A-B519-D6E9DB0E7B93";
shapes = (
{
closed = 1;
nodes = (
(218,0,l),
(368,710,l),
(300,710,l),
(283,626,o),
(249,600,o),
(171,600,cs),
(111,600,l),
(95,526,l),
(243,526,l),
(132,0,l)
);
}
);
width = 384;
}
);
unicode = 49;
}
{
color = 4;
glyphname = two;
kernLeft = two;
kernRight = two;
layers = (
{
background = {
shapes = (
{
closed = 1;
nodes = (
(487,0,l),
(493,30,l),
(52,30,l),
(78,122,o),
(175,213,o),
(345,288,cs),
(495,354,o),
(574,412,o),
(598,522,cs),
(622,637,o),
(559,726,o),
(419,726,cs),
(279,726,o),
(166,639,o),
(117,496,c),
(151,493,l),
(199,625,o),
(291,694,o),
(412,694,cs),
(535,694,o),
(584,618,o),
(563,520,cs),
(543,426,o),
(474,379,o),
(333,315,cs),
(134,225,o),
(37,130,o),
(10,0,c)
);
}
);
};
layerId = "EE2FFE84-06F1-4AFB-BBEC-60D09A436D14";
shapes = (
{
closed = 1;
nodes = (
(487,0,l),
(493,30,l),
(62,30,l),
(88,122,o),
(175,215,o),
(345,288,cs),
(531,368,o),
(603,448,o),
(603,568,cs),
(603,660,o),
(540,726,o),
(419,726,cs),
(265,726,o),
(167,640,o),
(119,496,c),
(153,493,l),
(201,627,o),
(289,694,o),
(411,694,cs),
(516,694,o),
(569,643,o),
(569,562,cs),
(569,459,o),
(508,391,o),
(333,315,cs),
(133,228,o),
(47,130,o),
(20,0,c)
);
}
);
width = 614;
},
{
associatedMasterId = "EE2FFE84-06F1-4AFB-BBEC-60D09A436D14";
background = {
shapes = (
{
closed = 1;
nodes = (
(178,279,o),
(34,219,o),
(34,0,c),
(533,0,l),
(533,82,l),
(88,82,l),
(133,45,l),
(124,147,o),
(198,200,o),
(293,260,cs),
(345,293,ls),
(442,355,o),
(527,420,o),
(527,524,cs),
(527,640,o),
(431,726,o),
(301,726,cs),
(139,726,o),
(40,599,o),
(43,440,c),
(-4,501,l),
(176,489,l),
(131,434,l),
(131,545,o),
(191,644,o),
(301,644,cs),
(379,644,o),
(437,599,o),
(437,524,cs),
(437,469,o),
(379,417,o),
(316,374,cs),
(251,329,ls)
);
}
);
};
layerId = "E03EF528-E65A-45B9-8975-F20273B8112F";
name = "24 de feb. de 23 11:29";
shapes = (
{
closed = 1;
nodes = (
(87,493,l),
(108,622,o),
(185,694,o),
(301,694,cs),
(408,694,o),
(483,624,o),
(483,524,cs),
(483,463,o),
(435,401,o),
(321,326,cs),
(256,283,ls),
(100,180,o),
(40,101,o),
(40,0,c),
(515,0,l),
(515,30,l),
(64,30,l),
(76,25,l),
(74,93,o),
(151,182,o),
(288,269,cs),
(340,302,ls),
(454,375,o),
(517,454,o),
(517,524,cs),
(517,643,o),
(428,726,o),
(301,726,cs),
(167,726,o),
(71,637,o),
(53,496,c)
);
}
);
width = 557;
},
{
background = {
shapes = (
{
closed = 1;
nodes = (
(561,0,l),
(594,157,l),
(261,157,l),
(271,185,o),
(323,224,o),
(439,280,cs),
(580,348,o),
(645,394,o),
(668,506,cs),
(696,638,o),
(614,726,o),
(440,726,cs),
(266,726,o),
(142,634,o),
(97,474,c),
(294,463,l),
(315,532,o),
(355,569,o),
(409,569,cs),
(456,569,o),
(476,542,o),
(468,504,cs),
(459,462,o),
(425,440,o),
(319,390,cs),
(134,303,o),
(40,204,o),
(-3,0,c)
);
}
);
};
layerId = "3507EE3D-0D92-4546-A145-3A991F0A2B71";
shapes = (
{
closed = 1;
nodes = (
(561,0,l),
(594,157,l),
(270,157,l),
(286,199,o),
(316,227,o),
(436,278,cs),
(604,350,o),
(670,412,o),
(670,546,cs),
(670,658,o),
(598,726,o),
(430,726,cs),
(239,726,o),
(142,634,o),
(97,474,c),
(294,463,l),
(314,533,o),
(347,569,o),
(406,569,cs),
(449,569,o),
(470,549,o),
(470,514,cs),
(470,466,o),
(451,443,o),
(319,390,cs),
(132,315,o),
(54,214,o),
(10,0,c)
);
}
);
width = 674;
},
{
background = {
shapes = (
{
closed = 1;
nodes = (
(498,0,l),
(516,84,l),
(123,84,l),
(138,138,o),
(220,212,o),
(362,280,cs),
(526,358,o),
(585,412,o),
(608,520,cs),
(634,642,o),
(566,726,o),
(420,726,cs),
(266,726,o),
(154,637,o),
(109,498,c),
(197,492,l),
(233,588,o),
(302,642,o),
(402,642,cs),
(496,642,o),
(533,591,o),
(518,518,cs),
(503,446,o),
(457,414,o),
(348,362,cs),
(111,249,o),
(31,150,o),
(-1,0,c)
);
}
);
};
layerId = "6C190511-B94A-4F5A-B519-D6E9DB0E7B93";
shapes = (
{
closed = 1;
nodes = (
(498,0,l),
(516,84,l),
(138,84,l),
(154,148,o),
(220,214,o),
(362,280,cs),
(518,352,o),
(608,413,o),
(612,563,cs),
(612,658,o),
(546,726,o),
(420,726,cs),
(266,726,o),
(155,637,o),
(110,498,c),
(198,492,l),
(234,588,o),
(302,642,o),
(402,642,cs),
(483,642,o),
(522,605,o),
(522,548,cs),
(520,448,o),
(454,408,o),
(348,362,cs),
(109,258,o),
(46,150,o),
(14,0,c)
);
}
);
width = 614;
}
);
unicode = 50;
}
{
color = 4;
glyphname = three;
kernLeft = three;
kernRight = three;
layers = (
{
background = {
shapes = (
{
closed = 1;
nodes = (
(357,-16,o),
(477,69,o),
(504,195,cs),
(526,299,o),
(463,374,o),
(337,392,c),
(333,376,l),
(455,389,o),
(535,452,o),
(554,543,cs),
(578,654,o),
(506,726,o),
(376,726,cs),
(256,726,o),
(163,663,o),
(123,564,c),
(157,561,l),
(190,643,o),
(271,694,o),
(369,694,cs),
(481,694,o),
(540,635,o),
(520,543,cs),
(501,454,o),
(416,397,o),
(296,397,cs),
(229,397,l),
(223,367,l),
(290,367,ls),
(421,367,o),
(492,300,o),
(471,199,cs),
(447,85,o),
(346,16,o),
(221,16,cs),
(98,16,o),
(32,80,o),
(42,177,c),
(11,174,l),
(-4,60,o),
(73,-16,o),
(214,-16,cs)
);
}
);
};
layerId = "EE2FFE84-06F1-4AFB-BBEC-60D09A436D14";
shapes = (
{
closed = 1;
nodes = (
(390,-16,o),
(509,76,o),
(509,228,cs),
(509,313,o),
(446,376,o),
(337,392,c),
(333,376,l),
(458,389,o),
(559,450,o),
(559,578,cs),
(559,673,o),
(496,726,o),
(376,726,cs),
(246,726,o),
(163,663,o),
(123,564,c),
(157,561,l),
(190,643,o),
(267,694,o),
(369,694,cs),
(481,694,o),
(525,650,o),
(525,570,cs),
(525,459,o),
(421,397,o),
(296,397,cs),
(229,397,l),
(223,367,l),
(290,367,ls),
(406,367,o),
(475,311,o),
(475,225,cs),
(475,85,o),
(361,16,o),
(223,16,cs),
(103,16,o),
(52,64,o),
(52,177,c),
(21,174,l),
(21,43,o),
(90,-16,o),
(220,-16,cs)
);
}
);
width = 579;
},
{
background = {
shapes = (
{
closed = 1;
nodes = (
(442,-16,o),
(571,66,o),
(599,200,cs),
(620,299,o),
(570,360,o),
(456,380,c),
(453,364,l),
(557,382,o),
(628,441,o),
(645,522,cs),
(672,648,o),
(594,726,o),
(410,726,cs),
(242,726,o),
(119,643,o),
(78,513,c),
(272,504,l),
(285,540,o),
(318,569,o),
(376,569,cs),
(433,569,o),
(449,539,o),
(440,498,cs),
(430,449,o),
(390,429,o),
(345,429,cs),
(276,429,l),
(248,297,l),
(317,297,ls),
(381,297,o),
(413,268,o),
(402,218,cs),
(392,172,o),
(349,141,o),
(292,141,cs),
(231,141,o),
(204,171,o),
(211,231,c),
(10,225,l),
(-15,73,o),
(70,-16,o),
(258,-16,cs)
);
}
);
};
layerId = "3507EE3D-0D92-4546-A145-3A991F0A2B71";
shapes = (
{
closed = 1;
nodes = (
(470,-16,o),
(604,72,o),
(604,232,cs),
(604,316,o),
(553,361,o),
(456,378,c),
(453,362,l),
(564,381,o),
(648,434,o),
(648,544,cs),
(648,644,o),
(576,726,o),
(408,726,cs),
(198,726,o),
(121,643,o),
(82,513,c),
(276,504,l),
(286,540,o),
(316,569,o),
(376,569,cs),
(423,569,o),
(448,550,o),
(448,506,cs),
(448,459,o),
(410,429,o),
(345,429,cs),
(276,429,l),
(248,297,l),
(317,297,ls),
(373,297,o),
(404,280,o),
(404,230,cs),
(404,168,o),
(358,141,o),
(294,141,cs),
(233,141,o),
(211,161,o),
(211,231,c),
(10,225,l),
(10,59,o),
(72,-16,o),
(270,-16,cs)
);
}
);
width = 654;
},
{
background = {
shapes = (
{
closed = 1;
nodes = (
(370,-16,o),
(495,62,o),
(524,198,cs),
(546,302,o),
(488,376,o),
(375,390,c),
(372,372,l),
(484,392,o),
(551,446,o),
(570,534,cs),
(595,652,o),
(523,726,o),
(379,726,cs),
(237,726,o),
(138,653,o),
(103,547,c),
(192,541,l),
(214,604,o),
(267,642,o),
(361,642,cs),
(455,642,o),
(495,603,o),
(479,530,cs),
(462,449,o),
(394,419,o),
(310,419,cs),
(254,419,l),
(236,335,l),
(292,335,ls),
(394,335,o),
(454,292,o),
(434,198,cs),
(413,102,o),
(326,68,o),
(234,68,cs),
(145,68,o),
(87,102,o),
(98,189,c),
(7,183,l),
(-11,66,o),
(58,-16,o),
(216,-16,cs)
);
}
);
};
layerId = "6C190511-B94A-4F5A-B519-D6E9DB0E7B93";
shapes = (
{
closed = 1;
nodes = (
(392,-16,o),
(528,72,o),
(528,240,cs),
(528,322,o),
(472,374,o),
(375,386,c),
(372,368,l),
(495,390,o),
(572,442,o),
(572,558,cs),
(572,660,o),
(508,726,o),
(378,726,cs),
(215,726,o),
(138,653,o),
(103,547,c),
(192,541,l),
(214,604,o),
(258,642,o),
(364,642,cs),
(445,642,o),
(482,613,o),
(482,548,cs),
(482,458,o),
(409,419,o),
(310,419,cs),
(254,419,l),
(236,335,l),
(292,335,ls),
(381,335,o),
(438,302,o),
(438,232,cs),
(438,111,o),
(334,68,o),
(240,68,cs),
(146,68,o),
(104,95,o),
(104,189,c),
(13,183,l),
(13,53,o),
(82,-16,o),
(226,-16,cs)
);
}
);
width = 586;
}
);
metricLeft = "=zero-20";
metricRight = "=zero-4";
unicode = 51;
}
{
color = 4;
glyphname = five;
kernLeft = five;
kernRight = five;
layers = (
{
background = {
shapes = (
{
closed = 1;
nodes = (
(386,-16,o),
(503,80,o),
(535,228,cs),
(564,365,o),
(502,471,o),
(351,471,cs),
(261,471,o),
(163,418,o),
(120,344,c),
(127,336,l),
(240,680,l),
(586,680,l),
(592,710,l),
(218,710,l),
(93,327,l),
(132,327,l),
(178,395,o),
(263,439,o),
(345,439,cs),
(477,439,o),
(526,347,o),
(501,228,cs),
(472,95,o),
(376,16,o),
(256,16,cs),
(138,16,o),
(75,76,o),
(83,176,c),
(50,173,l),
(39,63,o),
(111,-16,o),
(249,-16,cs)
);
}
);
};
layerId = "EE2FFE84-06F1-4AFB-BBEC-60D09A436D14";
shapes = (
{
closed = 1;
nodes = (
(431,-16,o),
(541,118,o),
(541,290,cs),
(541,395,o),
(478,471,o),
(351,471,cs),
(251,471,o),
(162,420,o),
(120,344,c),
(127,336,l),
(240,680,l),
(586,680,l),
(592,710,l),
(218,710,l),
(93,327,l),
(132,327,l),
(178,395,o),
(263,439,o),
(345,439,cs),
(459,439,o),
(507,376,o),
(507,286,cs),
(507,136,o),
(403,16,o),
(251,16,cs),
(131,16,o),
(83,60,o),
(83,176,c),
(50,173,l),
(50,43,o),
(111,-16,o),
(247,-16,cs)
);
}
);
width = 604;
},
{
background = {
shapes = (
{
closed = 1;
nodes = (
(462,-16,o),
(598,79,o),
(633,242,cs),
(661,373,o),
(594,474,o),
(444,474,cs),
(358,474,o),
(293,442,o),
(249,396,c),
(264,382,l),
(323,553,l),
(650,553,l),
(683,710,l),
(193,710,l),
(52,284,l),
(244,284,l),
(263,315,o),
(302,342,o),
(354,342,cs),
(415,342,o),
(445,300,o),
(433,242,cs),
(419,178,o),
(375,142,o),
(311,142,cs),
(256,142,o),
(230,164,o),
(228,212,c),
(30,204,l),
(13,69,o),
(88,-16,o),
(278,-16,cs)
);
}
);
};
layerId = "3507EE3D-0D92-4546-A145-3A991F0A2B71";
shapes = (
{
closed = 1;
nodes = (
(489,-16,o),
(632,98,o),
(632,293,cs),
(632,403,o),
(568,474,o),
(440,474,cs),
(354,474,o),
(297,442,o),
(255,396,c),
(270,382,l),
(329,553,l),
(650,553,l),
(683,710,l),
(199,710,l),
(58,284,l),
(250,284,l),
(267,315,o),
(302,342,o),
(354,342,cs),
(406,342,o),
(432,314,o),
(432,266,cs),
(432,188,o),
(381,142,o),
(307,142,cs),
(262,142,o),
(234,164,o),
(234,212,c),
(36,204,l),
(36,36,o),
(118,-16,o),
(279,-16,cs)
);
}
);
width = 675;
},
{
background = {
shapes = (
{
closed = 1;
nodes = (
(402,-16,o),
(527,85,o),
(558,228,cs),
(588,370,o),
(513,473,o),
(371,473,cs),
(295,473,o),
(219,441,o),
(175,380,c),
(188,364,l),
(275,626,l),
(594,626,l),
(612,710,l),
(214,710,l),
(82,311,l),
(174,311,l),
(208,361,o),
(271,391,o),
(337,391,cs),
(441,391,o),
(489,328,o),
(468,228,cs),
(446,128,o),
(371,68,o),
(271,68,cs),
(181,68,o),
(127,109,o),
(134,189,c),
(43,183,l),
(28,65,o),
(103,-16,o),
(253,-16,cs)
);
}
);
};
layerId = "6C190511-B94A-4F5A-B519-D6E9DB0E7B93";
shapes = (
{
closed = 1;
nodes = (
(444,-16,o),
(564,116,o),
(564,288,cs),
(564,398,o),
(492,473,o),
(371,473,cs),
(285,473,o),
(219,441,o),
(175,380,c),
(188,364,l),
(275,626,l),
(594,626,l),
(612,710,l),
(214,710,l),
(82,311,l),
(174,311,l),
(208,361,o),
(271,391,o),
(337,391,cs),
(425,391,o),
(474,348,o),
(474,278,cs),
(474,150,o),
(393,68,o),
(266,68,cs),
(172,68,o),
(134,101,o),
(134,189,c),
(43,183,l),
(43,41,o),
(111,-16,o),
(250,-16,cs)
);
}
);
width = 617;
}
);
unicode = 53;
}
{
color = 4;
glyphname = six;
kernLeft = zero;
kernRight = six;
layers = (
{
background = {
shapes = (
{
closed = 1;
nodes = (
(394,-16,o),
(510,84,o),
(542,234,cs),
(572,376,o),
(502,472,o),
(362,472,cs),
(246,472,o),
(144,404,o),
(99,302,c),
(108,298,l),
(171,568,o),
(291,694,o),
(423,694,cs),
(524,694,o),
(564,633,o),
(568,559,c),
(602,563,l),
(593,659,o),
(544,726,o),
(430,726,cs),
(247,726,o),
(128,533,o),
(78,298,cs),
(31,78,o),
(113,-16,o),
(258,-16,cs)
);
},
{
closed = 1;
nodes = (
(135,16,o),
(77,113,o),
(104,242,cs),
(129,362,o),
(238,441,o),
(355,441,cs),
(475,441,o),
(534,357,o),
(508,234,cs),
(479,96,o),
(381,16,o),
(265,16,cs)
);
}
);
};
layerId = "EE2FFE84-06F1-4AFB-BBEC-60D09A436D14";
shapes = (
{
closed = 1;
nodes = (
(431,-16,o),
(542,105,o),
(542,296,cs),
(542,403,o),
(480,472,o),
(361,472,cs),
(233,472,o),
(142,404,o),
(98,302,c),
(107,298,l),
(136,556,o),
(275,694,o),
(421,694,cs),
(529,694,o),
(561,637,o),
(567,559,c),
(601,563,l),
(593,661,o),
(543,726,o),
(429,726,cs),
(225,726,o),
(65,518,o),
(65,194,cs),
(65,48,o),
(140,-16,o),
(257,-16,cs)
);
},
{
closed = 1;
nodes = (
(155,16,o),
(99,66,o),
(99,194,cs),
(99,331,o),
(213,441,o),
(355,441,cs),
(456,441,o),
(508,382,o),
(508,290,cs),
(508,122,o),
(413,16,o),
(263,16,cs)
);
}
);
width = 595;
},
{
background = {
shapes = (
{
closed = 1;
nodes = (
(454,-16,o),
(588,71,o),
(622,232,cs),
(651,368,o),
(574,458,o),
(426,458,cs),
(326,458,o),
(262,412,o),
(232,364,c),
(254,360,l),
(292,508,o),
(350,573,o),
(428,573,cs),
(478,573,o),
(496,553,o),
(504,516,c),
(681,528,l),
(682,652,o),
(607,726,o),
(462,726,cs),
(258,726,o),
(113,561,o),
(62,321,cs),
(17,111,o),
(84,-16,o),
(283,-16,cs)
);
},
{
closed = 1;
nodes = (
(252,130,o),
(222,170,o),
(234,230,cs),
(247,290,o),
(296,332,o),
(356,332,cs),
(413,332,o),
(442,289,o),
(429,230,cs),
(417,170,o),
(369,130,o),
(311,130,cs)
);
}
);
};
layerId = "3507EE3D-0D92-4546-A145-3A991F0A2B71";
shapes = (
{
closed = 1;
nodes = (
(492,-16,o),
(620,98,o),
(620,284,cs),
(620,389,o),
(553,458,o),
(426,458,cs),
(326,458,o),
(262,412,o),
(232,364,c),
(254,360,l),
(282,504,o),
(346,573,o),
(426,573,cs),
(478,573,o),
(498,554,o),
(504,516,c),
(681,528,l),
(675,654,o),
(603,726,o),
(452,726,cs),
(191,726,o),
(48,519,o),
(48,220,cs),
(48,70,o),
(124,-16,o),
(288,-16,cs)
);
},
{
closed = 1;
nodes = (
(261,130,o),
(242,160,o),
(242,206,cs),
(242,280,o),
(283,332,o),
(356,332,cs),
(400,332,o),
(424,303,o),
(424,258,cs),
(424,183,o),
(377,130,o),
(311,130,cs)
);
}
);
width = 656;
},
{
background = {
shapes = (
{
closed = 1;
nodes = (
(397,-16,o),
(522,80,o),
(555,236,cs),
(586,382,o),
(511,478,o),
(371,478,cs),
(269,478,o),
(182,416,o),
(145,344,c),
(162,340,l),
(209,542,o),
(300,642,o),
(418,642,cs),
(496,642,o),
(524,606,o),
(528,550,c),
(620,558,l),
(613,658,o),
(562,726,o),
(436,726,cs),
(226,726,o),
(115,534,o),
(65,300,cs),
(22,97,o),
(90,-16,o),
(250,-16,cs)
);
},
{
closed = 1;
nodes = (
(172,68,o),
(125,138,o),
(146,236,cs),
(167,334,o),
(252,396,o),
(348,396,cs),
(437,396,o),
(486,334,o),
(465,236,cs),
(442,130,o),
(363,68,o),
(270,68,cs)
);
}
);
};
layerId = "6C190511-B94A-4F5A-B519-D6E9DB0E7B93";
shapes = (
{
closed = 1;
nodes = (
(440,-16,o),
(554,131,o),
(553,298,cs),
(553,409,o),
(490,478,o),
(371,478,cs),
(253,478,o),
(182,416,o),
(145,344,c),
(163,340,l),
(207,542,o),
(300,642,o),
(419,642,cs),
(496,642,o),
(526,606,o),
(528,550,c),
(620,558,l),
(616,658,o),
(563,726,o),
(437,726,cs),
(213,726,o),
(53,503,o),
(53,192,cs),
(53,54,o),
(122,-16,o),
(250,-16,cs)
);
},
{
closed = 1;
nodes = (
(186,68,o),
(143,108,o),
(143,192,cs),
(143,317,o),
(240,396,o),
(348,396,cs),
(423,396,o),
(463,353,o),
(463,280,cs),
(464,175,o),
(389,68,o),
(269,68,cs)
);
}
);
width = 598;
}
);
metricLeft = zero;
metricRight = "=zero-10";
unicode = 54;
}
{
color = 4;
glyphname = seven;
kernLeft = seven;
kernRight = seven;
layers = (
{
background = {
shapes = (
{
closed = 1;
nodes = (
(153,0,l),
(207,258,o),
(374,508,o),
(559,682,c),
(564,710,l),
(95,710,l),
(89,680,l),
(521,680,l),
(330,500,o),
(170,240,o),
(119,0,c)
);
}
);
};
layerId = "EE2FFE84-06F1-4AFB-BBEC-60D09A436D14";
shapes = (
{
closed = 1;
nodes = (
(152,0,l),
(206,258,o),
(365,508,o),
(529,682,c),
(534,710,l),
(95,710,l),
(89,680,l),
(491,680,l),
(321,500,o),
(169,240,o),
(118,0,c)
);
}
);
width = 460;
},
{
background = {
shapes = (
{
closed = 1;
nodes = (
(248,0,l),
(303,260,o),
(412,419,o),
(572,563,c),
(603,710,l),
(65,710,l),
(32,553,l),
(375,553,l),
(222,407,o),
(96,220,o),
(50,0,c)
);
}
);
};
layerId = "3507EE3D-0D92-4546-A145-3A991F0A2B71";
shapes = (
{
closed = 1;
nodes = (
(276,0,l),
(331,260,o),
(435,419,o),
(576,563,c),
(607,710,l),
(94,710,l),
(61,553,l),
(379,553,l),
(245,407,o),
(124,220,o),
(78,0,c)
);
}
);
width = 534;
},
{
background = {
shapes = (
{
closed = 1;
nodes = (
(191,0,l),
(242,240,o),
(361,428,o),
(583,632,c),
(599,710,l),
(95,710,l),
(78,626,l),
(488,626,l),
(291,444,o),
(149,220,o),
(103,0,c)
);
}
);
};
layerId = "6C190511-B94A-4F5A-B519-D6E9DB0E7B93";
shapes = (
{
closed = 1;
nodes = (
(190,0,l),
(241,240,o),
(350,428,o),
(558,632,c),
(574,710,l),
(95,710,l),
(78,626,l),
(463,626,l),
(280,444,o),
(148,220,o),
(102,0,c)
);
}
);
width = 500;
}
);
metricLeft = "=0";
metricRight = "=20";
unicode = 55;
}
{
color = 4;
glyphname = eight;
kernLeft = eight;
kernRight = eight;
layers = (
{
background = {
shapes = (
{
closed = 1;
nodes = (
(372,-16,o),
(489,67,o),
(516,193,cs),
(538,298,o),
(479,374,o),
(369,392,c),
(364,378,l),
(463,398,o),
(535,446,o),
(556,541,cs),
(579,651,o),
(516,726,o),
(379,726,cs),
(242,726,o),
(147,651,o),
(124,541,cs),
(103,446,o),
(155,399,o),
(247,378,c),
(248,392,l),
(130,374,o),
(38,298,o),
(16,193,cs),
(-11,67,o),
(70,-16,o),
(221,-16,cs)
);
},
{
closed = 1;
nodes = (
(91,16,o),
(26,82,o),
(50,194,cs),
(72,297,o),
(165,370,o),
(303,370,cs),
(441,370,o),
(504,297,o),
(482,194,cs),
(458,82,o),
(365,16,o),
(228,16,cs)
);
},
{
closed = 1;
nodes = (
(203,400,o),
(138,449,o),
(158,543,cs),
(177,634,o),
(255,694,o),
(372,694,cs),
(489,694,o),
(541,634,o),
(522,543,cs),
(502,449,o),
(417,400,o),
(310,400,cs)
);
}
);
};
layerId = "EE2FFE84-06F1-4AFB-BBEC-60D09A436D14";
shapes = (
{
closed = 1;
nodes = (
(411,-16,o),
(515,71,o),
(515,223,cs),
(515,316,o),
(458,377,o),
(369,392,c),
(364,378,l),
(468,400,o),
(550,457,o),
(550,584,cs),
(550,670,o),
(488,726,o),
(379,726,cs),
(221,726,o),
(120,648,o),
(120,512,cs),
(120,423,o),
(169,396,o),
(247,378,c),
(248,392,l),
(113,371,o),
(23,301,o),
(23,147,cs),
(23,37,o),
(95,-16,o),
(227,-16,cs)
);
},
{
closed = 1;
nodes = (
(116,16,o),
(57,55,o),
(57,151,cs),
(57,297,o),
(158,370,o),
(303,370,cs),
(423,370,o),
(480,313,o),
(480,221,cs),
(480,83,o),
(378,16,o),
(234,16,cs)
);
},
{
closed = 1;
nodes = (
(194,400,o),
(154,439,o),
(154,516,cs),
(154,624,o),
(238,694,o),
(372,694,cs),
(479,694,o),
(516,649,o),
(516,578,cs),
(516,465,o),
(425,400,o),
(310,400,cs)
);
}
);
width = 600;
},
{
background = {
shapes = (
{
closed = 1;
nodes = (
(477,-16,o),
(613,55,o),
(642,192,cs),
(665,300,o),
(606,372,o),
(490,390,c),
(484,369,l),
(588,386,o),
(662,447,o),
(679,531,cs),
(704,649,o),
(624,726,o),
(434,726,cs),
(244,726,o),
(130,649,o),
(105,531,cs),
(88,447,o),
(135,384,o),
(232,369,c),
(234,390,l),
(112,374,o),
(21,300,o),
(-2,192,cs),
(-31,55,o),
(76,-16,o),
(276,-16,cs)
);
},
{
closed = 1;
nodes = (
(238,142,o),
(196,176,o),
(207,227,cs),
(218,280,o),
(275,316,o),
(347,316,cs),
(419,316,o),
(460,280,o),
(449,227,cs),
(438,176,o),
(382,142,o),
(310,142,cs)
);
},
{
closed = 1;
nodes = (
(318,440,o),
(288,460,o),
(298,504,cs),
(306,544,o),
(343,570,o),
(401,570,cs),
(459,570,o),
(484,544,o),
(476,504,cs),
(466,460,o),
(428,440,o),
(373,440,cs)
);
}
);
};
layerId = "3507EE3D-0D92-4546-A145-3A991F0A2B71";
shapes = (
{
closed = 1;
nodes = (
(491,-16,o),
(640,59,o),
(640,232,cs),
(640,318,o),
(579,375,o),
(480,390,c),
(474,369,l),
(586,387,o),
(667,438,o),
(667,548,cs),
(667,661,o),
(593,726,o),
(425,726,cs),
(226,726,o),
(110,649,o),
(110,500,cs),
(110,427,o),
(158,382,o),
(242,369,c),
(244,390,l),
(113,373,o),
(15,294,o),
(15,164,cs),
(15,40,o),
(122,-16,o),
(278,-16,cs)
);
},
{
closed = 1;
nodes = (
(250,142,o),
(215,159,o),
(215,214,cs),
(215,276,o),
(265,316,o),
(347,316,cs),
(413,316,o),
(440,288,o),
(440,242,cs),
(440,172,o),
(374,142,o),
(306,142,cs)
);
},
{
closed = 1;
nodes = (
(330,440,o),
(310,454,o),
(310,494,cs),
(310,538,o),
(335,570,o),
(404,570,cs),
(442,570,o),
(467,554,o),
(467,514,cs),
(467,470,o),
(432,440,o),
(370,440,cs)
);
}
);
width = 710;
},
{
background = {
shapes = (
{
closed = 1;
nodes = (
(376,-16,o),
(501,57,o),
(530,195,cs),
(552,298,o),
(501,367,o),
(404,391,c),
(397,371,l),
(484,393,o),
(549,443,o),
(567,531,cs),
(591,643,o),
(519,726,o),
(381,726,cs),
(243,726,o),
(135,643,o),
(111,531,cs),
(93,443,o),
(136,393,o),
(213,371,c),
(216,391,l),
(109,367,o),
(28,298,o),
(6,195,cs),
(-23,57,o),
(70,-16,o),
(223,-16,cs)
);
},
{
closed = 1;
nodes = (
(136,68,o),
(78,110,o),
(97,200,cs),
(115,283,o),
(180,337,o),
(298,337,cs),
(416,337,o),
(459,283,o),
(441,200,cs),
(422,110,o),
(346,68,o),
(241,68,cs)
);
},
{
closed = 1;
nodes = (
(227,417,o),
(185,455,o),
(201,531,cs),
(216,599,o),
(273,642,o),
(363,642,cs),
(453,642,o),
(492,599,o),
(477,531,cs),
(461,455,o),
(403,417,o),
(315,417,cs)
);
}
);
};
layerId = "6C190511-B94A-4F5A-B519-D6E9DB0E7B93";
shapes = (
{
closed = 1;
nodes = (
(400,-16,o),
(536,50,o),
(536,224,cs),
(536,316,o),
(482,371,o),
(400,391,c),
(393,371,l),
(501,395,o),
(566,448,o),
(566,560,cs),
(566,661,o),
(510,726,o),
(374,726,cs),
(208,726,o),
(116,634,o),
(116,502,cs),
(116,426,o),
(157,389,o),
(222,370,c),
(224,391,l),
(94,365,o),
(14,291,o),
(14,162,cs),
(14,41,o),
(104,-16,o),
(230,-16,cs)
);
},
{
closed = 1;
nodes = (
(144,68,o),
(104,101,o),
(104,176,cs),
(104,276,o),
(173,337,o),
(298,337,cs),
(398,337,o),
(446,298,o),
(446,214,cs),
(446,104,o),
(366,68,o),
(240,68,cs)
);
},
{
closed = 1;
nodes = (
(235,417,o),
(206,446,o),
(206,508,cs),
(206,590,o),
(268,642,o),
(358,642,cs),
(438,642,o),
(476,612,o),
(476,548,cs),
(476,457,o),
(408,417,o),
(315,417,cs)
);
}
);
width = 604;
}
);
unicode = 56;
}
{
color = 4;
glyphname = nine;
kernLeft = nine;
kernRight = zero;
layers = (
{
background = {
shapes = (
{
closed = 1;
nodes = (
(402,-16,o),
(507,176,o),
(558,416,cs),
(599,608,o),
(539,726,o),
(377,726,cs),
(241,726,o),
(124,622,o),
(92,474,cs),
(63,334,o),
(137,238,o),
(273,238,cs),
(381,238,o),
(480,300,o),
(536,401,c),
(526,415,l),
(470,153,o),
(363,16,o),
(219,16,cs),
(135,16,o),
(84,56,o),
(77,126,c),
(43,122,l),
(52,37,o),
(114,-16,o),
(212,-16,cs)
);
},
{
closed = 1;
nodes = (
(164,270,o),
(101,353,o),
(126,474,cs),
(154,603,o),
(254,694,o),
(370,694,cs),
(498,694,o),
(560,593,o),
(533,470,cs),
(508,352,o),
(400,270,o),
(280,270,cs)
);
}
);
};
layerId = "EE2FFE84-06F1-4AFB-BBEC-60D09A436D14";
shapes = (
{
closed = 1;
nodes = (
(422,-16,o),
(571,212,o),
(571,524,cs),
(571,652,o),
(515,726,o),
(377,726,cs),
(186,726,o),
(91,584,o),
(91,416,cs),
(91,308,o),
(157,238,o),
(273,238,cs),
(407,238,o),
(487,303,o),
(543,404,c),
(531,418,l),
(505,198,o),
(379,16,o),
(211,16,cs),
(135,16,o),
(83,54,o),
(77,126,c),
(43,122,l),
(53,34,o),
(114,-16,o),
(204,-16,cs)
);
},
{
closed = 1;
nodes = (
(172,270,o),
(125,329,o),
(125,422,cs),
(125,568,o),
(214,694,o),
(370,694,cs),
(498,694,o),
(538,621,o),
(537,524,cs),
(535,371,o),
(410,270,o),
(280,270,cs)
);
}
);
width = 596;
},
{
background = {
shapes = (
{
closed = 1;
nodes = (
(447,-16,o),
(582,114,o),
(636,368,cs),
(686,606,o),
(609,726,o),
(405,726,cs),
(234,726,o),
(104,625,o),
(71,466,cs),
(41,326,o),
(115,234,o),
(258,234,cs),
(347,234,o),
(408,260,o),
(457,320,c),
(441,331,l),
(411,190,o),
(367,137,o),
(280,137,cs),
(238,137,o),
(214,153,o),
(208,185,c),
(24,175,l),
(34,44,o),
(105,-16,o),
(247,-16,cs)
);
},
{
closed = 1;
nodes = (
(278,360,o),
(251,402,o),
(265,470,cs),
(280,540,o),
(326,580,o),
(383,580,cs),
(443,580,o),
(468,540,o),
(453,470,cs),
(439,402,o),
(395,360,o),
(336,360,cs)
);
}
);
};
layerId = "3507EE3D-0D92-4546-A145-3A991F0A2B71";
shapes = (
{
closed = 1;
nodes = (
(495,-16,o),
(652,144,o),
(652,490,cs),
(652,656,o),
(564,726,o),
(396,726,cs),
(178,726,o),
(70,594,o),
(70,418,cs),
(70,308,o),
(136,234,o),
(258,234,cs),
(347,234,o),
(421,260,o),
(470,320,c),
(442,334,l),
(412,170,o),
(352,137,o),
(280,137,cs),
(232,137,o),
(212,151,o),
(208,185,c),
(24,175,l),
(32,41,o),
(108,-16,o),
(254,-16,cs)
);
},
{
closed = 1;
nodes = (
(290,360,o),
(266,392,o),
(266,440,cs),
(266,528,o),
(305,580,o),
(378,580,cs),
(426,580,o),
(452,554,o),
(452,498,cs),
(452,412,o),
(411,360,o),
(336,360,cs)
);
}
);
width = 666;
},
{
background = {
shapes = (
{
closed = 1;
nodes = (
(410,-16,o),
(515,159,o),
(566,397,cs),
(608,596,o),
(558,726,o),
(380,726,cs),
(237,726,o),
(112,629,o),
(79,474,cs),
(48,326,o),
(125,226,o),
(263,226,cs),
(355,226,o),
(437,277,o),
(490,366,c),
(470,370,l),
(423,158,o),
(339,68,o),
(221,68,cs),
(151,68,o),
(115,96,o),
(109,144,c),
(17,137,l),
(24,49,o),
(85,-16,o),
(203,-16,cs)
);
},
{
closed = 1;
nodes = (
(197,311,o),
(148,374,o),
(169,474,cs),
(190,572,o),
(264,642,o),
(362,642,cs),
(462,642,o),
(508,570,o),
(487,472,cs),
(465,370,o),
(384,311,o),
(287,311,cs)
);
}
);
};
layerId = "6C190511-B94A-4F5A-B519-D6E9DB0E7B93";
shapes = (
{
closed = 1;
nodes = (
(444,-16,o),
(580,186,o),
(580,512,cs),
(580,652,o),
(520,726,o),
(380,726,cs),
(186,726,o),
(81,593,o),
(81,416,cs),
(81,304,o),
(145,226,o),
(263,226,cs),
(355,226,o),
(449,277,o),
(502,368,c),
(484,374,l),
(454,164,o),
(359,68,o),
(214,68,cs),
(144,68,o),
(118,96,o),
(112,144,c),
(20,137,l),
(26,43,o),
(83,-16,o),
(203,-16,cs)
);
},
{
closed = 1;
nodes = (
(207,311,o),
(171,345,o),
(171,424,cs),
(171,552,o),
(248,642,o),
(362,642,cs),
(455,642,o),
(492,591,o),
(492,510,cs),
(492,403,o),
(417,311,o),
(287,311,cs)
);
}
);
width = 600;
}
);
metricLeft = "=zero-10";
metricRight = zero;
unicode = 57;
}
{
color = 4;
glyphname = equal;
kernLeft = plus;
kernRight = plus;
layers = (
{
background = {
shapes = (
{
closed = 1;
nodes = (
(504,377,l),
(510,407,l),
(70,407,l),
(64,377,l)
);
},
{
closed = 1;
nodes = (
(460,171,l),
(466,201,l),
(26,201,l),
(20,171,l)
);
}
);
};
guides = (
{
pos = (303,422);
},
{
pos = (290,136);
}
);
layerId = "EE2FFE84-06F1-4AFB-BBEC-60D09A436D14";
shapes = (
{
closed = 1;
nodes = (
(504,377,l),
(510,407,l),
(70,407,l),
(64,377,l)
);
},
{
closed = 1;
nodes = (
(460,171,l),
(466,201,l),
(26,201,l),
(20,171,l)
);
}
);
width = 520;
},
{
background = {
shapes = (
{
closed = 1;
nodes = (
(535,337,l),
(566,487,l),
(86,487,l),
(55,337,l)
);
},
{
closed = 1;
nodes = (
(482,90,l),
(514,240,l),
(34,240,l),
(2,90,l)
);
}
);
};
layerId = "3507EE3D-0D92-4546-A145-3A991F0A2B71";
shapes = (
{
closed = 1;
nodes = (
(535,337,l),
(566,487,l),
(86,487,l),
(55,337,l)
);
},
{
closed = 1;
nodes = (
(482,90,l),
(514,240,l),
(34,240,l),
(2,90,l)
);
}
);
width = 561;
},
{
background = {
shapes = (
{
closed = 1;
nodes = (
(521,363,l),
(537,441,l),
(77,441,l),
(61,363,l)
);
},
{
closed = 1;
nodes = (
(477,157,l),
(494,235,l),
(34,235,l),
(17,157,l)
);
}
);
};
layerId = "6C190511-B94A-4F5A-B519-D6E9DB0E7B93";
shapes = (
{
closed = 1;
nodes = (
(521,363,l),
(537,441,l),
(77,441,l),
(61,363,l)
);
},
{
closed = 1;
nodes = (
(477,157,l),
(494,235,l),
(34,235,l),
(17,157,l)
);
}
);
width = 540;
}
);
metricLeft = plus;
metricRight = plus;
unicode = 61;
}
{
color = 4;
glyphname = greater;
kernLeft = plus;
kernRight = plus;
layers = (
{
background = {
shapes = (
{
closed = 1;
nodes = (
(511,273,l),
(511,311,l),
(66,529,l),
(66,495,l),
(490,287,l),
(490,297,l),
(66,89,l),
(66,55,l)
);
}
);
};
guides = (
{
angle = 270;
pos = (38,460);
}
);
layerId = "EE2FFE84-06F1-4AFB-BBEC-60D09A436D14";
shapes = (
{
closed = 1;
nodes = (
(496,275,l),
(504,309,l),
(106,529,l),
(100,501,l),
(489,288,l),
(491,300,l),
(12,87,l),
(6,55,l)
);
}
);
width = 535;
},
{
background = {
shapes = (
{
closed = 1;
nodes = (
(470,205,l),
(470,384,l),
(7,573,l),
(7,412,l),
(407,249,l),
(407,340,l),
(7,178,l),
(7,16,l)
);
}
);
};
layerId = "3507EE3D-0D92-4546-A145-3A991F0A2B71";
shapes = (
{
closed = 1;
nodes = (
(501,204,l),
(539,384,l),
(115,572,l),
(81,416,l),
(447,254,l),
(465,342,l),
(31,180,l),
(-3,16,l)
);
}
);
width = 555;
},
{
background = {
shapes = (
{
closed = 1;
nodes = (
(521,236,l),
(521,342,l),
(66,545,l),
(66,459,l),
(459,283,l),
(459,295,l),
(66,119,l),
(66,33,l)
);
}
);
};
layerId = "6C190511-B94A-4F5A-B519-D6E9DB0E7B93";
shapes = (
{
closed = 1;
nodes = (
(499,236,l),
(521,342,l),
(111,546,l),
(93,464,l),
(453,286,l),
(455,296,l),
(19,118,l),
(1,32,l)
);
}
);
width = 545;
}
);
metricLeft = "=plus+10";
metricRight = plus;
unicode = 62;
}
{
color = 4;
glyphname = question;
kernLeft = question;
kernRight = question;
layers = (
{
anchors = (
{
name = top;
pos = (300,530);
}
);
associatedMasterId = "EE2FFE84-06F1-4AFB-BBEC-60D09A436D14";
layerId = "AA39E20D-F874-4972-B780-940C54564949";
name = "25 de ene. de 23 10:43";
shapes = (
{
closed = 1;
nodes = (
(342,-6,o),
(367,18,o),
(367,51,cs),
(367,84,o),
(342,108,o),
(309,108,cs),
(276,108,o),
(251,84,o),
(251,51,cs),
(251,18,o),
(276,-6,o),
(309,-6,cs)
);
},
{
closed = 1;
nodes = (
(350,204,l),
(350,278,o),
(369,317,o),
(419,351,cs),
(510,413,o),
(547,458,o),
(547,527,cs),
(547,649,o),
(455,726,o),
(309,726,cs),
(175,726,o),
(71,613,o),
(73,469,c),
(30,503,l),
(213,491,l),
(163,458,l),
(162,562,o),
(222,640,o),
(314,640,cs),
(400,640,o),
(456,593,o),
(455,527,cs),
(455,461,o),
(407,450,o),
(352,405,cs),
(289,352,o),
(266,297,o),
(266,204,c)
);
}
);
width = 617;
},
{
background = {
shapes = (
{
closed = 1;
nodes = (
(239,216,l),
(254,288,o),
(283,322,o),
(336,356,cs),
(450,429,o),
(487,464,o),
(505,552,cs),
(525,642,o),
(472,726,o),
(346,726,cs),
(213,726,o),
(116,639,o),
(78,499,c),
(110,497,l),
(144,619,o),
(224,694,o),
(340,694,cs),
(444,694,o),
(490,630,o),
(473,552,cs),
(457,474,o),
(435,450,o),
(327,380,cs),
(260,336,o),
(224,294,o),
(207,216,c)
);
}
);
};
layerId = "EE2FFE84-06F1-4AFB-BBEC-60D09A436D14";
name = Regular;
shapes = (
{
closed = 1;
nodes = (
(239,216,l),
(253,290,o),
(285,325,o),
(338,356,cs),
(450,422,o),
(508,464,o),
(508,576,cs),
(508,658,o),
(460,726,o),
(346,726,cs),
(202,726,o),
(118,643,o),
(90,499,c),
(122,497,l),
(144,627,o),
(222,694,o),
(340,694,cs),
(440,694,o),
(476,648,o),
(476,574,cs),
(476,486,o),
(434,444,o),
(324,380,cs),
(257,341,o),
(223,296,o),
(207,216,c)
);
},
{
pos = (158,0);
ref = period;
}
);
width = 468;
},
{
background = {
shapes = (
{
closed = 1;
nodes = (
(378,240,l),
(390,298,o),
(412,320,o),
(463,344,cs),
(565,392,o),
(603,426,o),
(622,516,cs),
(647,634,o),
(582,726,o),
(400,726,cs),
(224,726,o),
(109,631,o),
(69,501,c),
(268,493,l),
(286,549,o),
(320,576,o),
(368,576,cs),
(414,576,o),
(433,552,o),
(426,516,cs),
(418,480,o),
(405,464,o),
(328,434,cs),
(249,403,o),
(212,354,o),
(188,240,c)
);
}
);
};
layerId = "3507EE3D-0D92-4546-A145-3A991F0A2B71";
name = Regular;
shapes = (
{
closed = 1;
nodes = (
(378,240,l),
(390,298,o),
(412,322,o),
(463,344,cs),
(578,394,o),
(628,438,o),
(628,546,cs),
(628,648,o),
(560,726,o),
(394,726,cs),
(192,726,o),
(109,631,o),
(69,501,c),
(268,493,l),
(286,549,o),
(318,576,o),
(370,576,cs),
(410,576,o),
(428,560,o),
(428,526,cs),
(428,486,o),
(412,468,o),
(328,434,cs),
(251,403,o),
(212,356,o),
(188,240,c)
);
},
{
alignment = -1;
pos = (164,0);
ref = period;
}
);
width = 576;
},
{
background = {
shapes = (
{
closed = 1;
nodes = (
(282,201,l),
(297,271,o),
(319,303,o),
(380,338,cs),
(478,394,o),
(527,438,o),
(545,522,cs),
(571,641,o),
(499,726,o),
(369,726,cs),
(223,726,o),
(110,632,o),
(70,500,c),
(158,494,l),
(189,590,o),
(252,642,o),
(351,642,cs),
(432,642,o),
(470,591,o),
(455,522,cs),
(442,462,o),
(421,438,o),
(333,390,cs),
(255,347,o),
(216,297,o),
(196,201,c)
);
}
);
};
layerId = "6C190511-B94A-4F5A-B519-D6E9DB0E7B93";
name = Regular;
shapes = (
{
closed = 1;
nodes = (
(282,201,l),
(297,271,o),
(319,306,o),
(380,338,cs),
(488,394,o),
(548,444,o),
(548,560,cs),
(548,656,o),
(492,726,o),
(362,726,cs),
(194,726,o),
(114,632,o),
(80,500,c),
(168,494,l),
(193,590,o),
(250,642,o),
(350,642,cs),
(424,642,o),
(458,609,o),
(458,548,cs),
(458,470,o),
(430,442,o),
(332,392,cs),
(253,352,o),
(216,297,o),
(196,201,c)
);
},
{
alignment = -1;
pos = (156,0);
ref = period;
}
);
width = 502;
}
);
unicode = 63;
}
{
color = 4;
glyphname = at;
layers = (
{
background = {
shapes = (
{
closed = 1;
nodes = (
(545,-23,l),
(475,-57,o),
(393,-76,o),
(317,-76,cs),
(125,-76,o),
(17,37,o),
(63,252,cs),
(118,512,o),
(323,680,o),
(554,680,cs),
(776,680,o),
(888,547,o),
(843,337,cs),
(813,197,o),
(752,116,o),
(676,116,cs),
(618,116,o),
(598,155,o),
(616,236,cs),
(622,266,o),
(634,313,o),
(643,339,cs),
(690,490,l),
(664,490,l),
(623,358,l),
(632,360,l),
(628,444,o),
(574,499,o),
(487,499,cs),
(364,499,o),
(253,402,o),
(224,264,cs),
(201,159,o),
(257,82,o),
(361,82,cs),
(462,82,o),
(553,141,o),
(600,236,c),
(589,234,l),
(570,145,o),
(602,86,o),
(669,86,cs),
(762,86,o),
(843,185,o),
(875,337,cs),
(923,563,o),
(799,710,o),
(562,710,cs),
(310,710,o),
(90,528,o),
(31,250,cs),
(-18,20,o),
(105,-106,o),
(309,-106,cs),
(386,-106,o),
(468,-88,o),
(549,-51,c)
);
},
{
closed = 1;
nodes = (
(279,112,o),
(236,170,o),
(256,267,cs),
(282,386,o),
(373,469,o),
(483,469,cs),
(574,469,o),
(621,393,o),
(602,303,cs),
(579,193,o),
(476,112,o),
(376,112,cs)
);
}
);
};
layerId = "EE2FFE84-06F1-4AFB-BBEC-60D09A436D14";
shapes = (
{
closed = 1;
nodes = (
(392,-106,o),
(466,-87,o),
(538,-51,c),
(534,-23,l),
(475,-55,o),
(399,-76,o),
(321,-76,cs),
(165,-76,o),
(73,0,o),
(73,160,cs),
(73,410,o),
(235,680,o),
(535,680,cs),
(731,680,o),
(821,583,o),
(821,424,cs),
(821,224,o),
(733,116,o),
(653,116,cs),
(611,116,o),
(588,140,o),
(588,196,cs),
(588,227,o),
(601,286,o),
(619,340,cs),
(669,490,l),
(643,490,l),
(602,358,l),
(611,360,l),
(607,444,o),
(563,499,o),
(482,499,cs),
(340,499,o),
(240,356,o),
(240,220,cs),
(240,126,o),
(283,82,o),
(364,82,cs),
(462,82,o),
(533,141,o),
(580,234,c),
(560,224,l),
(560,125,o),
(587,86,o),
(648,86,cs),
(750,86,o),
(853,211,o),
(853,429,cs),
(853,602,o),
(741,710,o),
(543,710,cs),
(223,710,o),
(41,437,o),
(41,155,cs),
(41,-23,o),
(143,-106,o),
(317,-106,cs)
);
},
{
closed = 1;
nodes = (
(304,112,o),
(272,142,o),
(272,224,cs),
(272,342,o),
(358,469,o),
(478,469,cs),
(550,469,o),
(585,414,o),
(585,342,cs),
(585,220,o),
(484,112,o),
(372,112,cs)
);
}
);
width = 882;
},
{
background = {
shapes = (
{
closed = 1;
nodes = (
(624,16,l),
(538,-17,o),
(474,-28,o),
(389,-28,cs),
(191,-28,o),
(100,76,o),
(138,252,cs),
(184,468,o),
(366,610,o),
(589,610,cs),
(809,610,o),
(895,522,o),
(856,340,cs),
(834,236,o),
(785,180,o),
(725,180,cs),
(698,180,o),
(683,196,o),
(688,220,cs),
(692,241,o),
(702,273,o),
(712,305,cs),
(772,494,l),
(632,494,l),
(606,410,l),
(633,405,l),
(635,464,o),
(584,503,o),
(505,503,cs),
(386,503,o),
(282,403,o),
(251,260,cs),
(226,141,o),
(279,70,o),
(392,70,cs),
(467,70,o),
(563,125,o),
(594,200,c),
(561,196,l),
(551,125,o),
(591,76,o),
(681,76,cs),
(817,76,o),
(932,180,o),
(970,358,cs),
(1015,570,o),
(872,710,o),
(616,710,cs),
(321,710,o),
(86,524,o),
(26,243,cs),
(-24,7,o),
(99,-128,o),
(364,-128,cs),
(450,-128,o),
(535,-112,o),
(631,-76,c)
);
},
{
closed = 1;
nodes = (
(421,190,o),
(403,221,o),
(414,273,cs),
(428,338,o),
(471,383,o),
(519,383,cs),
(560,383,o),
(577,352,o),
(566,299,cs),
(552,235,o),
(510,190,o),
(462,190,cs)
);
}
);
};
layerId = "3507EE3D-0D92-4546-A145-3A991F0A2B71";
shapes = (
{
closed = 1;
nodes = (
(450,-128,o),
(539,-112,o),
(621,-76,c),
(614,16,l),
(532,-16,o),
(460,-28,o),
(364,-28,cs),
(225,-28,o),
(145,25,o),
(145,180,cs),
(145,421,o),
(301,610,o),
(571,610,cs),
(773,610,o),
(844,539,o),
(844,398,cs),
(844,246,o),
(775,180,o),
(712,180,cs),
(691,180,o),
(677,190,o),
(677,208,cs),
(677,230,o),
(687,259,o),
(702,305,cs),
(762,494,l),
(622,494,l),
(596,410,l),
(623,405,l),
(625,464,o),
(574,503,o),
(507,503,cs),
(365,503,o),
(251,364,o),
(251,206,cs),
(251,116,o),
(294,70,o),
(380,70,cs),
(476,70,o),
(553,125,o),
(584,200,c),
(551,196,l),
(551,108,o),
(587,76,o),
(672,76,cs),
(834,76,o),
(956,192,o),
(956,410,cs),
(956,587,o),
(842,710,o),
(596,710,cs),
(205,710,o),
(33,452,o),
(33,162,cs),
(33,-42,o),
(172,-128,o),
(345,-128,cs)
);
},
{
closed = 1;
nodes = (
(433,190,o),
(417,206,o),
(417,245,cs),
(417,316,o),
(462,383,o),
(513,383,cs),
(542,383,o),
(559,364,o),
(559,328,cs),
(559,258,o),
(511,190,o),
(462,190,cs)
);
}
);
width = 978;
},
{
background = {
shapes = (
{
closed = 1;
nodes = (
(548,0,l),
(484,-26,o),
(409,-40,o),
(337,-40,cs),
(148,-40,o),
(64,65,o),
(104,252,cs),
(153,483,o),
(335,640,o),
(555,640,cs),
(750,640,o),
(836,536,o),
(797,350,cs),
(770,224,o),
(713,148,o),
(645,148,cs),
(613,148,o),
(600,164,o),
(607,194,cs),
(612,218,o),
(625,261,o),
(633,290,cs),
(694,500,l),
(621,500,l),
(594,407,l),
(606,417,l),
(603,467,o),
(556,502,o),
(486,502,cs),
(358,502,o),
(251,394,o),
(223,260,cs),
(200,152,o),
(248,78,o),
(366,78,cs),
(436,78,o),
(516,127,o),
(554,186,c),
(538,182,l),
(529,121,o),
(563,82,o),
(625,82,cs),
(735,82,o),
(835,193,o),
(869,353,cs),
(916,570,o),
(798,710,o),
(572,710,cs),
(311,710,o),
(89,521,o),
(32,250,cs),
(-17,23,o),
(90,-110,o),
(320,-110,cs),
(403,-110,o),
(478,-96,o),
(551,-68,c)
);
},
{
closed = 1;
nodes = (
(308,144,o),
(291,196,o),
(306,266,cs),
(325,357,o),
(390,436,o),
(480,436,cs),
(563,436,o),
(584,381,o),
(569,311,cs),
(552,229,o),
(489,144,o),
(390,144,cs)
);
}
);
};
layerId = "6C190511-B94A-4F5A-B519-D6E9DB0E7B93";
shapes = (
{
closed = 1;
nodes = (
(391,-110,o),
(466,-96,o),
(539,-68,c),
(536,0,l),
(472,-26,o),
(397,-40,o),
(331,-40,cs),
(174,-40,o),
(112,16,o),
(112,168,cs),
(112,424,o),
(268,640,o),
(528,640,cs),
(721,640,o),
(785,560,o),
(785,412,cs),
(785,248,o),
(710,148,o),
(630,148,cs),
(606,148,o),
(593,158,o),
(593,178,cs),
(593,201,o),
(605,236,o),
(621,290,cs),
(682,500,l),
(609,500,l),
(582,407,l),
(594,417,l),
(591,467,o),
(545,502,o),
(475,502,cs),
(331,502,o),
(226,346,o),
(226,206,cs),
(226,120,o),
(277,78,o),
(366,78,cs),
(462,78,o),
(525,140,o),
(544,186,c),
(522,184,l),
(523,109,o),
(551,82,o),
(618,82,cs),
(744,82,o),
(858,209,o),
(858,420,cs),
(858,609,o),
(760,710,o),
(538,710,cs),
(206,710,o),
(38,452,o),
(38,152,cs),
(38,-18,o),
(130,-110,o),
(316,-110,cs)
);
},
{
closed = 1;
nodes = (
(336,144,o),
(310,166,o),
(310,220,cs),
(310,330,o),
(376,436,o),
(468,436,cs),
(535,436,o),
(561,404,o),
(560,354,cs),
(557,251,o),
(487,144,o),
(386,144,cs)
);
}
);
width = 882;
}
);
metricLeft = O;
metricRight = O;
unicode = 64;
}
{
color = 4;
glyphname = B;
kernLeft = b;
kernRight = B;
layers = (
{
anchors = (
{
name = bottom;
pos = (256,0);
},
{
name = top;
pos = (406,710);
}
);
background = {
anchors = (
{
name = bottom;
pos = (256,0);
},
{
name = top;
pos = (406,710);
}
);
shapes = (
{
closed = 1;
nodes = (
(290,0,ls),
(444,0,o),
(533,63,o),
(560,189,cs),
(582,294,o),
(517,360,o),
(391,360,c),
(390,354,l),
(493,354,o),
(579,423,o),
(600,520,cs),
(627,647,o),
(560,710,o),
(400,710,cs),
(183,710,l),
(33,0,l)
);
},
{
closed = 1;
nodes = (
(137,339,l),
(362,339,ls),
(482,339,o),
(545,281,o),
(526,189,cs),
(503,81,o),
(427,30,o),
(296,30,cs),
(71,30,l)
);
},
{
closed = 1;
nodes = (
(209,680,l),
(394,680,ls),
(532,680,o),
(589,627,o),
(566,520,cs),
(545,423,o),
(460,369,o),
(328,369,cs),
(143,369,l)
);
}
);
};
layerId = "EE2FFE84-06F1-4AFB-BBEC-60D09A436D14";
shapes = (
{
closed = 1;
nodes = (
(290,0,ls),
(454,0,o),
(562,60,o),
(562,216,cs),
(562,302,o),
(501,360,o),
(391,360,c),
(390,354,l),
(516,354,o),
(604,443,o),
(604,564,cs),
(604,656,o),
(544,710,o),
(400,710,cs),
(191,710,l),
(41,0,l)
);
},
{
closed = 1;
nodes = (
(145,339,l),
(362,339,ls),
(476,339,o),
(528,297,o),
(528,210,cs),
(528,80,o),
(442,30,o),
(296,30,cs),
(79,30,l)
);
},
{
closed = 1;
nodes = (
(217,680,l),
(394,680,ls),
(523,680,o),
(570,640,o),
(570,560,cs),
(570,421,o),
(468,369,o),
(328,369,cs),
(151,369,l)
);
}
);
width = 634;
},
{
anchors = (
{
name = bottom;
pos = (297,0);
},
{
name = top;
pos = (447,710);
}
);
background = {
anchors = (
{
name = bottom;
pos = (297,0);
},
{
name = top;
pos = (447,710);
}
);
shapes = (
{
closed = 1;
nodes = (
(328,0,ls),
(511,0,o),
(626,63,o),
(654,196,cs),
(675,295,o),
(630,354,o),
(513,366,c),
(514,368,l),
(612,380,o),
(674,430,o),
(692,516,cs),
(721,650,o),
(629,710,o),
(448,710,cs),
(150,710,l),
(0,0,l)
);
},
{
closed = 1;
nodes = (
(259,297,l),
(378,297,ls),
(436,297,o),
(475,274,o),
(464,223,cs),
(453,172,o),
(403,150,o),
(346,150,cs),
(227,150,l)
);
},
{
closed = 1;
nodes = (
(315,560,l),
(409,560,ls),
(466,560,o),
(501,540,o),
(491,492,cs),
(481,446,o),
(436,425,o),
(380,425,cs),
(286,425,l)
);
}
);
};
layerId = "3507EE3D-0D92-4546-A145-3A991F0A2B71";
shapes = (
{
closed = 1;
nodes = (
(328,0,ls),
(532,0,o),
(662,68,o),
(662,236,cs),
(662,314,o),
(612,356,o),
(513,366,c),
(514,368,l),
(627,382,o),
(693,439,o),
(693,546,cs),
(693,655,o),
(612,710,o),
(448,710,cs),
(156,710,l),
(6,0,l)
);
},
{
closed = 1;
nodes = (
(265,297,l),
(378,297,ls),
(436,297,o),
(461,272,o),
(461,232,cs),
(461,175,o),
(420,150,o),
(346,150,cs),
(233,150,l)
);
},
{
closed = 1;
nodes = (
(321,560,l),
(409,560,ls),
(466,560,o),
(492,546,o),
(492,504,cs),
(492,450,o),
(448,425,o),
(380,425,cs),
(292,425,l)
);
}
);
width = 719;
},
{
anchors = (
{
name = bottom;
pos = (273,0);
},
{
name = top;
pos = (423,710);
}
);
background = {
anchors = (
{
name = bottom;
pos = (273,0);
},
{
name = top;
pos = (423,710);
}
);
shapes = (
{
closed = 1;
nodes = (
(309,0,ls),
(464,0,o),
(565,66,o),
(592,195,cs),
(614,299,o),
(554,370,o),
(433,370,c),
(433,364,l),
(535,364,o),
(611,427,o),
(631,519,cs),
(659,651,o),
(587,710,o),
(419,710,cs),
(175,710,l),
(25,0,l)
);
},
{
closed = 1;
nodes = (
(178,319,l),
(376,319,ls),
(473,319,o),
(519,275,o),
(503,200,cs),
(487,125,o),
(423,84,o),
(326,84,cs),
(128,84,l)
);
},
{
closed = 1;
nodes = (
(244,626,l),
(402,626,ls),
(510,626,o),
(556,590,o),
(540,515,cs),
(525,444,o),
(458,403,o),
(354,403,cs),
(196,403,l)
);
}
);
};
layerId = "6C190511-B94A-4F5A-B519-D6E9DB0E7B93";
shapes = (
{
closed = 1;
nodes = (
(310,0,ls),
(486,0,o),
(596,74,o),
(596,228,cs),
(596,316,o),
(535,370,o),
(434,370,c),
(434,362,l),
(552,362,o),
(632,432,o),
(632,548,cs),
(632,652,o),
(566,710,o),
(419,710,cs),
(187,710,l),
(37,0,l)
);
},
{
closed = 1;
nodes = (
(190,319,l),
(376,319,ls),
(473,319,o),
(506,284,o),
(506,220,cs),
(506,128,o),
(438,84,o),
(326,84,cs),
(140,84,l)
);
},
{
closed = 1;
nodes = (
(256,626,l),
(402,626,ls),
(502,626,o),
(542,597,o),
(542,536,cs),
(542,446,o),
(470,403,o),
(354,403,cs),
(208,403,l)
);
}
);
width = 672;
}
);
metricLeft = H;
metricRight = R;
unicode = 66;
}
{
color = 4;
glyphname = C;
kernLeft = O;
kernRight = C;
layers = (
{
anchors = (
{
name = bottom;
pos = (286,0);
},
{
name = top;
pos = (436,710);
}
);
background = {
anchors = (
{
name = bottom;
pos = (286,0);
},
{
name = top;
pos = (436,710);
}
);
shapes = (
{
closed = 1;
nodes = (
(440,-16,o),
(562,84,o),
(621,246,c),
(587,249,l),
(538,103,o),
(431,16,o),
(289,16,cs),
(127,16,o),
(52,144,o),
(97,354,cs),
(141,564,o),
(271,694,o),
(433,694,cs),
(569,694,o),
(636,609,o),
(630,477,c),
(665,480,l),
(668,628,o),
(594,726,o),
(440,726,cs),
(258,726,o),
(112,584,o),
(63,354,cs),
(14,124,o),
(100,-16,o),
(282,-16,cs)
);
}
);
};
layerId = "EE2FFE84-06F1-4AFB-BBEC-60D09A436D14";
shapes = (
{
closed = 1;
nodes = (
(458,-16,o),
(565,86,o),
(619,246,c),
(585,249,l),
(537,103,o),
(437,16,o),
(286,16,cs),
(154,16,o),
(91,89,o),
(91,242,cs),
(91,428,o),
(200,694,o),
(434,694,cs),
(574,694,o),
(626,615,o),
(626,477,c),
(660,480,l),
(660,633,o),
(592,726,o),
(438,726,cs),
(166,726,o),
(57,436,o),
(57,236,cs),
(57,70,o),
(138,-16,o),
(282,-16,cs)
);
}
);
width = 668;
},
{
anchors = (
{
name = bottom;
pos = (325,0);
},
{
name = top;
pos = (475,710);
}
);
background = {
anchors = (
{
name = bottom;
pos = (325,0);
},
{
name = top;
pos = (475,710);
}
);
shapes = (
{
closed = 1;
nodes = (
(511,-16,o),
(644,84,o),
(715,270,c),
(512,277,l),
(482,190,o),
(430,141,o),
(353,141,cs),
(262,141,o),
(226,224,o),
(254,354,cs),
(281,480,o),
(347,569,o),
(445,569,cs),
(513,569,o),
(550,522,o),
(547,441,c),
(752,448,l),
(759,629,o),
(674,726,o),
(479,726,cs),
(265,726,o),
(100,578,o),
(53,354,cs),
(3,120,o),
(119,-16,o),
(317,-16,cs)
);
}
);
};
layerId = "3507EE3D-0D92-4546-A145-3A991F0A2B71";
shapes = (
{
closed = 1;
nodes = (
(516,-16,o),
(651,84,o),
(715,270,c),
(512,277,l),
(486,187,o),
(430,141,o),
(353,141,cs),
(282,141,o),
(252,179,o),
(252,272,cs),
(252,420,o),
(311,569,o),
(447,569,cs),
(511,569,o),
(538,527,o),
(538,441,c),
(739,448,l),
(739,632,o),
(668,726,o),
(478,726,cs),
(182,726,o),
(51,498,o),
(51,250,cs),
(51,69,o),
(149,-16,o),
(318,-16,cs)
);
}
);
width = 750;
},
{
anchors = (
{
name = bottom;
pos = (303,0);
},
{
name = top;
pos = (449,710);
}
);
background = {
anchors = (
{
name = bottom;
pos = (303,0);
},
{
name = top;
pos = (449,710);
}
);
shapes = (
{
closed = 1;
nodes = (
(467,-16,o),
(592,88,o),
(651,242,c),
(561,248,l),
(520,137,o),
(439,68,o),
(315,68,cs),
(179,68,o),
(109,174,o),
(147,354,cs),
(185,534,o),
(301,642,o),
(437,642,cs),
(555,642,o),
(606,579,o),
(604,478,c),
(696,484,l),
(698,633,o),
(627,726,o),
(455,726,cs),
(265,726,o),
(106,584,o),
(57,354,cs),
(8,124,o),
(107,-16,o),
(297,-16,cs)
);
}
);
};
layerId = "6C190511-B94A-4F5A-B519-D6E9DB0E7B93";
shapes = (
{
closed = 1;
nodes = (
(474,-16,o),
(590,88,o),
(647,242,c),
(557,248,l),
(518,137,o),
(436,68,o),
(314,68,cs),
(198,68,o),
(144,119,o),
(144,263,cs),
(144,448,o),
(258,642,o),
(438,642,cs),
(558,642,o),
(599,590,o),
(599,478,c),
(689,484,l),
(689,624,o),
(624,726,o),
(454,726,cs),
(202,726,o),
(54,492,o),
(54,244,cs),
(54,64,o),
(148,-16,o),
(298,-16,cs)
);
}
);
width = 692;
}
);
metricLeft = O;
metricRight = "=O-5";
unicode = 67;
}
{
color = 4;
glyphname = D;
kernLeft = b;
kernRight = O;
layers = (
{
anchors = (
{
name = bottom;
pos = (263,0);
},
{
name = center;
pos = (220,355);
},
{
name = top;
pos = (414,710);
}
);
background = {
shapes = (
{
closed = 1;
nodes = (
(249,0,ls),
(456,0,o),
(598,127,o),
(646,354,cs),
(654,394,o),
(659,431,o),
(659,464,cs),
(659,623,o),
(566,710,o),
(393,710,cs),
(191,710,l),
(41,0,l)
);
},
{
closed = 1;
nodes = (
(217,680,l),
(387,680,ls),
(542,680,o),
(624,601,o),
(624,457,cs),
(624,426,o),
(620,391,o),
(612,354,cs),
(568,146,o),
(438,30,o),
(249,30,cs),
(79,30,l)
);
}
);
};
layerId = "EE2FFE84-06F1-4AFB-BBEC-60D09A436D14";
shapes = (
{
closed = 1;
nodes = (
(250,0,ls),
(486,0,o),
(654,192,o),
(654,464,cs),
(654,622,o),
(566,710,o),
(394,710,cs),
(191,710,l),
(41,0,l)
);
},
{
closed = 1;
nodes = (
(217,680,l),
(386,680,ls),
(546,680,o),
(620,608,o),
(620,458,cs),
(620,202,o),
(456,30,o),
(248,30,cs),
(79,30,l)
);
}
);
width = 676;
},
{
anchors = (
{
name = bottom;
pos = (278,0);
},
{
name = center;
pos = (241,355);
},
{
name = top;
pos = (427,710);
}
);
background = {
shapes = (
{
closed = 1;
nodes = (
(279,0,ls),
(513,0,o),
(671,127,o),
(719,354,cs),
(727,390,o),
(730,423,o),
(730,454,cs),
(730,619,o),
(623,710,o),
(423,710,cs),
(162,710,l),
(12,0,l)
);
},
{
closed = 1;
nodes = (
(325,553,l),
(390,553,ls),
(483,553,o),
(527,514,o),
(527,431,cs),
(527,409,o),
(524,384,o),
(518,355,cs),
(489,219,o),
(424,157,o),
(306,157,cs),
(241,157,l)
);
}
);
};
layerId = "3507EE3D-0D92-4546-A145-3A991F0A2B71";
shapes = (
{
closed = 1;
nodes = (
(279,0,ls),
(543,0,o),
(726,170,o),
(726,442,cs),
(726,612,o),
(622,710,o),
(422,710,cs),
(162,710,l),
(12,0,l)
);
},
{
closed = 1;
nodes = (
(325,553,l),
(392,553,ls),
(485,553,o),
(525,514,o),
(525,419,cs),
(525,239,o),
(424,157,o),
(306,157,cs),
(241,157,l)
);
}
);
width = 742;
},
{
anchors = (
{
name = bottom;
pos = (268,0);
},
{
name = center;
pos = (220,355);
},
{
name = top;
pos = (418,710);
}
);
background = {
anchors = (
{
name = bottom;
pos = (268,0);
},
{
name = center;
pos = (220,355);
},
{
name = top;
pos = (418,710);
}
);
shapes = (
{
closed = 1;
nodes = (
(263,0,ls),
(478,0,o),
(625,127,o),
(673,354,cs),
(721,582,o),
(625,710,o),
(407,710,cs),
(187,710,l),
(37,0,l)
);
},
{
closed = 1;
nodes = (
(256,626,l),
(390,626,ls),
(557,626,o),
(621,536,o),
(583,354,cs),
(545,174,o),
(441,84,o),
(274,84,cs),
(140,84,l)
);
}
);
};
layerId = "6C190511-B94A-4F5A-B519-D6E9DB0E7B93";
shapes = (
{
closed = 1;
nodes = (
(263,0,ls),
(509,0,o),
(675,188,o),
(675,460,cs),
(675,622,o),
(587,710,o),
(407,710,cs),
(187,710,l),
(37,0,l)
);
},
{
closed = 1;
nodes = (
(256,626,l),
(390,626,ls),
(526,626,o),
(585,570,o),
(585,450,cs),
(585,218,o),
(458,84,o),
(276,84,cs),
(140,84,l)
);
}
);
width = 692;
}
);
metricLeft = H;
metricRight = O;
unicode = 68;
}
{
color = 4;
glyphname = E;
kernLeft = b;
kernRight = E;
layers = (
{
anchors = (
{
name = bottom;
pos = (251,0);
},
{
name = ogonek;
pos = (468,0);
},
{
name = top;
pos = (401,710);
}
);
background = {
anchors = (
{
name = bottom;
pos = (251,0);
},
{
name = ogonek;
pos = (468,0);
},
{
name = top;
pos = (401,710);
}
);
shapes = (
{
closed = 1;
nodes = (
(468,0,l),
(474,30,l),
(79,30,l),
(145,339,l),
(520,339,l),
(526,369,l),
(151,369,l),
(217,680,l),
(604,680,l),
(610,710,l),
(191,710,l),
(41,0,l)
);
}
);
};
layerId = "EE2FFE84-06F1-4AFB-BBEC-60D09A436D14";
shapes = (
{
closed = 1;
nodes = (
(468,0,l),
(474,30,l),
(79,30,l),
(145,339,l),
(520,339,l),
(526,369,l),
(151,369,l),
(217,680,l),
(604,680,l),
(610,710,l),
(191,710,l),
(41,0,l)
);
}
);
width = 574;
},
{
anchors = (
{
name = bottom;
pos = (275,0);
},
{
name = ogonek;
pos = (546,0);
},
{
name = top;
pos = (425,710);
}
);
background = {
anchors = (
{
name = bottom;
pos = (275,0);
},
{
name = ogonek;
pos = (546,0);
},
{
name = top;
pos = (425,710);
}
);
shapes = (
{
closed = 1;
nodes = (
(546,0,l),
(579,157,l),
(241,157,l),
(267,278,l),
(585,278,l),
(618,434,l),
(300,434,l),
(325,553,l),
(655,553,l),
(688,710,l),
(162,710,l),
(12,0,l)
);
}
);
};
layerId = "3507EE3D-0D92-4546-A145-3A991F0A2B71";
shapes = (
{
closed = 1;
nodes = (
(546,0,l),
(579,157,l),
(241,157,l),
(267,278,l),
(585,278,l),
(618,434,l),
(300,434,l),
(325,553,l),
(655,553,l),
(688,710,l),
(162,710,l),
(12,0,l)
);
}
);
width = 641;
},
{
anchors = (
{
name = bottom;
pos = (264,0);
},
{
name = ogonek;
pos = (491,0);
},
{
name = top;
pos = (412,710);
}
);
background = {
anchors = (
{
name = bottom;
pos = (264,0);
},
{
name = ogonek;
pos = (491,0);
},
{
name = top;
pos = (412,710);
}
);
shapes = (
{
closed = 1;
nodes = (
(491,0,l),
(508,84,l),
(140,84,l),
(189,315,l),
(537,315,l),
(555,397,l),
(207,397,l),
(256,626,l),
(616,626,l),
(633,710,l),
(187,710,l),
(37,0,l)
);
}
);
};
layerId = "6C190511-B94A-4F5A-B519-D6E9DB0E7B93";
shapes = (
{
closed = 1;
nodes = (
(491,0,l),
(508,84,l),
(140,84,l),
(189,315,l),
(537,315,l),
(555,397,l),
(207,397,l),
(256,626,l),
(616,626,l),
(633,710,l),
(187,710,l),
(37,0,l)
);
}
);
width = 604;
}
);
metricLeft = H;
unicode = 69;
}
{
color = 4;
glyphname = F;
kernLeft = b;
kernRight = F;
layers = (
{
background = {
shapes = (
{
closed = 1;
nodes = (
(73,0,l),
(147,350,l),
(138,339,l),
(514,339,l),
(520,369,l),
(144,369,l),
(146,344,l),
(219,689,l),
(210,680,l),
(604,680,l),
(610,710,l),
(191,710,l),
(41,0,l)
);
}
);
};
layerId = "EE2FFE84-06F1-4AFB-BBEC-60D09A436D14";
shapes = (
{
closed = 1;
nodes = (
(73,0,l),
(147,350,l),
(138,339,l),
(514,339,l),
(520,369,l),
(144,369,l),
(146,344,l),
(219,689,l),
(210,680,l),
(604,680,l),
(610,710,l),
(191,710,l),
(41,0,l)
);
}
);
width = 561;
},
{
background = {
shapes = (
{
closed = 1;
nodes = (
(202,0,l),
(276,350,l),
(147,269,l),
(564,269,l),
(597,425,l),
(180,425,l),
(275,344,l),
(344,669,l),
(207,553,l),
(642,553,l),
(675,710,l),
(156,710,l),
(6,0,l)
);
}
);
};
layerId = "3507EE3D-0D92-4546-A145-3A991F0A2B71";
shapes = (
{
closed = 1;
nodes = (
(202,0,l),
(276,350,l),
(147,269,l),
(564,269,l),
(597,425,l),
(180,425,l),
(275,344,l),
(344,669,l),
(207,553,l),
(642,553,l),
(675,710,l),
(156,710,l),
(6,0,l)
);
}
);
width = 615;
},
{
background = {
shapes = (
{
closed = 1;
nodes = (
(123,0,l),
(197,350,l),
(145,306,l),
(530,306,l),
(547,388,l),
(162,388,l),
(196,344,l),
(265,670,l),
(213,626,l),
(616,626,l),
(633,710,l),
(187,710,l),
(37,0,l)
);
}
);
};
layerId = "6C190511-B94A-4F5A-B519-D6E9DB0E7B93";
shapes = (
{
closed = 1;
nodes = (
(123,0,l),
(197,350,l),
(145,306,l),
(530,306,l),
(547,388,l),
(162,388,l),
(196,344,l),
(265,670,l),
(213,626,l),
(616,626,l),
(633,710,l),
(187,710,l),
(37,0,l)
);
}
);
width = 591;
}
);
metricLeft = H;
metricRight = "=E-5";
unicode = 70;
}
{
color = 4;
glyphname = G;
kernLeft = O;
kernRight = G;
layers = (
{
anchors = (
{
name = bottom;
pos = (288,0);
},
{
name = top;
pos = (443,710);
}
);
background = {
anchors = (
{
name = bottom;
pos = (295,0);
},
{
name = top;
pos = (443,710);
}
);
shapes = (
{
closed = 1;
nodes = (
(439,-16,o),
(542,92,o),
(582,216,c),
(574,216,l),
(533,0,l),
(561,0,l),
(631,330,l),
(365,330,l),
(359,302,l),
(593,302,l),
(542,118,o),
(434,16,o),
(290,16,cs),
(130,16,o),
(56,146,o),
(100,354,cs),
(144,563,o),
(268,694,o),
(440,694,cs),
(564,694,o),
(630,621,o),
(627,477,c),
(661,481,l),
(665,641,o),
(585,726,o),
(447,726,cs),
(254,726,o),
(114,583,o),
(66,354,cs),
(18,127,o),
(102,-16,o),
(283,-16,cs)
);
}
);
};
layerId = "EE2FFE84-06F1-4AFB-BBEC-60D09A436D14";
shapes = (
{
closed = 1;
nodes = (
(439,-16,o),
(542,92,o),
(582,216,c),
(574,216,l),
(529,0,l),
(557,0,l),
(627,330,l),
(365,330,l),
(359,302,l),
(589,302,l),
(542,118,o),
(436,16,o),
(289,16,cs),
(158,16,o),
(92,92,o),
(92,242,cs),
(92,478,o),
(236,694,o),
(440,694,cs),
(568,694,o),
(625,623,o),
(625,477,c),
(659,481,l),
(659,643,o),
(585,726,o),
(447,726,cs),
(221,726,o),
(59,510,o),
(58,236,cs),
(58,79,o),
(136,-16,o),
(283,-16,cs)
);
}
);
width = 668;
},
{
anchors = (
{
name = bottom;
pos = (312,0);
},
{
name = top;
pos = (469,710);
}
);
background = {
anchors = (
{
name = bottom;
pos = (323,0);
},
{
name = top;
pos = (469,710);
}
);
shapes = (
{
closed = 1;
nodes = (
(425,-16,o),
(536,46,o),
(574,140,c),
(553,144,l),
(533,0,l),
(647,0,l),
(726,376,l),
(397,376,l),
(370,246,l),
(503,246,l),
(479,179,o),
(426,141,o),
(353,141,cs),
(247,141,o),
(217,226,o),
(244,354,cs),
(271,483,o),
(343,569,o),
(439,569,cs),
(513,569,o),
(542,529,o),
(539,459,c),
(744,467,l),
(744,631,o),
(665,726,o),
(471,726,cs),
(251,726,o),
(88,568,o),
(43,354,cs),
(-4,132,o),
(91,-16,o),
(299,-16,cs)
);
}
);
};
layerId = "3507EE3D-0D92-4546-A145-3A991F0A2B71";
shapes = (
{
closed = 1;
nodes = (
(425,-16,o),
(524,46,o),
(562,140,c),
(540,146,l),
(520,0,l),
(638,0,l),
(717,376,l),
(397,376,l),
(370,246,l),
(504,246,l),
(478,179,o),
(427,141,o),
(354,141,cs),
(291,141,o),
(254,174,o),
(254,270,cs),
(254,452,o),
(320,569,o),
(442,569,cs),
(513,569,o),
(530,531,o),
(530,459,c),
(735,467,l),
(735,635,o),
(653,726,o),
(466,726,cs),
(196,726,o),
(53,538,o),
(53,248,cs),
(53,78,o),
(130,-16,o),
(308,-16,cs)
);
}
);
width = 740;
},
{
anchors = (
{
name = bottom;
pos = (294,0);
},
{
name = top;
pos = (448,710);
}
);
background = {
anchors = (
{
name = bottom;
pos = (300,0);
},
{
name = top;
pos = (448,710);
}
);
shapes = (
{
closed = 1;
nodes = (
(401,-16,o),
(513,53,o),
(557,150,c),
(548,164,l),
(520,0,l),
(584,0,l),
(660,359,l),
(376,359,l),
(358,277,l),
(562,277,l),
(536,164,o),
(438,68,o),
(312,68,cs),
(153,68,o),
(109,192,o),
(144,354,cs),
(177,508,o),
(272,642,o),
(434,642,cs),
(555,642,o),
(596,578,o),
(595,486,c),
(686,492,l),
(688,624,o),
(622,726,o),
(452,726,cs),
(252,726,o),
(99,567,o),
(54,354,cs),
(8,140,o),
(92,-16,o),
(292,-16,cs)
);
}
);
};
layerId = "6C190511-B94A-4F5A-B519-D6E9DB0E7B93";
shapes = (
{
closed = 1;
nodes = (
(408,-16,o),
(512,62,o),
(554,152,c),
(538,164,l),
(510,0,l),
(574,0,l),
(650,359,l),
(376,359,l),
(358,277,l),
(552,277,l),
(528,160,o),
(440,68,o),
(304,68,cs),
(200,68,o),
(147,117,o),
(147,257,cs),
(147,476,o),
(256,642,o),
(438,642,cs),
(548,642,o),
(585,588,o),
(585,486,c),
(676,492,l),
(676,628,o),
(612,726,o),
(452,726,cs),
(206,726,o),
(57,530,o),
(57,246,cs),
(57,78,o),
(142,-16,o),
(284,-16,cs)
);
}
);
width = 680;
}
);
metricLeft = O;
metricRight = "=O+5";
unicode = 71;
}
{
color = 4;
glyphname = H;
kernLeft = b;
kernRight = d;
layers = (
{
anchors = (
{
name = bottom;
pos = (277,0);
},
{
name = center;
pos = (396,560);
},
{
name = top;
pos = (427,710);
}
);
background = {
anchors = (
{
name = top;
pos = (352,710);
}
);
shapes = (
{
closed = 1;
nodes = (
(142,0,l),
(142,359,l),
(133,349,l),
(570,349,l),
(562,359,l),
(562,0,l),
(594,0,l),
(594,710,l),
(562,710,l),
(562,370,l),
(570,379,l),
(133,379,l),
(142,370,l),
(142,710,l),
(110,710,l),
(110,0,l)
);
}
);
};
layerId = "EE2FFE84-06F1-4AFB-BBEC-60D09A436D14";
shapes = (
{
closed = 1;
nodes = (
(73,0,l),
(149,359,l),
(138,349,l),
(563,349,l),
(557,359,l),
(481,0,l),
(513,0,l),
(663,710,l),
(631,710,l),
(559,370,l),
(569,379,l),
(144,379,l),
(151,370,l),
(223,710,l),
(191,710,l),
(41,0,l)
);
}
);
width = 665;
},
{
anchors = (
{
name = bottom;
pos = (307,0);
},
{
name = center;
pos = (430,580);
},
{
name = top;
pos = (457,710);
}
);
background = {
anchors = (
{
name = top;
pos = (382,710);
}
);
shapes = (
{
closed = 1;
nodes = (
(277,0,l),
(277,335,l),
(194,279,l),
(571,279,l),
(488,335,l),
(488,0,l),
(684,0,l),
(684,710,l),
(488,710,l),
(488,379,l),
(571,436,l),
(194,436,l),
(277,379,l),
(277,710,l),
(81,710,l),
(81,0,l)
);
}
);
};
layerId = "3507EE3D-0D92-4546-A145-3A991F0A2B71";
shapes = (
{
closed = 1;
nodes = (
(208,0,l),
(279,335,l),
(184,279,l),
(549,279,l),
(478,335,l),
(407,0,l),
(603,0,l),
(753,710,l),
(557,710,l),
(487,379,l),
(582,436,l),
(217,436,l),
(288,379,l),
(358,710,l),
(162,710,l),
(12,0,l)
);
}
);
width = 728;
},
{
anchors = (
{
name = bottom;
pos = (296,0);
},
{
name = center;
pos = (416,568);
},
{
name = top;
pos = (446,710);
}
);
background = {
anchors = (
{
name = top;
pos = (370,710);
}
);
shapes = (
{
closed = 1;
nodes = (
(192,0,l),
(192,349,l),
(148,315,l),
(593,315,l),
(549,349,l),
(549,0,l),
(635,0,l),
(635,710,l),
(549,710,l),
(549,365,l),
(593,399,l),
(148,399,l),
(192,365,l),
(192,710,l),
(106,710,l),
(106,0,l)
);
}
);
};
layerId = "6C190511-B94A-4F5A-B519-D6E9DB0E7B93";
shapes = (
{
closed = 1;
nodes = (
(123,0,l),
(197,349,l),
(145,315,l),
(578,315,l),
(542,349,l),
(468,0,l),
(554,0,l),
(704,710,l),
(618,710,l),
(545,365,l),
(596,399,l),
(163,399,l),
(200,365,l),
(273,710,l),
(187,710,l),
(37,0,l)
);
}
);
width = 702;
}
);
unicode = 72;
}
{
color = 4;
glyphname = I;
kernLeft = b;
kernRight = d;
layers = (
{
anchors = (
{
name = bottom;
pos = (57,0);
},
{
name = ogonek;
pos = (73,0);
},
{
name = top;
pos = (207,710);
}
);
background = {
anchors = (
{
name = bottom;
pos = (57,0);
},
{
name = ogonek;
pos = (73,0);
},
{
name = top;
pos = (207,710);
}
);
shapes = (
{
closed = 1;
nodes = (
(73,0,l),
(223,710,l),
(191,710,l),
(41,0,l)
);
}
);
};
layerId = "EE2FFE84-06F1-4AFB-BBEC-60D09A436D14";
shapes = (
{
closed = 1;
nodes = (
(73,0,l),
(223,710,l),
(191,710,l),
(41,0,l)
);
}
);
width = 225;
},
{
anchors = (
{
name = bottom;
pos = (104,0);
},
{
name = ogonek;
pos = (202,0);
},
{
name = top;
pos = (254,710);
}
);
background = {
anchors = (
{
name = bottom;
pos = (104,0);
},
{
name = ogonek;
pos = (202,0);
},
{
name = top;
pos = (254,710);
}
);
shapes = (
{
closed = 1;
nodes = (
(202,0,l),
(352,710,l),
(156,710,l),
(6,0,l)
);
}
);
};
layerId = "3507EE3D-0D92-4546-A145-3A991F0A2B71";
shapes = (
{
closed = 1;
nodes = (
(202,0,l),
(352,710,l),
(156,710,l),
(6,0,l)
);
}
);
width = 321;
},
{
anchors = (
{
name = bottom;
pos = (80,0);
},
{
name = ogonek;
pos = (123,0);
},
{
name = top;
pos = (230,710);
}
);
background = {
anchors = (
{
name = bottom;
pos = (80,0);
},
{
name = ogonek;
pos = (123,0);
},
{
name = top;
pos = (230,710);
}
);
shapes = (
{
closed = 1;
nodes = (
(123,0,l),
(273,710,l),
(187,710,l),
(37,0,l)
);
}
);
};
layerId = "6C190511-B94A-4F5A-B519-D6E9DB0E7B93";
shapes = (
{
closed = 1;
nodes = (
(123,0,l),
(273,710,l),
(187,710,l),
(37,0,l)
);
}
);
width = 271;
}
);
metricLeft = H;
metricRight = H;
unicode = 73;
}
{
color = 4;
glyphname = J;
kernLeft = J;
kernRight = U;
layers = (
{
anchors = (
{
name = top;
pos = (535,710);
}
);
background = {
anchors = (
{
name = top;
pos = (535,710);
}
);
shapes = (
{
closed = 1;
nodes = (
(314,-16,o),
(416,76,o),
(453,248,cs),
(551,710,l),
(519,710,l),
(421,248,ls),
(388,93,o),
(303,16,o),
(194,16,cs),
(91,16,o),
(38,92,o),
(66,236,c),
(32,233,l),
(0,76,o),
(65,-16,o),
(187,-16,cs)
);
}
);
};
layerId = "EE2FFE84-06F1-4AFB-BBEC-60D09A436D14";
shapes = (
{
closed = 1;
nodes = (
(326,-16,o),
(413,60,o),
(453,248,cs),
(551,710,l),
(519,710,l),
(421,250,ls),
(387,90,o),
(312,16,o),
(200,16,cs),
(126,16,o),
(79,46,o),
(79,146,cs),
(79,174,o),
(84,214,o),
(88,236,c),
(54,233,l),
(49,206,o),
(45,173,o),
(45,146,cs),
(45,38,o),
(99,-16,o),
(196,-16,cs)
);
}
);
width = 538;
},
{
anchors = (
{
name = top;
pos = (580,710);
}
);
background = {
anchors = (
{
name = top;
pos = (580,710);
}
);
shapes = (
{
closed = 1;
nodes = (
(410,-16,o),
(547,92,o),
(583,260,cs),
(678,710,l),
(482,710,l),
(387,260,ls),
(368,175,o),
(329,141,o),
(277,141,cs),
(224,141,o),
(200,179,o),
(219,275,c),
(21,267,l),
(-11,105,o),
(56,-16,o),
(244,-16,cs)
);
}
);
};
layerId = "3507EE3D-0D92-4546-A145-3A991F0A2B71";
shapes = (
{
closed = 1;
nodes = (
(425,-16,o),
(541,62,o),
(583,260,cs),
(678,710,l),
(482,710,l),
(388,266,ls),
(370,180,o),
(330,141,o),
(270,141,cs),
(238,141,o),
(216,158,o),
(216,208,cs),
(216,228,o),
(219,255,o),
(225,275,c),
(27,267,l),
(21,245,o),
(17,214,o),
(17,188,cs),
(17,66,o),
(92,-16,o),
(247,-16,cs)
);
}
);
width = 632;
},
{
anchors = (
{
name = top;
pos = (557,710);
}
);
background = {
anchors = (
{
name = top;
pos = (557,710);
}
);
shapes = (
{
closed = 1;
nodes = (
(357,-16,o),
(467,86,o),
(501,248,cs),
(599,710,l),
(513,710,l),
(415,248,ls),
(391,133,o),
(326,68,o),
(236,68,cs),
(149,68,o),
(112,129,o),
(134,238,c),
(45,232,l),
(15,86,o),
(86,-16,o),
(218,-16,cs)
);
}
);
};
layerId = "6C190511-B94A-4F5A-B519-D6E9DB0E7B93";
shapes = (
{
closed = 1;
nodes = (
(361,-16,o),
(462,64,o),
(501,248,cs),
(599,710,l),
(513,710,l),
(415,248,ls),
(389,126,o),
(324,68,o),
(230,68,cs),
(166,68,o),
(132,93,o),
(132,166,cs),
(132,190,o),
(136,224,o),
(140,238,c),
(50,232,l),
(46,216,o),
(42,186,o),
(42,160,cs),
(42,42,o),
(111,-16,o),
(224,-16,cs)
);
}
);
width = 582;
}
);
metricLeft = "=U-20";
metricRight = U;
unicode = 74;
}
{
color = 4;
glyphname = K;
kernLeft = H;
kernRight = X;
layers = (
{
anchors = (
{
name = bottom;
pos = (268,0);
},
{
name = top;
pos = (408,710);
}
);
background = {
anchors = (
{
name = bottom;
pos = (268,0);
},
{
name = top;
pos = (408,710);
}
);
shapes = (
{
closed = 1;
nodes = (
(69,0,l),
(118,233,l),
(286,380,l),
(499,0,l),
(536,0,l),
(310,401,l),
(664,710,l),
(625,710,l),
(127,275,l),
(219,710,l),
(187,710,l),
(37,0,l)
);
}
);
};
layerId = "EE2FFE84-06F1-4AFB-BBEC-60D09A436D14";
shapes = (
{
closed = 1;
nodes = (
(73,0,l),
(122,232,l),
(288,378,l),
(495,0,l),
(532,0,l),
(312,398,l),
(660,710,l),
(620,710,l),
(132,276,l),
(223,710,l),
(191,710,l),
(41,0,l)
);
}
);
width = 608;
},
{
anchors = (
{
name = bottom;
pos = (329,0);
},
{
name = top;
pos = (329,710);
}
);
associatedMasterId = "EE2FFE84-06F1-4AFB-BBEC-60D09A436D14";
background = {
shapes = (
{
closed = 1;
nodes = (
(70,0,l),
(158,0,l),
(158,710,l),
(70,710,l)
);
},
{
closed = 1;
nodes = (
(72,262,l),
(157,236,l),
(585,710,l),
(477,710,l)
);
},
{
closed = 1;
nodes = (
(206,399,l),
(500,0,l),
(602,0,l),
(303,405,l)
);
}
);
};
layerId = "3A429947-F838-409F-94EB-A9A7478FB0A7";
name = "24 de feb. de 23 09:14";
shapes = (
{
closed = 1;
nodes = (
(98,0,l),
(130,0,l),
(130,710,l),
(98,710,l)
);
},
{
closed = 1;
nodes = (
(100,243,l),
(126,229,l),
(575,710,l),
(536,710,l)
);
},
{
closed = 1;
nodes = (
(258,392,l),
(560,0,l),
(597,0,l),
(283,405,l)
);
}
);
width = 600;
},
{
anchors = (
{
name = bottom;
pos = (304,0);
},
{
name = top;
pos = (448,710);
}
);
background = {
anchors = (
{
name = bottom;
pos = (304,0);
},
{
name = top;
pos = (448,710);
}
);
shapes = (
{
closed = 1;
nodes = (
(198,0,l),
(238,190,l),
(316,266,l),
(434,0,l),
(651,0,l),
(471,393,l),
(787,710,l),
(565,710,l),
(289,429,l),
(348,710,l),
(152,710,l),
(2,0,l)
);
}
);
};
layerId = "3507EE3D-0D92-4546-A145-3A991F0A2B71";
shapes = (
{
closed = 1;
nodes = (
(202,0,l),
(242,192,l),
(319,266,l),
(435,0,l),
(651,0,l),
(471,387,l),
(788,710,l),
(554,710,l),
(290,430,l),
(352,710,l),
(156,710,l),
(6,0,l)
);
}
);
width = 718;
},
{
anchors = (
{
name = bottom;
pos = (288,0);
},
{
name = top;
pos = (419,710);
}
);
background = {
anchors = (
{
name = bottom;
pos = (288,0);
},
{
name = top;
pos = (419,710);
}
);
shapes = (
{
closed = 1;
nodes = (
(119,0,l),
(169,237,l),
(282,338,l),
(461,0,l),
(566,0,l),
(354,402,l),
(697,710,l),
(588,710,l),
(194,357,l),
(269,710,l),
(183,710,l),
(33,0,l)
);
}
);
};
layerId = "6C190511-B94A-4F5A-B519-D6E9DB0E7B93";
shapes = (
{
closed = 1;
nodes = (
(123,0,l),
(174,242,l),
(284,342,l),
(460,0,l),
(565,0,l),
(352,400,l),
(698,710,l),
(588,710,l),
(196,356,l),
(273,710,l),
(187,710,l),
(37,0,l)
);
}
);
width = 636;
}
);
metricLeft = H;
metricRight = X;
unicode = 75;
}
{
color = 4;
glyphname = L;
kernLeft = H;
kernRight = L;
layers = (
{
anchors = (
{
name = bottom;
pos = (248,0);
},
{
name = center;
pos = (165,380);
},
{
name = top;
pos = (207,710);
},
{
name = topright;
pos = (397,530);
}
);
background = {
anchors = (
{
name = bottom;
pos = (248,0);
},
{
name = center;
pos = (165,380);
},
{
name = top;
pos = (207,710);
},
{
name = topright;
pos = (397,530);
}
);
shapes = (
{
closed = 1;
nodes = (
(455,0,l),
(461,30,l),
(72,30,l),
(77,21,l),
(223,710,l),
(191,710,l),
(41,0,l)
);
}
);
};
layerId = "EE2FFE84-06F1-4AFB-BBEC-60D09A436D14";
shapes = (
{
closed = 1;
nodes = (
(455,0,l),
(461,30,l),
(72,30,l),
(77,21,l),
(223,710,l),
(191,710,l),
(41,0,l)
);
}
);
width = 551;
},
{
anchors = (
{
name = bottom;
pos = (258,0);
},
{
name = center;
pos = (214,380);
},
{
name = top;
pos = (254,710);
},
{
name = topright;
pos = (408,540);
}
);
background = {
anchors = (
{
name = bottom;
pos = (258,0);
},
{
name = center;
pos = (214,380);
},
{
name = top;
pos = (254,710);
},
{
name = topright;
pos = (408,540);
}
);
shapes = (
{
closed = 1;
nodes = (
(511,0,l),
(544,157,l),
(123,157,l),
(210,41,l),
(352,710,l),
(156,710,l),
(6,0,l)
);
}
);
};
layerId = "3507EE3D-0D92-4546-A145-3A991F0A2B71";
shapes = (
{
closed = 1;
nodes = (
(511,0,l),
(544,157,l),
(123,157,l),
(210,41,l),
(352,710,l),
(156,710,l),
(6,0,l)
);
}
);
width = 596;
},
{
anchors = (
{
name = bottom;
pos = (258,0);
},
{
name = center;
pos = (199,380);
},
{
name = top;
pos = (230,710);
},
{
name = topright;
pos = (437,530);
}
);
background = {
anchors = (
{
name = bottom;
pos = (258,0);
},
{
name = center;
pos = (199,380);
},
{
name = top;
pos = (230,710);
},
{
name = topright;
pos = (437,530);
}
);
shapes = (
{
closed = 1;
nodes = (
(478,0,l),
(495,84,l),
(97,84,l),
(131,40,l),
(273,710,l),
(187,710,l),
(37,0,l)
);
}
);
};
layerId = "6C190511-B94A-4F5A-B519-D6E9DB0E7B93";
shapes = (
{
closed = 1;
nodes = (
(478,0,l),
(495,84,l),
(97,84,l),
(131,40,l),
(273,710,l),
(187,710,l),
(37,0,l)
);
}
);
width = 581;
}
);
metricLeft = H;
metricRight = "=E-10";
unicode = 76;
}
{
color = 4;
glyphname = M;
kernLeft = b;
kernRight = d;
layers = (
{
anchors = (
{
name = bottom;
pos = (366,0);
},
{
name = top;
pos = (516,710);
}
);
background = {
anchors = (
{
name = bottom;
pos = (366,0);
},
{
name = top;
pos = (516,710);
}
);
shapes = (
{
closed = 1;
nodes = (
(69,0,l),
(213,680,l),
(348,0,l),
(384,0,l),
(807,680,l),
(663,0,l),
(695,0,l),
(845,710,l),
(791,710,l),
(373,34,l),
(241,710,l),
(187,710,l),
(37,0,l)
);
}
);
};
layerId = "EE2FFE84-06F1-4AFB-BBEC-60D09A436D14";
shapes = (
{
closed = 1;
nodes = (
(73,0,l),
(217,680,l),
(348,0,l),
(384,0,l),
(802,680,l),
(658,0,l),
(690,0,l),
(840,710,l),
(786,710,l),
(372,34,l),
(245,710,l),
(191,710,l),
(41,0,l)
);
}
);
width = 842;
},
{
associatedMasterId = "EE2FFE84-06F1-4AFB-BBEC-60D09A436D14";
background = {
shapes = (
{
closed = 1;
nodes = (
(70,0,l),
(158,0,l),
(158,710,l),
(70,710,l)
);
},
{
closed = 1;
nodes = (
(363,0,l),
(471,0,l),
(737,710,l),
(642,710,l),
(404,62,l),
(429,62,l),
(192,710,l),
(97,710,l)
);
},
{
closed = 1;
nodes = (
(676,0,l),
(764,0,l),
(764,710,l),
(676,710,l)
);
}
);
};
layerId = "1FB2E68D-DD9B-4BCB-982F-D48DBDE51AF6";
name = "5 de feb. de 23 02:23";
shapes = (
{
closed = 1;
nodes = (
(88,0,l),
(120,0,l),
(120,656,l),
(401,0,l),
(435,0,l),
(714,678,l),
(714,0,l),
(746,0,l),
(746,710,l),
(692,710,l),
(417,34,l),
(192,710,l),
(88,710,l)
);
}
);
width = 600;
},
{
anchors = (
{
name = bottom;
pos = (411,0);
},
{
name = top;
pos = (561,710);
}
);
background = {
anchors = (
{
name = bottom;
pos = (411,0);
},
{
name = top;
pos = (561,710);
}
);
shapes = (
{
closed = 1;
nodes = (
(199,0,l),
(284,400,l),
(341,3,l),
(480,3,l),
(708,400,l),
(623,0,l),
(819,0,l),
(969,710,l),
(711,710,l),
(466,259,l),
(411,710,l),
(153,710,l),
(3,0,l)
);
}
);
};
layerId = "3507EE3D-0D92-4546-A145-3A991F0A2B71";
shapes = (
{
closed = 1;
nodes = (
(202,0,l),
(287,400,l),
(341,3,l),
(480,3,l),
(704,400,l),
(619,0,l),
(815,0,l),
(965,710,l),
(699,710,l),
(460,259,l),
(406,710,l),
(156,710,l),
(6,0,l)
);
}
);
width = 934;
},
{
anchors = (
{
name = bottom;
pos = (380,0);
},
{
name = top;
pos = (530,710);
}
);
background = {
anchors = (
{
name = bottom;
pos = (380,0);
},
{
name = top;
pos = (530,710);
}
);
shapes = (
{
closed = 1;
nodes = (
(119,0,l),
(235,550,l),
(322,0,l),
(437,0,l),
(756,550,l),
(640,0,l),
(726,0,l),
(876,710,l),
(756,710,l),
(400,94,l),
(303,710,l),
(183,710,l),
(33,0,l)
);
}
);
};
layerId = "6C190511-B94A-4F5A-B519-D6E9DB0E7B93";
shapes = (
{
closed = 1;
nodes = (
(123,0,l),
(239,550,l),
(322,0,l),
(437,0,l),
(752,550,l),
(636,0,l),
(722,0,l),
(872,710,l),
(750,710,l),
(394,94,l),
(305,710,l),
(187,710,l),
(37,0,l)
);
}
);
width = 870;
}
);
metricLeft = H;
metricRight = H;
unicode = 77;
}
{
color = 4;
glyphname = N;
kernLeft = b;
kernRight = d;
layers = (
{
anchors = (
{
name = bottom;
pos = (297,0);
},
{
name = top;
pos = (447,710);
}
);
background = {
anchors = (
{
name = bottom;
pos = (297,0);
},
{
name = top;
pos = (447,710);
}
);
shapes = (
{
closed = 1;
nodes = (
(69,0,l),
(213,680,l),
(509,0,l),
(556,0,l),
(706,710,l),
(674,710,l),
(530,30,l),
(234,710,l),
(187,710,l),
(37,0,l)
);
}
);
};
layerId = "EE2FFE84-06F1-4AFB-BBEC-60D09A436D14";
shapes = (
{
closed = 1;
nodes = (
(73,0,l),
(217,680,l),
(505,0,l),
(552,0,l),
(702,710,l),
(670,710,l),
(526,30,l),
(238,710,l),
(191,710,l),
(41,0,l)
);
}
);
width = 704;
},
{
anchors = (
{
name = bottom;
pos = (313,0);
},
{
name = top;
pos = (468,710);
}
);
background = {
anchors = (
{
name = bottom;
pos = (313,0);
},
{
name = top;
pos = (468,710);
}
);
shapes = (
{
closed = 1;
nodes = (
(198,0,l),
(278,380,l),
(435,0,l),
(633,0,l),
(783,710,l),
(587,710,l),
(502,310,l),
(350,710,l),
(152,710,l),
(2,0,l)
);
}
);
};
layerId = "3507EE3D-0D92-4546-A145-3A991F0A2B71";
shapes = (
{
closed = 1;
nodes = (
(202,0,l),
(282,380,l),
(431,0,l),
(629,0,l),
(779,710,l),
(583,710,l),
(498,310,l),
(354,710,l),
(156,710,l),
(6,0,l)
);
}
);
width = 748;
},
{
anchors = (
{
name = bottom;
pos = (314,0);
},
{
name = top;
pos = (477,710);
}
);
background = {
anchors = (
{
name = bottom;
pos = (314,0);
},
{
name = top;
pos = (477,710);
}
);
shapes = (
{
closed = 1;
nodes = (
(119,0,l),
(249,612,l),
(464,0,l),
(592,0,l),
(742,710,l),
(656,710,l),
(524,86,l),
(305,710,l),
(183,710,l),
(33,0,l)
);
}
);
};
layerId = "6C190511-B94A-4F5A-B519-D6E9DB0E7B93";
shapes = (
{
closed = 1;
nodes = (
(123,0,l),
(253,612,l),
(460,0,l),
(588,0,l),
(738,710,l),
(652,710,l),
(520,86,l),
(309,710,l),
(187,710,l),
(37,0,l)
);
}
);
width = 736;
}
);
metricLeft = H;
metricRight = H;
unicode = 78;
}
{
color = 4;
glyphname = O;
kernLeft = O;
kernRight = O;
layers = (
{
anchors = (
{
name = bottom;
pos = (292,0);
},
{
name = center;
pos = (367,355);
},
{
name = top;
pos = (442,710);
}
);
background = {
shapes = (
{
closed = 1;
nodes = (
(478,-16,o),
(626,127,o),
(674,354,cs),
(722,583,o),
(636,726,o),
(446,726,cs),
(256,726,o),
(108,583,o),
(60,354,cs),
(12,127,o),
(98,-16,o),
(288,-16,cs)
);
},
{
closed = 1;
nodes = (
(126,16,o),
(50,146,o),
(94,354,cs),
(138,563,o),
(270,694,o),
(439,694,cs),
(608,694,o),
(684,563,o),
(640,354,cs),
(596,146,o),
(464,16,o),
(295,16,cs)
);
}
);
};
layerId = "EE2FFE84-06F1-4AFB-BBEC-60D09A436D14";
shapes = (
{
closed = 1;
nodes = (
(516,-16,o),
(674,199,o),
(674,472,cs),
(674,633,o),
(599,726,o),
(446,726,cs),
(219,726,o),
(60,516,o),
(60,238,cs),
(60,70,o),
(130,-16,o),
(288,-16,cs)
);
},
{
closed = 1;
nodes = (
(146,16,o),
(94,85,o),
(94,246,cs),
(94,497,o),
(240,694,o),
(441,694,cs),
(581,694,o),
(640,616,o),
(640,463,cs),
(640,213,o),
(494,16,o),
(293,16,cs)
);
}
);
width = 695;
},
{
anchors = (
{
name = bottom;
pos = (334,0);
},
{
name = center;
pos = (409,355);
},
{
name = top;
pos = (484,710);
}
);
background = {
shapes = (
{
closed = 1;
nodes = (
(555,-16,o),
(720,126,o),
(769,354,cs),
(817,582,o),
(713,726,o),
(488,726,cs),
(263,726,o),
(97,582,o),
(49,354,cs),
(0,126,o),
(105,-16,o),
(330,-16,cs)
);
},
{
closed = 1;
nodes = (
(264,141,o),
(221,218,o),
(250,354,cs),
(279,490,o),
(354,569,o),
(454,569,cs),
(554,569,o),
(597,490,o),
(568,354,cs),
(539,218,o),
(464,141,o),
(364,141,cs)
);
}
);
};
layerId = "3507EE3D-0D92-4546-A145-3A991F0A2B71";
shapes = (
{
closed = 1;
nodes = (
(618,-16,o),
(768,193,o),
(768,457,cs),
(768,637,o),
(670,726,o),
(488,726,cs),
(200,726,o),
(50,514,o),
(50,250,cs),
(50,70,o),
(148,-16,o),
(330,-16,cs)
);
},
{
closed = 1;
nodes = (
(286,141,o),
(251,190,o),
(251,278,cs),
(251,446,o),
(338,569,o),
(454,569,cs),
(532,569,o),
(567,519,o),
(567,431,cs),
(567,263,o),
(480,141,o),
(364,141,cs)
);
}
);
width = 783;
},
{
anchors = (
{
name = bottom;
pos = (305,0);
},
{
name = center;
pos = (381,355);
},
{
name = top;
pos = (455,710);
}
);
background = {
shapes = (
{
closed = 1;
nodes = (
(504,-16,o),
(656,124,o),
(705,354,cs),
(754,584,o),
(662,726,o),
(459,726,cs),
(257,726,o),
(105,584,o),
(56,354,cs),
(7,124,o),
(99,-16,o),
(301,-16,cs)
);
},
{
closed = 1;
nodes = (
(173,68,o),
(108,174,o),
(146,354,cs),
(184,534,o),
(295,642,o),
(441,642,cs),
(588,642,o),
(653,534,o),
(615,354,cs),
(577,174,o),
(466,68,o),
(319,68,cs)
);
}
);
};
layerId = "6C190511-B94A-4F5A-B519-D6E9DB0E7B93";
shapes = (
{
closed = 1;
nodes = (
(543,-16,o),
(712,198,o),
(712,468,cs),
(712,632,o),
(618,726,o),
(459,726,cs),
(217,726,o),
(54,510,o),
(54,240,cs),
(54,75,o),
(144,-16,o),
(301,-16,cs)
);
},
{
closed = 1;
nodes = (
(199,68,o),
(146,120,o),
(146,260,cs),
(146,470,o),
(271,642,o),
(441,642,cs),
(559,642,o),
(620,588,o),
(620,448,cs),
(620,238,o),
(487,68,o),
(317,68,cs)
);
}
);
width = 728;
}
);
unicode = 79;
}
{
color = 4;
glyphname = P;
kernLeft = b;
kernRight = P;
layers = (
{
anchors = (
{
name = bottom;
pos = (250,0);
},
{
name = top;
pos = (400,710);
}
);
background = {
anchors = (
{
name = bottom;
pos = (250,0);
},
{
name = top;
pos = (400,710);
}
);
shapes = (
{
closed = 1;
nodes = (
(69,0,l),
(133,305,l),
(338,305,ls),
(488,305,o),
(595,382,o),
(621,505,cs),
(648,631,o),
(574,710,o),
(424,710,cs),
(187,710,l),
(37,0,l)
);
},
{
closed = 1;
nodes = (
(213,680,l),
(418,680,ls),
(550,680,o),
(611,617,o),
(587,505,cs),
(564,396,o),
(477,335,o),
(345,335,cs),
(140,335,l)
);
}
);
};
layerId = "EE2FFE84-06F1-4AFB-BBEC-60D09A436D14";
shapes = (
{
closed = 1;
nodes = (
(73,0,l),
(137,305,l),
(334,305,ls),
(516,305,o),
(618,404,o),
(618,554,cs),
(618,652,o),
(548,710,o),
(420,710,cs),
(191,710,l),
(41,0,l)
);
},
{
closed = 1;
nodes = (
(217,680,l),
(414,680,ls),
(527,680,o),
(584,632,o),
(584,550,cs),
(584,420,o),
(498,335,o),
(341,335,cs),
(144,335,l)
);
}
);
width = 608;
},
{
anchors = (
{
name = bottom;
pos = (279,0);
},
{
name = top;
pos = (429,710);
}
);
background = {
anchors = (
{
name = bottom;
pos = (279,0);
},
{
name = top;
pos = (429,710);
}
);
shapes = (
{
closed = 1;
nodes = (
(194,0,l),
(241,225,l),
(349,225,ls),
(527,225,o),
(656,318,o),
(688,467,cs),
(720,617,o),
(630,710,o),
(452,710,cs),
(148,710,l),
(-2,0,l)
);
},
{
closed = 1;
nodes = (
(311,553,l),
(404,553,ls),
(466,553,o),
(500,523,o),
(488,467,cs),
(476,411,o),
(429,382,o),
(368,382,cs),
(275,382,l)
);
}
);
};
layerId = "3507EE3D-0D92-4546-A145-3A991F0A2B71";
shapes = (
{
closed = 1;
nodes = (
(202,0,l),
(249,225,l),
(349,225,ls),
(550,225,o),
(690,328,o),
(690,508,cs),
(690,644,o),
(600,710,o),
(448,710,cs),
(156,710,l),
(6,0,l)
);
},
{
closed = 1;
nodes = (
(319,553,l),
(404,553,ls),
(459,553,o),
(489,530,o),
(489,484,cs),
(489,414,o),
(441,382,o),
(368,382,cs),
(283,382,l)
);
}
);
width = 680;
},
{
anchors = (
{
name = bottom;
pos = (264,0);
},
{
name = top;
pos = (414,710);
}
);
background = {
anchors = (
{
name = bottom;
pos = (264,0);
},
{
name = top;
pos = (414,710);
}
);
shapes = (
{
closed = 1;
nodes = (
(117,0,l),
(175,276,l),
(344,276,ls),
(502,276,o),
(613,358,o),
(642,495,cs),
(670,630,o),
(594,710,o),
(436,710,cs),
(181,710,l),
(31,0,l)
);
},
{
closed = 1;
nodes = (
(250,626,l),
(419,626,ls),
(526,626,o),
(570,582,o),
(552,495,cs),
(533,406,o),
(469,360,o),
(362,360,cs),
(193,360,l)
);
}
);
};
layerId = "6C190511-B94A-4F5A-B519-D6E9DB0E7B93";
shapes = (
{
closed = 1;
nodes = (
(123,0,l),
(181,276,l),
(344,276,ls),
(528,276,o),
(645,376,o),
(645,536,cs),
(645,646,o),
(574,710,o),
(436,710,cs),
(187,710,l),
(37,0,l)
);
},
{
closed = 1;
nodes = (
(256,626,l),
(419,626,ls),
(519,626,o),
(555,596,o),
(555,528,cs),
(555,416,o),
(480,360,o),
(362,360,cs),
(199,360,l)
);
}
);
width = 646;
}
);
metricLeft = H;
metricRight = F;
unicode = 80;
}
{
color = 4;
glyphname = R;
kernLeft = b;
kernRight = R;
layers = (
{
associatedMasterId = "EE2FFE84-06F1-4AFB-BBEC-60D09A436D14";
layerId = "9EE13298-BF92-4B00-8E5D-8782EE099A36";
name = "26 de feb. de 23 23:27";
shapes = (
{
closed = 1;
nodes = (
(517,631,o),
(424,710,o),
(277,710,cs),
(70,710,l),
(70,0,l),
(102,0,l),
(102,311,l),
(277,311,ls),
(518,311,o),
(442,146,o),
(503,0,c),
(536,0,l),
(484,144,o),
(525,285,o),
(379,327,c),
(463,350,o),
(517,415,o),
(517,505,cs)
);
},
{
closed = 1;
nodes = (
(102,680,l),
(277,680,ls),
(409,680,o),
(483,617,o),
(483,505,cs),
(483,400,o),
(409,341,o),
(277,341,cs),
(102,341,l)
);
}
);
width = 606;
},
{
anchors = (
{
name = bottom;
pos = (306,0);
},
{
name = top;
pos = (312,710);
}
);
associatedMasterId = "EE2FFE84-06F1-4AFB-BBEC-60D09A436D14";
background = {
shapes = (
{
closed = 1;
nodes = (
(96,0,l),
(128,0,l),
(128,305,l),
(333,305,l),
(480,305,o),
(573,382,o),
(573,505,cs),
(573,631,o),
(480,710,o),
(333,710,c),
(96,710,l)
);
},
{
closed = 1;
nodes = (
(128,680,l),
(333,680,l),
(465,680,o),
(539,617,o),
(539,505,cs),
(539,396,o),
(465,335,o),
(333,335,cs),
(128,335,l)
);
}
);
};
layerId = "A962C063-6C0C-461E-9F2C-0D2D3C0B8A7D";
name = "16 de may. de 23 13:25";
shapes = (
{
closed = 1;
nodes = (
(96,0,l),
(128,0,l),
(128,311,l),
(333,311,ls),
(594,311,o),
(494,146,o),
(555,0,c),
(588,0,l),
(536,144,o),
(601,285,o),
(435,327,c),
(519,350,o),
(573,415,o),
(573,505,cs),
(573,636,o),
(487,710,o),
(333,710,cs),
(96,710,l)
);
},
{
closed = 1;
nodes = (
(128,680,l),
(333,680,ls),
(471,680,o),
(539,622,o),
(539,505,cs),
(539,400,o),
(465,341,o),
(333,341,cs),
(128,341,l)
);
}
);
width = 643;
},
{
anchors = (
{
name = bottom;
pos = (255,0);
},
{
name = top;
pos = (411,710);
}
);
background = {
anchors = (
{
name = bottom;
pos = (255,0);
},
{
name = top;
pos = (411,710);
}
);
shapes = (
{
closed = 1;
nodes = (
(65,0,l),
(131,311,l),
(367,311,ls),
(475,311,o),
(516,274,o),
(505,194,cs),
(479,0,l),
(512,0,l),
(537,195,ls),
(549,285,o),
(505,333,o),
(399,333,c),
(402,323,l),
(511,335,o),
(597,404,o),
(619,507,cs),
(647,636,o),
(578,710,o),
(424,710,cs),
(183,710,l),
(33,0,l)
);
},
{
closed = 1;
nodes = (
(209,680,l),
(416,680,ls),
(554,680,o),
(610,622,o),
(585,507,cs),
(563,400,o),
(476,341,o),
(357,341,cs),
(137,341,l)
);
}
);
};
layerId = "EE2FFE84-06F1-4AFB-BBEC-60D09A436D14";
name = Thin;
shapes = (
{
closed = 1;
nodes = (
(73,0,l),
(139,311,l),
(367,311,ls),
(470,311,o),
(506,277,o),
(506,226,cs),
(506,190,o),
(499,143,o),
(493,102,cs),
(478,0,l),
(511,0,l),
(524,97,ls),
(530,140,o),
(538,197,o),
(538,230,cs),
(538,289,o),
(493,332,o),
(398,332,c),
(402,322,l),
(531,336,o),
(621,422,o),
(621,554,cs),
(621,656,o),
(556,710,o),
(424,710,cs),
(191,710,l),
(41,0,l)
);
},
{
closed = 1;
nodes = (
(217,680,l),
(416,680,ls),
(544,680,o),
(587,639,o),
(587,552,cs),
(587,432,o),
(509,341,o),
(357,341,cs),
(145,341,l)
);
}
);
width = 622;
},
{
anchors = (
{
name = bottom;
pos = (304,0);
},
{
name = top;
pos = (437,710);
}
);
background = {
anchors = (
{
name = bottom;
pos = (304,0);
},
{
name = top;
pos = (437,710);
}
);
shapes = (
{
closed = 1;
nodes = (
(195,0,l),
(246,242,l),
(361,242,ls),
(425,242,o),
(441,218,o),
(433,166,cs),
(408,0,l),
(608,0,l),
(634,200,ls),
(645,281,o),
(607,324,o),
(507,324,c),
(507,314,l),
(613,332,o),
(687,400,o),
(708,500,cs),
(735,627,o),
(648,710,o),
(488,710,cs),
(149,710,l),
(-1,0,l)
);
},
{
closed = 1;
nodes = (
(312,553,l),
(419,553,ls),
(484,553,o),
(514,528,o),
(503,477,cs),
(493,428,o),
(451,399,o),
(386,399,cs),
(279,399,l)
);
}
);
};
layerId = "3507EE3D-0D92-4546-A145-3A991F0A2B71";
name = "Ultra Black";
shapes = (
{
closed = 1;
nodes = (
(202,0,l),
(253,242,l),
(371,242,ls),
(417,242,o),
(435,222,o),
(435,198,cs),
(435,177,o),
(428,136,o),
(423,100,cs),
(408,0,l),
(608,0,l),
(621,97,ls),
(628,149,o),
(635,196,o),
(635,232,cs),
(635,293,o),
(596,324,o),
(507,328,c),
(507,318,l),
(630,335,o),
(707,408,o),
(707,530,cs),
(707,646,o),
(629,710,o),
(488,710,cs),
(156,710,l),
(6,0,l)
);
},
{
closed = 1;
nodes = (
(319,553,l),
(419,553,ls),
(475,553,o),
(505,535,o),
(505,490,cs),
(505,426,o),
(462,399,o),
(386,399,cs),
(286,399,l)
);
}
);
width = 708;
},
{
anchors = (
{
name = bottom;
pos = (286,0);
},
{
name = top;
pos = (423,710);
}
);
background = {
anchors = (
{
name = bottom;
pos = (286,0);
},
{
name = top;
pos = (423,710);
}
);
shapes = (
{
closed = 1;
nodes = (
(114,0,l),
(174,286,l),
(380,286,ls),
(462,286,o),
(491,259,o),
(483,200,cs),
(459,0,l),
(546,0,l),
(570,209,ls),
(581,297,o),
(537,335,o),
(451,335,c),
(455,326,l),
(531,330,o),
(623,399,o),
(644,495,cs),
(672,627,o),
(596,710,o),
(447,710,cs),
(178,710,l),
(28,0,l)
);
},
{
closed = 1;
nodes = (
(247,626,l),
(430,626,ls),
(528,626,o),
(572,579,o),
(554,497,cs),
(537,415,o),
(472,370,o),
(386,370,cs),
(192,370,l)
);
}
);
};
layerId = "6C190511-B94A-4F5A-B519-D6E9DB0E7B93";
name = Thin;
shapes = (
{
closed = 1;
nodes = (
(123,0,l),
(183,286,l),
(380,286,ls),
(453,286,o),
(484,264,o),
(484,228,cs),
(484,197,o),
(479,163,o),
(476,138,cs),
(459,0,l),
(546,0,l),
(563,145,ls),
(566,168,o),
(572,210,o),
(572,238,cs),
(572,301,o),
(527,336,o),
(450,336,c),
(454,324,l),
(544,330,o),
(648,396,o),
(648,536,cs),
(648,645,o),
(585,710,o),
(447,710,cs),
(187,710,l),
(37,0,l)
);
},
{
closed = 1;
nodes = (
(256,626,l),
(430,626,ls),
(524,626,o),
(558,592,o),
(558,532,cs),
(558,434,o),
(497,370,o),
(381,370,cs),
(201,370,l)
);
}
);
width = 664;
}
);
metricLeft = H;
metricRight = "=P+10";
unicode = 82;
}
{
color = 4;
glyphname = S;
kernLeft = O;
kernRight = O;
layers = (
{
anchors = (
{
name = bottom;
pos = (257,0);
},
{
name = top;
pos = (387,710);
}
);
background = {
anchors = (
{
name = bottom;
pos = (243,0);
},
{
name = top;
pos = (387,710);
}
);
shapes = (
{
closed = 1;
nodes = (
(384,-16,o),
(508,58,o),
(533,178,cs),
(554,274,o),
(516,335,o),
(322,382,cs),
(173,418,o),
(137,451,o),
(155,536,cs),
(175,628,o),
(260,694,o),
(384,694,cs),
(518,694,o),
(572,607,o),
(550,505,c),
(585,508,l),
(607,616,o),
(549,726,o),
(393,726,cs),
(245,726,o),
(144,642,o),
(122,538,cs),
(99,428,o),
(157,388,o),
(305,352,cs),
(486,308,o),
(516,255,o),
(500,180,cs),
(478,76,o),
(376,16,o),
(260,16,cs),
(122,16,o),
(49,112,o),
(73,222,c),
(39,219,l),
(11,89,o),
(101,-16,o),
(251,-16,cs)
);
}
);
};
layerId = "EE2FFE84-06F1-4AFB-BBEC-60D09A436D14";
shapes = (
{
closed = 1;
nodes = (
(429,-16,o),
(532,70,o),
(532,206,cs),
(532,292,o),
(494,338,o),
(320,382,cs),
(190,415,o),
(162,438,o),
(162,504,cs),
(162,616,o),
(236,694,o),
(384,694,cs),
(502,694,o),
(549,638,o),
(549,554,cs),
(549,536,o),
(547,520,o),
(544,505,c),
(579,508,l),
(582,523,o),
(583,539,o),
(583,556,cs),
(583,664,o),
(510,726,o),
(390,726,cs),
(212,726,o),
(129,627,o),
(129,501,cs),
(129,413,o),
(180,388,o),
(308,352,cs),
(474,306,o),
(499,277,o),
(499,204,cs),
(499,84,o),
(406,16,o),
(260,16,cs),
(134,16,o),
(78,80,o),
(78,168,cs),
(78,188,o),
(81,212,o),
(84,222,c),
(50,219,l),
(46,205,o),
(44,183,o),
(44,164,cs),
(44,56,o),
(123,-16,o),
(256,-16,cs)
);
}
);
width = 610;
},
{
anchors = (
{
name = bottom;
pos = (300,0);
},
{
name = top;
pos = (429,710);
}
);
background = {
anchors = (
{
name = bottom;
pos = (300,0);
},
{
name = top;
pos = (437,710);
}
);
shapes = (
{
closed = 1;
nodes = (
(483,-16,o),
(609,69,o),
(639,208,cs),
(663,320,o),
(610,393,o),
(408,430,cs),
(319,446,o),
(294,466,o),
(303,510,cs),
(311,547,o),
(348,572,o),
(404,572,cs),
(469,572,o),
(501,533,o),
(492,468,c),
(687,476,l),
(703,623,o),
(629,726,o),
(439,726,cs),
(259,726,o),
(134,636,o),
(106,504,cs),
(78,373,o),
(145,322,o),
(330,282,cs),
(434,260,o),
(449,238,o),
(441,200,cs),
(432,158,o),
(394,138,o),
(334,138,cs),
(258,138,o),
(228,177,o),
(233,247,c),
(36,238,l),
(13,82,o),
(103,-16,o),
(299,-16,cs)
);
}
);
};
layerId = "3507EE3D-0D92-4546-A145-3A991F0A2B71";
shapes = (
{
closed = 1;
nodes = (
(499,-16,o),
(632,56,o),
(632,228,cs),
(632,324,o),
(580,398,o),
(406,430,cs),
(326,445,o),
(306,461,o),
(306,498,cs),
(306,543,o),
(339,572,o),
(402,572,cs),
(458,572,o),
(484,552,o),
(484,508,cs),
(484,493,o),
(483,475,o),
(481,468,c),
(676,476,l),
(678,489,o),
(680,507,o),
(680,528,cs),
(680,646,o),
(607,726,o),
(428,726,cs),
(206,726,o),
(108,624,o),
(108,480,cs),
(108,368,o),
(172,320,o),
(330,286,cs),
(419,267,o),
(434,244,o),
(434,210,cs),
(434,157,o),
(394,138,o),
(328,138,cs),
(267,138,o),
(235,159,o),
(235,204,cs),
(235,222,o),
(238,239,o),
(240,247,c),
(43,238,l),
(39,224,o),
(37,203,o),
(37,184,cs),
(37,59,o),
(118,-16,o),
(299,-16,cs)
);
}
);
width = 698;
},
{
anchors = (
{
name = bottom;
pos = (273,0);
},
{
name = top;
pos = (390,710);
}
);
background = {
anchors = (
{
name = bottom;
pos = (261,0);
},
{
name = top;
pos = (390,710);
}
);
shapes = (
{
closed = 1;
nodes = (
(411,-16,o),
(532,62,o),
(558,186,cs),
(580,288,o),
(533,356,o),
(365,400,cs),
(222,437,o),
(192,461,o),
(206,528,cs),
(220,596,o),
(286,642,o),
(374,642,cs),
(480,642,o),
(525,580,o),
(519,494,c),
(610,500,l),
(621,630,o),
(550,726,o),
(394,726,cs),
(248,726,o),
(140,643,o),
(115,524,cs),
(92,418,o),
(140,369,o),
(295,328,cs),
(456,286,o),
(481,246,o),
(467,180,cs),
(451,107,o),
(385,68,o),
(286,68,cs),
(172,68,o),
(120,127,o),
(128,233,c),
(37,227,l),
(18,83,o),
(102,-16,o),
(266,-16,cs)
);
}
);
};
layerId = "6C190511-B94A-4F5A-B519-D6E9DB0E7B93";
shapes = (
{
closed = 1;
nodes = (
(427,-16,o),
(557,55,o),
(557,218,cs),
(557,307,o),
(512,362,o),
(364,400,cs),
(234,433,o),
(209,450,o),
(209,508,cs),
(209,582,o),
(256,642,o),
(380,642,cs),
(480,642,o),
(515,592,o),
(515,532,cs),
(515,517,o),
(514,503,o),
(511,494,c),
(601,500,l),
(604,509,o),
(605,526,o),
(605,540,cs),
(605,653,o),
(535,726,o),
(391,726,cs),
(214,726,o),
(119,632,o),
(119,500,cs),
(119,405,o),
(168,360,o),
(298,328,cs),
(444,292,o),
(467,262,o),
(467,208,cs),
(467,107,o),
(385,68,o),
(282,68,cs),
(174,68,o),
(131,109,o),
(131,182,cs),
(131,202,o),
(134,223,o),
(137,233,c),
(47,227,l),
(44,214,o),
(41,191,o),
(41,172,cs),
(41,56,o),
(124,-16,o),
(269,-16,cs)
);
}
);
width = 628;
}
);
metricLeft = "=O+10";
metricRight = "=O+10";
unicode = 83;
}
{
color = 4;
glyphname = T;
kernLeft = T;
kernRight = T;
layers = (
{
anchors = (
{
name = bottom;
pos = (211,0);
},
{
name = center;
pos = (285,348);
},
{
name = top;
pos = (361,710);
}
);
background = {
anchors = (
{
name = bottom;
pos = (211,0);
},
{
name = center;
pos = (285,348);
},
{
name = top;
pos = (361,710);
}
);
shapes = (
{
closed = 1;
nodes = (
(227,0,l),
(371,680,l),
(613,680,l),
(619,710,l),
(103,710,l),
(97,680,l),
(339,680,l),
(195,0,l)
);
}
);
};
layerId = "EE2FFE84-06F1-4AFB-BBEC-60D09A436D14";
shapes = (
{
closed = 1;
nodes = (
(227,0,l),
(371,680,l),
(607,680,l),
(613,710,l),
(109,710,l),
(103,680,l),
(339,680,l),
(195,0,l)
);
}
);
width = 533;
},
{
anchors = (
{
name = bottom;
pos = (252,0);
},
{
name = center;
pos = (319,312);
},
{
name = top;
pos = (402,710);
}
);
background = {
anchors = (
{
name = bottom;
pos = (252,0);
},
{
name = center;
pos = (319,312);
},
{
name = top;
pos = (402,710);
}
);
shapes = (
{
closed = 1;
nodes = (
(351,0,l),
(468,553,l),
(675,553,l),
(708,710,l),
(97,710,l),
(64,553,l),
(271,553,l),
(154,0,l)
);
}
);
};
layerId = "3507EE3D-0D92-4546-A145-3A991F0A2B71";
shapes = (
{
closed = 1;
nodes = (
(351,0,l),
(468,553,l),
(668,553,l),
(701,710,l),
(104,710,l),
(71,553,l),
(271,553,l),
(154,0,l)
);
}
);
width = 618;
},
{
anchors = (
{
name = bottom;
pos = (216,0);
},
{
name = center;
pos = (290,348);
},
{
name = top;
pos = (366,710);
}
);
background = {
anchors = (
{
name = bottom;
pos = (216,0);
},
{
name = center;
pos = (290,348);
},
{
name = top;
pos = (366,710);
}
);
shapes = (
{
closed = 1;
nodes = (
(259,0,l),
(392,626,l),
(613,626,l),
(630,710,l),
(102,710,l),
(85,626,l),
(306,626,l),
(173,0,l)
);
}
);
};
layerId = "6C190511-B94A-4F5A-B519-D6E9DB0E7B93";
shapes = (
{
closed = 1;
nodes = (
(259,0,l),
(392,626,l),
(608,626,l),
(625,710,l),
(107,710,l),
(90,626,l),
(306,626,l),
(173,0,l)
);
}
);
width = 543;
}
);
unicode = 84;
}
{
color = 4;
glyphname = U;
kernLeft = U;
kernRight = U;
layers = (
{
anchors = (
{
name = bottom;
pos = (275,0);
},
{
name = ogonek;
pos = (384,1);
},
{
name = top;
pos = (426,710);
}
);
background = {
anchors = (
{
name = bottom;
pos = (275,0);
},
{
name = ogonek;
pos = (380,1);
},
{
name = top;
pos = (426,710);
}
);
shapes = (
{
closed = 1;
nodes = (
(432,-16,o),
(542,79,o),
(578,248,cs),
(676,711,l),
(644,711,l),
(546,248,ls),
(514,99,o),
(419,16,o),
(279,16,cs),
(139,16,o),
(78,99,o),
(110,248,cs),
(208,711,l),
(176,711,l),
(78,248,ls),
(42,79,o),
(112,-16,o),
(272,-16,cs)
);
}
);
};
layerId = "EE2FFE84-06F1-4AFB-BBEC-60D09A436D14";
shapes = (
{
closed = 1;
nodes = (
(437,-16,o),
(542,76,o),
(578,248,cs),
(676,711,l),
(644,711,l),
(546,248,ls),
(514,95,o),
(418,16,o),
(278,16,cs),
(160,16,o),
(102,70,o),
(102,170,cs),
(102,203,o),
(106,228,o),
(116,276,cs),
(208,711,l),
(176,711,l),
(86,284,ls),
(78,244,o),
(70,206,o),
(70,166,cs),
(70,49,o),
(140,-16,o),
(272,-16,cs)
);
}
);
width = 663;
},
{
anchors = (
{
name = bottom;
pos = (305,0);
},
{
name = ogonek;
pos = (439,0);
},
{
name = top;
pos = (456,710);
}
);
background = {
anchors = (
{
name = bottom;
pos = (305,0);
},
{
name = ogonek;
pos = (422,0);
},
{
name = top;
pos = (456,710);
}
);
shapes = (
{
closed = 1;
nodes = (
(492,-16,o),
(635,92,o),
(671,262,cs),
(766,711,l),
(570,711,l),
(475,262,ls),
(458,184,o),
(409,141,o),
(335,141,cs),
(262,141,o),
(231,184,o),
(248,262,cs),
(343,711,l),
(147,711,l),
(52,262,ls),
(16,92,o),
(113,-16,o),
(302,-16,cs)
);
}
);
};
layerId = "3507EE3D-0D92-4546-A145-3A991F0A2B71";
shapes = (
{
closed = 1;
nodes = (
(507,-16,o),
(630,70,o),
(670,258,cs),
(766,711,l),
(570,711,l),
(478,274,ls),
(456,170,o),
(400,141,o),
(330,141,cs),
(272,141,o),
(243,166,o),
(243,216,cs),
(243,242,o),
(252,286,o),
(260,324,cs),
(343,711,l),
(147,711,l),
(68,340,ls),
(55,280,o),
(45,224,o),
(45,192,cs),
(45,65,o),
(137,-16,o),
(302,-16,cs)
);
}
);
width = 726;
},
{
anchors = (
{
name = bottom;
pos = (290,0);
},
{
name = ogonek;
pos = (406,2);
},
{
name = top;
pos = (441,710);
}
);
background = {
anchors = (
{
name = bottom;
pos = (290,0);
},
{
name = ogonek;
pos = (403,3);
},
{
name = top;
pos = (441,710);
}
);
shapes = (
{
closed = 1;
nodes = (
(451,-16,o),
(575,86,o),
(610,248,cs),
(708,711,l),
(622,711,l),
(524,248,ls),
(499,133,o),
(420,68,o),
(305,68,cs),
(189,68,o),
(136,133,o),
(161,248,cs),
(259,711,l),
(173,711,l),
(75,248,ls),
(40,86,o),
(122,-16,o),
(287,-16,cs)
);
}
);
};
layerId = "6C190511-B94A-4F5A-B519-D6E9DB0E7B93";
shapes = (
{
closed = 1;
nodes = (
(457,-16,o),
(574,76,o),
(610,248,cs),
(708,711,l),
(622,711,l),
(525,256,ls),
(496,122,o),
(414,68,o),
(300,68,cs),
(202,68,o),
(155,114,o),
(155,188,cs),
(155,210,o),
(159,242,o),
(168,284,cs),
(259,711,l),
(173,711,l),
(83,294,ls),
(78,269,o),
(67,208,o),
(67,176,cs),
(67,55,o),
(147,-16,o),
(287,-16,cs)
);
}
);
width = 691;
}
);
metricLeft = "=H-15";
metricRight = "=H-15";
unicode = 85;
}
{
color = 4;
glyphname = V;
kernLeft = V;
kernRight = V;
layers = (
{
anchors = (
{
name = bottom;
pos = (266,0);
},
{
name = top;
pos = (416,710);
}
);
background = {
shapes = (
{
closed = 1;
nodes = (
(359,0,l),
(638,710,l),
(603,710,l),
(341,34,l),
(79,710,l),
(44,710,l),
(323,0,l)
);
}
);
};
layerId = "EE2FFE84-06F1-4AFB-BBEC-60D09A436D14";
shapes = (
{
closed = 1;
nodes = (
(284,0,l),
(713,710,l),
(677,710,l),
(272,34,l),
(153,710,l),
(119,710,l),
(248,0,l)
);
}
);
width = 642;
},
{
anchors = (
{
name = bottom;
pos = (330,0);
},
{
name = top;
pos = (480,710);
}
);
background = {
shapes = (
{
closed = 1;
nodes = (
(524,0,l),
(780,710,l),
(581,710,l),
(414,222,l),
(245,710,l),
(46,710,l),
(303,0,l)
);
}
);
};
layerId = "3507EE3D-0D92-4546-A145-3A991F0A2B71";
shapes = (
{
closed = 1;
nodes = (
(440,0,l),
(848,710,l),
(640,710,l),
(369,222,l),
(304,710,l),
(112,710,l),
(218,0,l)
);
}
);
width = 772;
},
{
anchors = (
{
name = bottom;
pos = (279,0);
},
{
name = top;
pos = (429,710);
}
);
background = {
shapes = (
{
closed = 1;
nodes = (
(411,0,l),
(668,710,l),
(573,710,l),
(355,96,l),
(135,710,l),
(41,710,l),
(298,0,l)
);
}
);
};
layerId = "6C190511-B94A-4F5A-B519-D6E9DB0E7B93";
shapes = (
{
closed = 1;
nodes = (
(335,0,l),
(742,710,l),
(646,710,l),
(297,94,l),
(207,710,l),
(115,710,l),
(222,0,l)
);
}
);
width = 667;
}
);
unicode = 86;
}
{
color = 4;
glyphname = W;
kernLeft = V;
kernRight = V;
layers = (
{
anchors = (
{
name = bottom;
pos = (398,0);
},
{
name = top;
pos = (548,710);
}
);
background = {
anchors = (
{
name = bottom;
pos = (398,0);
},
{
name = top;
pos = (548,710);
}
);
shapes = (
{
closed = 1;
nodes = (
(230,0,l),
(541,676,l),
(566,0,l),
(614,0,l),
(963,710,l),
(930,710,l),
(598,33,l),
(570,710,l),
(526,710,l),
(212,33,l),
(166,710,l),
(133,710,l),
(182,0,l)
);
}
);
};
layerId = "EE2FFE84-06F1-4AFB-BBEC-60D09A436D14";
shapes = (
{
closed = 1;
nodes = (
(234,0,l),
(541,676,l),
(566,0,l),
(614,0,l),
(959,710,l),
(924,710,l),
(596,33,l),
(570,710,l),
(524,710,l),
(214,33,l),
(170,710,l),
(137,710,l),
(186,0,l)
);
}
);
width = 906;
},
{
anchors = (
{
name = bottom;
pos = (469,0);
},
{
name = top;
pos = (619,710);
}
);
background = {
anchors = (
{
name = bottom;
pos = (469,0);
},
{
name = top;
pos = (619,710);
}
);
shapes = (
{
closed = 1;
nodes = (
(369,0,l),
(551,390,l),
(569,0,l),
(769,0,l),
(1113,710,l),
(911,710,l),
(713,272,l),
(697,710,l),
(541,710,l),
(339,272,l),
(326,710,l),
(124,710,l),
(169,0,l)
);
}
);
};
layerId = "3507EE3D-0D92-4546-A145-3A991F0A2B71";
shapes = (
{
closed = 1;
nodes = (
(375,0,l),
(550,390,l),
(569,0,l),
(769,0,l),
(1108,710,l),
(902,710,l),
(711,272,l),
(697,710,l),
(537,710,l),
(344,272,l),
(332,710,l),
(130,710,l),
(175,0,l)
);
}
);
width = 1050;
},
{
anchors = (
{
name = bottom;
pos = (409,0);
},
{
name = top;
pos = (559,710);
}
);
background = {
anchors = (
{
name = bottom;
pos = (409,0);
},
{
name = top;
pos = (559,710);
}
);
shapes = (
{
closed = 1;
nodes = (
(269,0,l),
(525,550,l),
(549,0,l),
(657,0,l),
(994,710,l),
(899,710,l),
(629,118,l),
(608,710,l),
(510,710,l),
(240,118,l),
(219,710,l),
(125,710,l),
(162,0,l)
);
}
);
};
layerId = "6C190511-B94A-4F5A-B519-D6E9DB0E7B93";
shapes = (
{
closed = 1;
nodes = (
(277,0,l),
(525,550,l),
(549,0,l),
(657,0,l),
(990,710,l),
(891,710,l),
(625,118,l),
(608,710,l),
(506,710,l),
(244,118,l),
(227,710,l),
(133,710,l),
(170,0,l)
);
}
);
width = 933;
}
);
metricLeft = "=V+18";
metricRight = "=V+18";
unicode = 87;
}
{
color = 4;
glyphname = X;
kernLeft = X;
kernRight = X;
layers = (
{
anchors = (
{
name = bottom;
pos = (243,0);
},
{
name = top;
pos = (393,710);
}
);
background = {
anchors = (
{
name = bottom;
pos = (243,0);
},
{
name = top;
pos = (393,710);
}
);
shapes = (
{
closed = 1;
nodes = (
(3,0,l),
(314,332,l),
(483,0,l),
(522,0,l),
(339,356,l),
(665,710,l),
(626,710,l),
(323,382,l),
(160,710,l),
(121,710,l),
(298,358,l),
(-36,0,l)
);
}
);
};
guides = (
{
angle = -90;
pos = (597,0);
}
);
layerId = "EE2FFE84-06F1-4AFB-BBEC-60D09A436D14";
shapes = (
{
closed = 1;
nodes = (
(522,0,l),
(335,362,l),
(325,375,l),
(158,710,l),
(121,710,l),
(301,352,l),
(312,339,l),
(485,0,l)
);
},
{
closed = 1;
nodes = (
(6,0,l),
(321,339,l),
(305,365,l),
(-36,0,l)
);
},
{
closed = 1;
nodes = (
(665,710,l),
(623,710,l),
(315,375,l),
(333,349,l)
);
}
);
width = 598;
},
{
associatedMasterId = "EE2FFE84-06F1-4AFB-BBEC-60D09A436D14";
background = {
shapes = (
{
closed = 1;
nodes = (
(280,368,l),
(264,359,l),
(30,0,l),
(130,0,l),
(350,337,l),
(367,348,l),
(603,710,l),
(503,710,l)
);
},
{
closed = 1;
nodes = (
(32,710,l),
(277,335,l),
(292,324,l),
(503,0,l),
(605,0,l),
(351,389,l),
(337,399,l),
(134,710,l)
);
}
);
};
layerId = "C47B0997-5802-47AD-AE45-D8AD767F0936";
name = "5 de feb. de 23 12:24";
shapes = (
{
closed = 1;
nodes = (
(322,368,l),
(284,359,l),
(50,0,l),
(88,0,l),
(308,337,l),
(347,348,l),
(583,710,l),
(545,710,l)
);
},
{
closed = 1;
nodes = (
(52,710,l),
(297,335,l),
(336,324,l),
(547,0,l),
(585,0,l),
(331,389,l),
(293,399,l),
(90,710,l)
);
}
);
width = 600;
},
{
anchors = (
{
name = bottom;
pos = (314,0);
},
{
name = top;
pos = (464,710);
}
);
background = {
anchors = (
{
name = bottom;
pos = (314,0);
},
{
name = top;
pos = (464,710);
}
);
shapes = (
{
closed = 1;
nodes = (
(181,0,l),
(359,212,l),
(449,0,l),
(675,0,l),
(505,358,l),
(823,710,l),
(595,710,l),
(422,502,l),
(331,710,l),
(105,710,l),
(275,356,l),
(-47,0,l)
);
}
);
};
layerId = "3507EE3D-0D92-4546-A145-3A991F0A2B71";
shapes = (
{
closed = 1;
nodes = (
(675,0,l),
(498,372,l),
(428,487,l),
(331,710,l),
(105,710,l),
(282,342,l),
(353,227,l),
(449,0,l)
);
},
{
closed = 1;
nodes = (
(183,0,l),
(372,224,l),
(288,374,l),
(-47,0,l)
);
},
{
closed = 1;
nodes = (
(823,710,l),
(593,710,l),
(410,490,l),
(492,344,l)
);
}
);
width = 742;
},
{
anchors = (
{
name = bottom;
pos = (247,0);
},
{
name = top;
pos = (397,710);
}
);
background = {
anchors = (
{
name = bottom;
pos = (247,0);
},
{
name = top;
pos = (397,710);
}
);
shapes = (
{
closed = 1;
nodes = (
(59,0,l),
(307,290,l),
(433,0,l),
(535,0,l),
(376,358,l),
(681,710,l),
(581,710,l),
(338,424,l),
(213,710,l),
(111,710,l),
(267,356,l),
(-41,0,l)
);
}
);
};
layerId = "6C190511-B94A-4F5A-B519-D6E9DB0E7B93";
shapes = (
{
closed = 1;
nodes = (
(535,0,l),
(369,373,l),
(344,409,l),
(213,710,l),
(111,710,l),
(274,341,l),
(301,305,l),
(433,0,l)
);
},
{
closed = 1;
nodes = (
(59,0,l),
(318,302,l),
(277,368,l),
(-41,0,l)
);
},
{
closed = 1;
nodes = (
(681,710,l),
(581,710,l),
(327,412,l),
(366,346,l)
);
}
);
width = 606;
}
);
unicode = 88;
}
{
color = 4;
glyphname = Z;
kernLeft = Z;
kernRight = Z;
layers = (
{
anchors = (
{
name = bottom;
pos = (191,0);
},
{
name = top;
pos = (341,710);
}
);
background = {
anchors = (
{
name = bottom;
pos = (191,0);
},
{
name = top;
pos = (341,710);
}
);
shapes = (
{
closed = 1;
nodes = (
(418,0,l),
(424,30,l),
(-4,30,l),
(552,680,l),
(558,710,l),
(118,710,l),
(112,680,l),
(517,680,l),
(-39,30,l),
(-45,0,l)
);
}
);
};
layerId = "EE2FFE84-06F1-4AFB-BBEC-60D09A436D14";
shapes = (
{
closed = 1;
nodes = (
(419,0,l),
(425,30,l),
(9,30,l),
(551,680,l),
(557,710,l),
(117,710,l),
(111,680,l),
(515,680,l),
(-27,30,l),
(-33,0,l)
);
}
);
width = 523;
},
{
anchors = (
{
name = bottom;
pos = (254,0);
},
{
name = top;
pos = (404,710);
}
);
background = {
anchors = (
{
name = bottom;
pos = (254,0);
},
{
name = top;
pos = (404,710);
}
);
shapes = (
{
closed = 1;
nodes = (
(532,0,l),
(565,157,l),
(229,157,l),
(636,562,l),
(667,710,l),
(125,710,l),
(92,553,l),
(385,553,l),
(-12,148,l),
(-43,0,l)
);
}
);
};
layerId = "3507EE3D-0D92-4546-A145-3A991F0A2B71";
shapes = (
{
closed = 1;
nodes = (
(528,0,l),
(561,157,l),
(243,157,l),
(632,562,l),
(663,710,l),
(120,710,l),
(87,553,l),
(381,553,l),
(2,148,l),
(-29,0,l)
);
}
);
width = 611;
},
{
anchors = (
{
name = bottom;
pos = (205,0);
},
{
name = top;
pos = (355,710);
}
);
background = {
anchors = (
{
name = bottom;
pos = (205,0);
},
{
name = top;
pos = (355,710);
}
);
shapes = (
{
closed = 1;
nodes = (
(441,0,l),
(458,84,l),
(68,84,l),
(563,622,l),
(581,710,l),
(116,710,l),
(99,626,l),
(466,626,l),
(-29,88,l),
(-47,0,l)
);
}
);
};
layerId = "6C190511-B94A-4F5A-B519-D6E9DB0E7B93";
shapes = (
{
closed = 1;
nodes = (
(440,0,l),
(457,84,l),
(84,84,l),
(561,622,l),
(579,710,l),
(117,710,l),
(100,626,l),
(464,626,l),
(-13,88,l),
(-31,0,l)
);
}
);
width = 544;
}
);
unicode = 90;
}
{
color = 4;
glyphname = bracketright;
layers = (
{
background = {
shapes = (
{
closed = 1;
nodes = (
(214,-110,l),
(214,750,l),
(61,750,l),
(61,720,l),
(182,720,l),
(182,-80,l),
(61,-80,l),
(61,-110,l)
);
}
);
};
layerId = "EE2FFE84-06F1-4AFB-BBEC-60D09A436D14";
shapes = (
{
closed = 1;
nodes = (
(113,-110,l),
(295,750,l),
(123,750,l),
(117,722,l),
(257,722,l),
(87,-82,l),
(-53,-82,l),
(-59,-110,l)
);
}
);
width = 289;
},
{
background = {
shapes = (
{
closed = 1;
nodes = (
(386,-110,l),
(386,750,l),
(39,750,l),
(39,594,l),
(200,594,l),
(200,46,l),
(39,46,l),
(39,-110,l)
);
}
);
};
layerId = "3507EE3D-0D92-4546-A145-3A991F0A2B71";
shapes = (
{
closed = 1;
nodes = (
(276,-110,l),
(458,750,l),
(112,750,l),
(81,600,l),
(241,600,l),
(121,40,l),
(-39,40,l),
(-70,-110,l)
);
}
);
width = 425;
},
{
background = {
shapes = (
{
closed = 1;
nodes = (
(279,-110,l),
(279,750,l),
(39,750,l),
(39,674,l),
(199,674,l),
(199,-34,l),
(39,-34,l),
(39,-110,l)
);
}
);
};
layerId = "6C190511-B94A-4F5A-B519-D6E9DB0E7B93";
shapes = (
{
closed = 1;
nodes = (
(176,-110,l),
(358,750,l),
(118,750,l),
(104,680,l),
(264,680,l),
(110,-40,l),
(-50,-40,l),
(-64,-110,l)
);
}
);
width = 348;
}
);
metricLeft = X;
metricRight = H;
unicode = 93;
}
{
color = 4;
glyphname = asciicircum;
kernLeft = plus;
kernRight = plus;
layers = (
{
background = {
shapes = (
{
closed = 1;
nodes = (
(99,383,l),
(269,658,l),
(265,658,l),
(319,383,l),
(353,383,l),
(295,673,l),
(247,673,l),
(65,383,l)
);
}
);
};
guides = (
{
pos = (92,383);
}
);
layerId = "EE2FFE84-06F1-4AFB-BBEC-60D09A436D14";
shapes = (
{
closed = 1;
nodes = (
(101,383,l),
(272,658,l),
(266,658,l),
(321,383,l),
(353,383,l),
(295,673,l),
(247,673,l),
(65,383,l)
);
}
);
width = 368;
},
{
background = {
shapes = (
{
closed = 1;
nodes = (
(191,383,l),
(335,611,l),
(294,611,l),
(343,383,l),
(469,383,l),
(411,673,l),
(246,673,l),
(64,383,l)
);
}
);
};
layerId = "3507EE3D-0D92-4546-A145-3A991F0A2B71";
shapes = (
{
closed = 1;
nodes = (
(194,383,l),
(337,611,l),
(296,611,l),
(345,383,l),
(469,383,l),
(411,673,l),
(246,673,l),
(64,383,l)
);
}
);
width = 485;
},
{
background = {
shapes = (
{
closed = 1;
nodes = (
(147,383,l),
(293,612,l),
(281,612,l),
(329,383,l),
(411,383,l),
(353,673,l),
(247,673,l),
(65,383,l)
);
}
);
};
layerId = "6C190511-B94A-4F5A-B519-D6E9DB0E7B93";
shapes = (
{
closed = 1;
nodes = (
(149,383,l),
(295,612,l),
(283,612,l),
(331,383,l),
(411,383,l),
(353,673,l),
(247,673,l),
(65,383,l)
);
}
);
width = 426;
}
);
metricLeft = plus;
metricRight = plus;
unicode = 94;
}
{
color = 4;
glyphname = underscore;
layers = (
{
background = {
shapes = (
{
closed = 1;
nodes = (
(-47,-124,l),
(423,-124,l),
(423,-44,l),
(-47,-44,l)
);
}
);
};
layerId = "EE2FFE84-06F1-4AFB-BBEC-60D09A436D14";
shapes = (
{
closed = 1;
nodes = (
(412,-30,l),
(418,0,l),
(-16,0,l),
(-22,-30,l)
);
}
);
width = 515;
},
{
layerId = "3507EE3D-0D92-4546-A145-3A991F0A2B71";
shapes = (
{
closed = 1;
nodes = (
(431,-150,l),
(463,0,l),
(-37,0,l),
(-69,-150,l)
);
}
);
width = 540;
},
{
layerId = "6C190511-B94A-4F5A-B519-D6E9DB0E7B93";
shapes = (
{
closed = 1;
nodes = (
(427,-78,l),
(443,0,l),
(-26,0,l),
(-42,-78,l)
);
}
);
width = 530;
}
);
metricLeft = period;
metricRight = period;
unicode = 95;
}
{
color = 4;
glyphname = a;
kernLeft = a;
kernRight = l;
layers = (
{
anchors = (
{
name = bottom;
pos = (196,0);
},
{
name = ogonek;
pos = (436,0);
},
{
name = top;
pos = (304,530);
}
);
background = {
shapes = (
{
closed = 1;
nodes = (
(253,-12,o),
(345,51,o),
(386,122,c),
(380,122,l),
(358,20,o),
(381,-1,o),
(426,-1,cs),
(431,-1,o),
(435,-1,o),
(442,0,c),
(448,30,l),
(442,30,ls),
(408,30,o),
(395,43,o),
(407,100,cs),
(455,326,ls),
(486,472,o),
(433,542,o),
(311,542,cs),
(196,542,o),
(111,481,o),
(70,373,c),
(102,370,l),
(137,461,o),
(207,512,o),
(305,512,cs),
(413,512,o),
(452,454,o),
(423,316,c),
(201,276,ls),
(104,258,o),
(26,210,o),
(9,130,cs),
(-9,44,o),
(47,-12,o),
(149,-12,cs)
);
},
{
closed = 1;
nodes = (
(67,18,o),
(26,58,o),
(42,132,cs),
(55,196,o),
(117,232,o),
(204,248,cs),
(417,287,l),
(399,204,ls),
(377,98,o),
(273,18,o),
(157,18,cs)
);
}
);
};
layerId = "EE2FFE84-06F1-4AFB-BBEC-60D09A436D14";
shapes = (
{
closed = 1;
nodes = (
(428,317,l),
(199,276,ls),
(91,257,o),
(24,210,o),
(24,100,cs),
(24,32,o),
(76,-12,o),
(160,-12,cs),
(260,-12,o),
(343,53,o),
(384,124,c),
(379,126,l),
(374,115,o),
(365,76,o),
(365,52,cs),
(365,13,o),
(384,-1,o),
(418,-1,cs),
(423,-1,o),
(429,-1,o),
(436,0,c),
(442,30,l),
(422,30,ls),
(404,30,o),
(394,35,o),
(394,59,cs),
(394,106,o),
(456,326,o),
(456,406,cs),
(456,492,o),
(410,542,o),
(304,542,cs),
(189,542,o),
(120,491,o),
(78,373,c),
(110,370,l),
(144,472,o),
(204,512,o),
(300,512,cs),
(396,512,o),
(427,476,o),
(427,404,cs),
(427,348,o),
(405,252,o),
(393,200,cs),
(370,100,o),
(277,18,o),
(162,18,cs),
(90,18,o),
(56,48,o),
(56,108,cs),
(56,190,o),
(102,230,o),
(200,248,cs),
(422,288,l)
);
}
);
width = 528;
},
{
anchors = (
{
name = bottom;
pos = (243,0);
},
{
name = ogonek;
pos = (386,0);
},
{
name = top;
pos = (243,530);
}
);
associatedMasterId = "EE2FFE84-06F1-4AFB-BBEC-60D09A436D14";
background = {
shapes = (
{
closed = 1;
nodes = (
(323,-12,o),
(387,48,o),
(396,102,c),
(387,110,l),
(386,49,o),
(425,0,o),
(502,0,cs),
(529,0,l),
(529,76,l),
(507,76,ls),
(485,76,o),
(475,86,o),
(475,108,cs),
(475,320,ls),
(475,468,o),
(389,542,o),
(261,542,cs),
(151,542,o),
(64,474,o),
(44,374,c),
(136,367,l),
(149,421,o),
(196,460,o),
(261,460,cs),
(349,460,o),
(402,404,o),
(386,287,c),
(433,338,l),
(235,299,ls),
(117,276,o),
(35,249,o),
(35,139,cs),
(35,44,o),
(121,-12,o),
(226,-12,cs)
);
},
{
closed = 1;
nodes = (
(125,213,o),
(189,216,o),
(267,230,cs),
(435,261,l),
(391,267,l),
(391,228,ls),
(391,124,o),
(323,64,o),
(237,64,cs),
(160,64,o),
(125,98,o),
(125,139,cs)
);
}
);
};
layerId = "456932B6-354B-4A2F-81B9-CE7212349174";
name = "30 de mar. de 23 15:28";
shapes = (
{
closed = 1;
nodes = (
(217,280,ls),
(124,263,o),
(35,226,o),
(35,131,cs),
(35,48,o),
(101,-10,o),
(208,-12,cs),
(322,-10,o),
(414,62,o),
(430,192,c),
(411,192,l),
(410,155,o),
(409,127,o),
(409,90,cs),
(409,38,o),
(442,-2,o),
(483,0,cs),
(488,0,o),
(492,0,o),
(496,0,c),
(496,30,l),
(491,30,o),
(488,30,o),
(483,30,cs),
(457,31,o),
(439,56,o),
(439,90,cs),
(439,320,ls),
(439,468,o),
(371,542,o),
(243,542,cs),
(121,542,o),
(46,459,o),
(40,339,c),
(-6,376,l),
(134,366,l),
(77,338,l),
(79,446,o),
(142,512,o),
(243,512,cs),
(346,512,o),
(407,442,o),
(407,327,cs),
(407,303,l),
(430,319,l)
);
},
{
closed = 1;
nodes = (
(67,219,o),
(162,241,o),
(249,257,cs),
(425,290,l),
(409,295,l),
(410,219,ls),
(411,108,o),
(332,23,o),
(219,18,cs),
(126,13,o),
(67,60,o),
(67,131,cs)
);
}
);
width = 526;
},
{
anchors = (
{
name = bottom;
pos = (237,0);
},
{
name = ogonek;
pos = (530,0);
},
{
name = top;
pos = (351,540);
}
);
background = {
shapes = (
{
closed = 1;
nodes = (
(267,-12,o),
(340,34,o),
(378,108,c),
(367,124,l),
(344,14,o),
(414,-8,o),
(472,-8,cs),
(497,-8,o),
(529,-4,o),
(542,0,c),
(568,122,l),
(557,122,ls),
(537,122,o),
(526,129,o),
(533,164,cs),
(567,322,ls),
(600,476,o),
(530,552,o),
(354,552,cs),
(202,552,o),
(95,495,o),
(46,365,c),
(237,359,l),
(252,402,o),
(282,424,o),
(327,424,cs),
(370,424,o),
(388,394,o),
(376,338,c),
(207,304,ls),
(84,279,o),
(9,232,o),
(-11,136,cs),
(-31,42,o),
(38,-12,o),
(152,-12,cs)
);
},
{
closed = 1;
nodes = (
(197,110,o),
(185,126,o),
(191,154,cs),
(197,182,o),
(225,200,o),
(261,208,cs),
(353,230,l),
(350,212,ls),
(335,142,o),
(286,110,o),
(232,110,cs)
);
}
);
};
guides = (
{
pos = (9,358);
},
{
pos = (218,353);
}
);
layerId = "3507EE3D-0D92-4546-A145-3A991F0A2B71";
shapes = (
{
closed = 1;
nodes = (
(388,341,l),
(214,304,ls),
(88,277,o),
(6,224,o),
(6,108,cs),
(6,30,o),
(61,-12,o),
(162,-12,cs),
(267,-12,o),
(328,34,o),
(366,108,c),
(357,120,l),
(352,105,o),
(350,91,o),
(350,77,cs),
(350,27,o),
(386,-8,o),
(460,-8,cs),
(485,-8,o),
(517,-4,o),
(530,0,c),
(556,122,l),
(544,122,ls),
(528,122,o),
(518,126,o),
(518,144,cs),
(518,178,o),
(563,326,o),
(563,390,cs),
(563,498,o),
(492,552,o),
(352,552,cs),
(186,552,o),
(102,497,o),
(60,365,c),
(250,359,l),
(265,402,o),
(286,424,o),
(324,424,cs),
(357,424,o),
(368,405,o),
(368,376,cs),
(368,346,o),
(347,244,o),
(338,199,cs),
(324,129,o),
(284,110,o),
(247,110,cs),
(221,110,o),
(208,122,o),
(208,148,cs),
(208,182,o),
(228,200,o),
(261,208,cs),
(365,234,l)
);
}
);
width = 603;
},
{
anchors = (
{
name = bottom;
pos = (205,0);
},
{
name = ogonek;
pos = (462,0);
},
{
name = top;
pos = (328,530);
}
);
background = {
shapes = (
{
closed = 1;
nodes = (
(248,-12,o),
(341,39,o),
(370,108,c),
(360,110,l),
(343,30,o),
(364,-2,o),
(437,-2,cs),
(450,-2,o),
(463,-1,o),
(470,0,c),
(485,74,l),
(464,74,ls),
(444,74,o),
(438,83,o),
(443,107,cs),
(490,326,ls),
(518,460,o),
(462,542,o),
(326,542,cs),
(206,542,o),
(111,474,o),
(70,374,c),
(158,367,l),
(187,428,o),
(235,462,o),
(309,462,cs),
(393,462,o),
(426,418,o),
(407,329,c),
(211,294,ls),
(90,272,o),
(29,222,o),
(10,132,cs),
(-10,41,o),
(48,-12,o),
(158,-12,cs)
);
},
{
closed = 1;
nodes = (
(120,62,o),
(89,90,o),
(99,140,cs),
(109,184,o),
(138,211,o),
(212,224,cs),
(391,256,l),
(383,218,ls),
(364,130,o),
(288,62,o),
(182,62,cs)
);
}
);
};
layerId = "6C190511-B94A-4F5A-B519-D6E9DB0E7B93";
shapes = (
{
closed = 1;
nodes = (
(421,332,l),
(206,292,ls),
(70,267,o),
(20,204,o),
(20,112,cs),
(20,32,o),
(79,-12,o),
(166,-12,cs),
(258,-12,o),
(336,40,o),
(364,108,c),
(354,110,l),
(348,90,o),
(345,73,o),
(345,58,cs),
(345,15,o),
(373,-2,o),
(428,-2,cs),
(441,-2,o),
(455,-1,o),
(462,0,c),
(477,74,l),
(456,74,ls),
(440,74,o),
(433,79,o),
(433,93,cs),
(433,121,o),
(488,319,o),
(488,392,cs),
(488,488,o),
(440,542,o),
(324,542,cs),
(181,542,o),
(114,480,o),
(78,374,c),
(166,367,l),
(188,435,o),
(230,462,o),
(310,462,cs),
(381,462,o),
(404,437,o),
(404,384,cs),
(404,342,o),
(381,240,o),
(372,200,cs),
(354,116,o),
(284,62,o),
(180,62,cs),
(128,62,o),
(106,84,o),
(106,126,cs),
(106,183,o),
(136,210,o),
(214,224,cs),
(405,259,l)
);
}
);
width = 544;
}
);
metricLeft = "=o+4";
metricRight = "=l+2";
unicode = 97;
}
{
color = 4;
glyphname = b;
kernLeft = b;
kernRight = o;
layers = (
{
anchors = (
{
name = bottom;
pos = (229,0);
},
{
name = center;
pos = (143,265);
},
{
name = top;
pos = (341,530);
}
);
background = {
shapes = (
{
closed = 1;
nodes = (
(376,-12,o),
(484,95,o),
(520,265,cs),
(556,433,o),
(494,542,o),
(358,542,cs),
(270,542,o),
(189,482,o),
(144,400,c),
(210,710,l),
(180,710,l),
(29,0,l),
(51,0,l),
(82,134,l),
(94,53,o),
(148,-12,o),
(240,-12,cs)
);
},
{
closed = 1;
nodes = (
(137,18,o),
(84,119,o),
(115,265,cs),
(146,408,o),
(242,512,o),
(352,512,cs),
(468,512,o),
(520,415,o),
(488,265,cs),
(456,113,o),
(363,18,o),
(247,18,cs)
);
}
);
};
layerId = "EE2FFE84-06F1-4AFB-BBEC-60D09A436D14";
shapes = (
{
closed = 1;
nodes = (
(390,-12,o),
(514,150,o),
(514,356,cs),
(514,474,o),
(456,542,o),
(352,542,cs),
(254,542,o),
(168,470,o),
(120,361,c),
(134,356,l),
(210,710,l),
(180,710,l),
(29,0,l),
(53,0,l),
(82,130,l),
(96,50,o),
(144,-12,o),
(231,-12,cs)
);
},
{
closed = 1;
nodes = (
(158,18,o),
(106,80,o),
(106,184,cs),
(106,357,o),
(212,512,o),
(346,512,cs),
(434,512,o),
(482,460,o),
(482,348,cs),
(482,166,o),
(373,18,o),
(237,18,cs)
);
}
);
width = 556;
},
{
anchors = (
{
name = bottom;
pos = (274,0);
},
{
name = center;
pos = (165,270);
},
{
name = top;
pos = (389,540);
}
);
background = {
shapes = (
{
closed = 1;
nodes = (
(482,-12,o),
(592,100,o),
(628,270,cs),
(664,440,o),
(602,552,o),
(468,552,cs),
(395,552,o),
(332,516,o),
(291,462,c),
(344,710,l),
(150,710,l),
(-1,0,l),
(188,0,l),
(207,78,l),
(225,21,o),
(272,-12,o),
(348,-12,cs)
);
},
{
closed = 1;
nodes = (
(253,127,o),
(231,179,o),
(250,270,cs),
(270,362,o),
(314,413,o),
(373,413,cs),
(426,413,o),
(449,362,o),
(429,270,cs),
(410,178,o),
(363,127,o),
(312,127,cs)
);
}
);
};
layerId = "3507EE3D-0D92-4546-A145-3A991F0A2B71";
shapes = (
{
closed = 1;
nodes = (
(498,-12,o),
(616,149,o),
(616,362,cs),
(616,482,o),
(567,552,o),
(462,552,cs),
(374,552,o),
(311,506,o),
(270,430,c),
(282,420,l),
(344,710,l),
(150,710,l),
(-1,0,l),
(188,0,l),
(207,78,l),
(224,20,o),
(272,-12,o),
(340,-12,cs)
);
},
{
closed = 1;
nodes = (
(264,127,o),
(243,155,o),
(243,206,cs),
(243,312,o),
(294,413,o),
(362,413,cs),
(401,413,o),
(417,381,o),
(417,328,cs),
(417,219,o),
(364,127,o),
(300,127,cs)
);
}
);
width = 641;
},
{
anchors = (
{
name = bottom;
pos = (243,0);
},
{
name = center;
pos = (150,265);
},
{
name = top;
pos = (355,530);
}
);
background = {
shapes = (
{
closed = 1;
nodes = (
(404,-12,o),
(515,95,o),
(551,265,cs),
(587,435,o),
(522,542,o),
(382,542,cs),
(308,542,o),
(240,500,o),
(205,456,c),
(259,710,l),
(175,710,l),
(24,0,l),
(100,0,l),
(120,80,l),
(137,22,o),
(190,-12,o),
(264,-12,cs)
);
},
{
closed = 1;
nodes = (
(180,68,o),
(138,144,o),
(164,265,cs),
(190,388,o),
(264,462,o),
(362,462,cs),
(449,462,o),
(489,388,o),
(463,265,cs),
(437,144,o),
(365,68,o),
(276,68,cs)
);
}
);
};
layerId = "6C190511-B94A-4F5A-B519-D6E9DB0E7B93";
shapes = (
{
closed = 1;
nodes = (
(422,-12,o),
(540,152,o),
(540,342,cs),
(540,462,o),
(484,542,o),
(372,542,cs),
(280,542,o),
(221,490,o),
(180,416,c),
(196,412,l),
(259,710,l),
(175,710,l),
(24,0,l),
(100,0,l),
(121,78,l),
(136,28,o),
(184,-12,o),
(252,-12,cs)
);
},
{
closed = 1;
nodes = (
(197,68,o),
(154,110,o),
(154,192,cs),
(154,360,o),
(242,462,o),
(350,462,cs),
(420,462,o),
(452,420,o),
(452,330,cs),
(452,190,o),
(371,68,o),
(263,68,cs)
);
}
);
width = 578;
}
);
metricLeft = n;
metricRight = o;
unicode = 98;
}
{
color = 4;
glyphname = c;
kernLeft = o;
kernRight = o;
layers = (
{
anchors = (
{
name = bottom;
pos = (208,0);
},
{
name = top;
pos = (320,530);
}
);
background = {
anchors = (
{
name = bottom;
pos = (208,0);
},
{
name = top;
pos = (320,530);
}
);
shapes = (
{
closed = 1;
nodes = (
(325,-12,o),
(414,67,o),
(461,175,c),
(430,178,l),
(388,78,o),
(309,18,o),
(211,18,cs),
(93,18,o),
(39,113,o),
(71,265,cs),
(103,417,o),
(199,512,o),
(317,512,cs),
(415,512,o),
(462,457,o),
(466,363,c),
(498,365,l),
(494,465,o),
(443,542,o),
(323,542,cs),
(173,542,o),
(71,415,o),
(39,265,cs),
(7,115,o),
(55,-12,o),
(205,-12,cs)
);
}
);
};
layerId = "EE2FFE84-06F1-4AFB-BBEC-60D09A436D14";
shapes = (
{
closed = 1;
nodes = (
(329,-12,o),
(415,65,o),
(461,175,c),
(430,178,l),
(388,78,o),
(309,18,o),
(211,18,cs),
(126,18,o),
(76,72,o),
(76,184,cs),
(76,374,o),
(187,512,o),
(317,512,cs),
(415,512,o),
(464,457,o),
(464,363,c),
(495,365,l),
(495,465,o),
(443,542,o),
(323,542,cs),
(161,542,o),
(44,390,o),
(44,180,cs),
(44,69,o),
(94,-12,o),
(205,-12,cs)
);
}
);
width = 520;
},
{
anchors = (
{
name = bottom;
pos = (253,0);
},
{
name = top;
pos = (367,540);
}
);
background = {
anchors = (
{
name = bottom;
pos = (253,0);
},
{
name = top;
pos = (367,540);
}
);
shapes = (
{
closed = 1;
nodes = (
(411,-12,o),
(543,77,o),
(585,219,c),
(387,225,l),
(367,157,o),
(328,127,o),
(280,127,cs),
(220,127,o),
(197,178,o),
(217,270,cs),
(236,361,o),
(280,412,o),
(340,412,cs),
(387,412,o),
(413,381,o),
(407,317,c),
(608,325,l),
(624,466,o),
(526,552,o),
(370,552,cs),
(194,552,o),
(54,439,o),
(18,270,cs),
(-18,100,o),
(74,-12,o),
(250,-12,cs)
);
}
);
};
layerId = "3507EE3D-0D92-4546-A145-3A991F0A2B71";
shapes = (
{
closed = 1;
nodes = (
(415,-12,o),
(543,77,o),
(585,219,c),
(387,225,l),
(367,157,o),
(332,127,o),
(284,127,cs),
(244,127,o),
(225,154,o),
(225,212,cs),
(225,329,o),
(273,412,o),
(340,412,cs),
(387,412,o),
(401,385,o),
(401,317,c),
(600,325,l),
(600,475,o),
(526,552,o),
(370,552,cs),
(168,552,o),
(26,418,o),
(26,190,cs),
(26,54,o),
(103,-12,o),
(254,-12,cs)
);
}
);
width = 618;
},
{
anchors = (
{
name = bottom;
pos = (217,0);
},
{
name = top;
pos = (329,530);
}
);
background = {
anchors = (
{
name = bottom;
pos = (217,0);
},
{
name = top;
pos = (329,530);
}
);
shapes = (
{
closed = 1;
nodes = (
(336,-12,o),
(437,64,o),
(480,182,c),
(394,188,l),
(365,108,o),
(303,68,o),
(231,68,cs),
(133,68,o),
(92,142,o),
(118,265,cs),
(144,388,o),
(217,462,o),
(315,462,cs),
(387,462,o),
(431,422,o),
(428,352,c),
(518,358,l),
(525,476,o),
(454,542,o),
(332,542,cs),
(184,542,o),
(66,433,o),
(30,265,cs),
(-6,97,o),
(66,-12,o),
(214,-12,cs)
);
}
);
};
layerId = "6C190511-B94A-4F5A-B519-D6E9DB0E7B93";
shapes = (
{
closed = 1;
nodes = (
(348,-12,o),
(437,64,o),
(480,182,c),
(394,188,l),
(365,108,o),
(309,68,o),
(231,68,cs),
(155,68,o),
(125,101,o),
(125,198,cs),
(125,340,o),
(204,462,o),
(316,462,cs),
(388,462,o),
(422,430,o),
(422,352,c),
(510,358,l),
(510,468,o),
(448,542,o),
(332,542,cs),
(154,542,o),
(37,395,o),
(37,174,cs),
(37,58,o),
(94,-12,o),
(214,-12,cs)
);
}
);
width = 532;
}
);
metricLeft = o;
metricRight = "=o-10";
unicode = 99;
}
{
color = 4;
glyphname = d;
kernLeft = o;
kernRight = d;
layers = (
{
anchors = (
{
name = bottom;
pos = (215,0);
},
{
name = center;
pos = (492,618);
},
{
name = top;
pos = (327,530);
},
{
name = topright;
pos = (577,530);
}
);
background = {
anchors = (
{
name = bottom;
pos = (215,0);
},
{
name = center;
pos = (492,618);
},
{
name = top;
pos = (327,530);
},
{
name = topright;
pos = (577,530);
}
);
shapes = (
{
closed = 1;
nodes = (
(280,-12,o),
(369,44,o),
(419,138,c),
(393,0,l),
(415,0,l),
(566,710,l),
(536,710,l),
(470,400,l),
(463,482,o),
(407,542,o),
(316,542,cs),
(178,542,o),
(72,435,o),
(36,265,cs),
(0,95,o),
(60,-12,o),
(198,-12,cs)
);
},
{
closed = 1;
nodes = (
(89,18,o),
(36,115,o),
(68,265,cs),
(100,415,o),
(194,512,o),
(310,512,cs),
(422,512,o),
(470,403,o),
(441,265,cs),
(410,119,o),
(317,18,o),
(205,18,cs)
);
}
);
};
layerId = "EE2FFE84-06F1-4AFB-BBEC-60D09A436D14";
shapes = (
{
closed = 1;
nodes = (
(302,-12,o),
(388,60,o),
(436,169,c),
(426,174,l),
(392,0,l),
(415,0,l),
(566,710,l),
(536,710,l),
(470,402,l),
(460,480,o),
(412,542,o),
(325,542,cs),
(166,542,o),
(42,380,o),
(42,174,cs),
(42,56,o),
(100,-12,o),
(204,-12,cs)
);
},
{
closed = 1;
nodes = (
(122,18,o),
(74,70,o),
(74,182,cs),
(74,364,o),
(183,512,o),
(319,512,cs),
(398,512,o),
(450,450,o),
(450,346,cs),
(450,173,o),
(344,18,o),
(210,18,cs)
);
}
);
width = 556;
},
{
anchors = (
{
name = bottom;
pos = (254,0);
},
{
name = center;
pos = (537,622);
},
{
name = top;
pos = (369,540);
},
{
name = topright;
pos = (663,540);
}
);
background = {
anchors = (
{
name = bottom;
pos = (254,0);
},
{
name = center;
pos = (537,622);
},
{
name = top;
pos = (369,540);
},
{
name = topright;
pos = (663,540);
}
);
shapes = (
{
closed = 1;
nodes = (
(244,-12,o),
(310,21,o),
(352,78,c),
(339,0,l),
(528,0,l),
(679,710,l),
(485,710,l),
(432,462,l),
(416,518,o),
(370,552,o),
(290,552,cs),
(160,552,o),
(50,442,o),
(13,270,cs),
(-24,97,o),
(36,-12,o),
(170,-12,cs)
);
},
{
closed = 1;
nodes = (
(218,127,o),
(194,184,o),
(212,270,cs),
(231,358,o),
(277,413,o),
(332,413,cs),
(390,413,o),
(412,370,o),
(391,270,cs),
(370,170,o),
(328,127,o),
(271,127,cs)
);
}
);
};
layerId = "3507EE3D-0D92-4546-A145-3A991F0A2B71";
shapes = (
{
closed = 1;
nodes = (
(267,-12,o),
(330,32,o),
(371,108,c),
(363,124,l),
(341,0,l),
(528,0,l),
(679,710,l),
(485,710,l),
(432,462,l),
(415,520,o),
(369,552,o),
(301,552,cs),
(143,552,o),
(25,391,o),
(25,178,cs),
(25,58,o),
(74,-12,o),
(179,-12,cs)
);
},
{
closed = 1;
nodes = (
(240,127,o),
(224,159,o),
(224,212,cs),
(224,321,o),
(277,413,o),
(341,413,cs),
(377,413,o),
(398,385,o),
(398,334,cs),
(398,228,o),
(347,127,o),
(279,127,cs)
);
}
);
width = 641;
},
{
anchors = (
{
name = bottom;
pos = (223,0);
},
{
name = center;
pos = (489,616);
},
{
name = top;
pos = (335,530);
},
{
name = topright;
pos = (584,530);
}
);
background = {
anchors = (
{
name = bottom;
pos = (223,0);
},
{
name = center;
pos = (489,616);
},
{
name = top;
pos = (335,530);
},
{
name = topright;
pos = (584,530);
}
);
shapes = (
{
closed = 1;
nodes = (
(266,-12,o),
(337,22,o),
(380,80,c),
(366,0,l),
(442,0,l),
(593,710,l),
(509,710,l),
(455,456,l),
(437,510,o),
(381,542,o),
(310,542,cs),
(172,542,o),
(63,435,o),
(27,265,cs),
(-9,95,o),
(54,-12,o),
(192,-12,cs)
);
},
{
closed = 1;
nodes = (
(133,68,o),
(89,144,o),
(115,265,cs),
(141,388,o),
(217,462,o),
(310,462,cs),
(404,462,o),
(440,388,o),
(414,265,cs),
(388,144,o),
(320,68,o),
(226,68,cs)
);
}
);
};
layerId = "6C190511-B94A-4F5A-B519-D6E9DB0E7B93";
shapes = (
{
closed = 1;
nodes = (
(298,-12,o),
(359,38,o),
(400,112,c),
(389,120,l),
(366,0,l),
(442,0,l),
(593,710,l),
(509,710,l),
(456,456,l),
(442,504,o),
(394,542,o),
(326,542,cs),
(156,542,o),
(38,378,o),
(38,188,cs),
(38,68,o),
(94,-12,o),
(206,-12,cs)
);
},
{
closed = 1;
nodes = (
(158,68,o),
(126,110,o),
(126,200,cs),
(126,340,o),
(207,462,o),
(315,462,cs),
(381,462,o),
(424,420,o),
(424,338,cs),
(424,170,o),
(336,68,o),
(228,68,cs)
);
}
);
width = 578;
}
);
metricLeft = o;
metricRight = "=|n";
unicode = 100;
}
{
color = 4;
glyphname = f;
kernLeft = f;
kernRight = f;
layers = (
{
anchors = (
{
name = bottom;
pos = (126,0);
},
{
name = top;
pos = (276,710);
}
);
background = {
shapes = (
{
closed = 1;
nodes = (
(205,0,l),
(205,603,ls),
(205,653,o),
(235,683,o),
(283,683,cs),
(348,683,l),
(348,710,l),
(287,710,ls),
(218,710,o),
(175,667,o),
(175,598,cs),
(175,0,l)
);
},
{
closed = 1;
nodes = (
(348,500,l),
(348,530,l),
(94,530,l),
(94,500,l)
);
}
);
};
layerId = "EE2FFE84-06F1-4AFB-BBEC-60D09A436D14";
shapes = (
{
closed = 1;
nodes = (
(120,0,l),
(246,597,ls),
(258,650,o),
(289,682,o),
(353,682,cs),
(408,682,l),
(413,710,l),
(354,710,ls),
(274,710,o),
(232,669,o),
(217,600,cs),
(90,0,l)
);
},
{
closed = 1;
nodes = (
(369,502,l),
(375,530,l),
(121,530,l),
(115,502,l)
);
}
);
width = 364;
},
{
anchors = (
{
name = bottom;
pos = (184,0);
},
{
name = top;
pos = (334,710);
}
);
background = {
shapes = (
{
closed = 1;
nodes = (
(341,0,l),
(341,514,ls),
(341,550,o),
(362,573,o),
(395,573,c),
(482,573,l),
(482,710,l),
(356,710,l),
(210,710,o),
(146,647,o),
(146,514,c),
(146,0,l)
);
},
{
closed = 1;
nodes = (
(473,356,l),
(473,493,l),
(64,493,l),
(64,356,l)
);
}
);
};
layerId = "3507EE3D-0D92-4546-A145-3A991F0A2B71";
shapes = (
{
closed = 1;
nodes = (
(256,0,l),
(364,512,ls),
(373,554,o),
(392,573,o),
(434,573,cs),
(518,573,l),
(547,710,l),
(413,710,ls),
(275,710,o),
(197,644,o),
(171,520,cs),
(61,0,l)
);
},
{
closed = 1;
nodes = (
(467,369,l),
(496,506,l),
(86,506,l),
(57,369,l)
);
}
);
width = 481;
},
{
anchors = (
{
name = bottom;
pos = (144,0);
},
{
name = top;
pos = (294,710);
}
);
background = {
shapes = (
{
closed = 1;
nodes = (
(246,0,l),
(246,564,ls),
(246,609,o),
(270,636,o),
(304,636,cs),
(386,636,l),
(386,710,l),
(304,710,ls),
(206,710,o),
(162,653,o),
(162,564,cs),
(162,0,l)
);
},
{
closed = 1;
nodes = (
(379,456,l),
(379,530,l),
(90,530,l),
(90,456,l)
);
}
);
};
layerId = "6C190511-B94A-4F5A-B519-D6E9DB0E7B93";
shapes = (
{
closed = 1;
nodes = (
(161,0,l),
(282,572,ls),
(292,618,o),
(314,636,o),
(358,636,cs),
(436,636,l),
(451,710,l),
(367,710,ls),
(265,710,o),
(217,662,o),
(199,578,cs),
(77,0,l)
);
},
{
closed = 1;
nodes = (
(390,456,l),
(406,530,l),
(117,530,l),
(101,456,l)
);
}
);
width = 396;
}
);
metricLeft = "=n-20";
metricRight = "=r-5";
unicode = 102;
}
{
color = 4;
glyphname = g;
kernLeft = o;
kernRight = u;
layers = (
{
anchors = (
{
name = bottom;
pos = (178,-150);
},
{
name = top;
pos = (321,530);
}
);
background = {
shapes = (
{
closed = 1;
nodes = (
(307,-162,o),
(406,-80,o),
(434,55,cs),
(535,530,l),
(505,530,l),
(478,402,l),
(467,482,o),
(414,542,o),
(322,542,cs),
(188,542,o),
(81,441,o),
(48,285,cs),
(14,125,o),
(78,25,o),
(212,25,cs),
(302,25,o),
(377,79,o),
(426,159,c),
(405,57,ls),
(379,-63,o),
(297,-132,o),
(182,-132,cs),
(84,-132,o),
(33,-80,o),
(45,-4,c),
(12,-6,l),
(-3,-96,o),
(64,-162,o),
(175,-162,cs)
);
},
{
closed = 1;
nodes = (
(104,55,o),
(50,144,o),
(80,285,cs),
(110,423,o),
(201,512,o),
(315,512,cs),
(427,512,o),
(481,415,o),
(453,285,cs),
(423,144,o),
(330,55,o),
(218,55,cs)
);
}
);
};
layerId = "EE2FFE84-06F1-4AFB-BBEC-60D09A436D14";
shapes = (
{
closed = 1;
nodes = (
(318,-162,o),
(391,-100,o),
(424,55,cs),
(525,530,l),
(495,530,l),
(468,402,l),
(458,482,o),
(413,542,o),
(321,542,cs),
(151,542,o),
(47,382,o),
(47,206,cs),
(47,94,o),
(102,25,o),
(212,25,cs),
(306,25,o),
(368,77,o),
(416,159,c),
(395,57,ls),
(367,-77,o),
(302,-132,o),
(184,-132,cs),
(86,-132,o),
(50,-100,o),
(50,-4,c),
(18,-6,l),
(18,-120,o),
(74,-162,o),
(180,-162,cs)
);
},
{
closed = 1;
nodes = (
(126,55,o),
(79,106,o),
(79,212,cs),
(79,344,o),
(159,512,o),
(315,512,cs),
(407,512,o),
(450,448,o),
(450,354,cs),
(450,208,o),
(354,55,o),
(216,55,cs)
);
}
);
width = 554;
},
{
anchors = (
{
name = bottom;
pos = (226,-150);
},
{
name = top;
pos = (376,540);
}
);
background = {
shapes = (
{
closed = 1;
nodes = (
(384,-162,o),
(519,-93,o),
(552,64,cs),
(653,540,l),
(461,540,l),
(444,458,l),
(426,514,o),
(386,552,o),
(305,552,cs),
(175,552,o),
(61,442,o),
(27,286,cs),
(-7,123,o),
(62,23,o),
(192,23,cs),
(261,23,o),
(329,53,o),
(364,99,c),
(355,60,ls),
(340,-12,o),
(303,-40,o),
(249,-40,cs),
(199,-40,o),
(184,-26,o),
(182,0,c),
(-19,-14,l),
(-12,-100,o),
(43,-162,o),
(223,-162,cs)
);
},
{
closed = 1;
nodes = (
(234,154,o),
(210,207,o),
(227,288,cs),
(244,368,o),
(289,422,o),
(346,422,cs),
(401,422,o),
(424,372,o),
(406,288,cs),
(387,202,o),
(343,154,o),
(289,154,cs)
);
}
);
};
layerId = "3507EE3D-0D92-4546-A145-3A991F0A2B71";
shapes = (
{
closed = 1;
nodes = (
(405,-162,o),
(516,-101,o),
(548,56,cs),
(648,540,l),
(456,540,l),
(439,458,l),
(421,512,o),
(380,552,o),
(292,552,cs),
(132,552,o),
(31,408,o),
(31,208,cs),
(31,92,o),
(84,23,o),
(192,23,cs),
(270,23,o),
(330,56,o),
(365,102,c),
(355,52,ls),
(341,-18,o),
(302,-40,o),
(244,-40,cs),
(196,-40,o),
(187,-26,o),
(187,0,c),
(-8,-14,l),
(-8,-104,o),
(25,-162,o),
(225,-162,cs)
);
},
{
closed = 1;
nodes = (
(246,154,o),
(230,187,o),
(230,240,cs),
(230,340,o),
(270,422,o),
(344,422,cs),
(387,422,o),
(410,389,o),
(410,336,cs),
(410,267,o),
(376,154,o),
(289,154,cs)
);
}
);
width = 650;
},
{
anchors = (
{
name = bottom;
pos = (187,-150);
},
{
name = top;
pos = (333,530);
}
);
background = {
shapes = (
{
closed = 1;
nodes = (
(330,-162,o),
(433,-88,o),
(459,36,cs),
(564,530,l),
(484,530,l),
(466,446,l),
(455,505,o),
(398,542,o),
(324,542,cs),
(191,542,o),
(74,436,o),
(42,285,cs),
(10,134,o),
(84,28,o),
(219,28,cs),
(288,28,o),
(355,64,o),
(393,120,c),
(375,34,ls),
(358,-44,o),
(297,-82,o),
(201,-82,cs),
(119,-82,o),
(90,-52,o),
(84,-2,c),
(-5,-8,l),
(-3,-101,o),
(70,-162,o),
(184,-162,cs)
);
},
{
closed = 1;
nodes = (
(149,108,o),
(107,176,o),
(130,285,cs),
(153,394,o),
(222,462,o),
(315,462,cs),
(407,462,o),
(453,394,o),
(428,285,cs),
(404,176,o),
(331,108,o),
(240,108,cs)
);
}
);
};
layerId = "6C190511-B94A-4F5A-B519-D6E9DB0E7B93";
shapes = (
{
closed = 1;
nodes = (
(334,-162,o),
(415,-116,o),
(447,36,cs),
(552,530,l),
(472,530,l),
(454,446,l),
(443,505,o),
(398,542,o),
(320,542,cs),
(150,542,o),
(43,388,o),
(43,218,cs),
(43,98,o),
(106,28,o),
(214,28,cs),
(288,28,o),
(343,64,o),
(381,120,c),
(363,34,ls),
(345,-50,o),
(300,-82,o),
(200,-82,cs),
(117,-82,o),
(92,-55,o),
(92,-2,c),
(3,-8,l),
(3,-104,o),
(62,-162,o),
(184,-162,cs)
);
},
{
closed = 1;
nodes = (
(156,108,o),
(132,146,o),
(132,226,cs),
(132,360,o),
(206,462,o),
(310,462,cs),
(382,462,o),
(423,416,o),
(423,346,cs),
(424,232,o),
(353,108,o),
(232,108,cs)
);
}
);
width = 576;
}
);
metricLeft = o;
metricRight = d;
unicode = 103;
}
{
color = 4;
glyphname = h;
kernLeft = b;
kernRight = n;
layers = (
{
anchors = (
{
name = bottom;
pos = (223,0);
},
{
name = center;
pos = (216,618);
},
{
name = top;
pos = (191,690);
}
);
background = {
shapes = (
{
closed = 1;
nodes = (
(60,0,l),
(127,317,ls),
(151,431,o),
(232,512,o),
(342,512,cs),
(452,512,o),
(477,432,o),
(453,317,cs),
(386,0,l),
(416,0,l),
(488,341,ls),
(512,453,o),
(476,542,o),
(357,542,cs),
(261,542,o),
(167,489,o),
(137,385,c),
(141,385,l),
(210,710,l),
(180,710,l),
(30,0,l)
);
}
);
};
layerId = "EE2FFE84-06F1-4AFB-BBEC-60D09A436D14";
shapes = (
{
closed = 1;
nodes = (
(60,0,l),
(127,317,ls),
(151,431,o),
(233,512,o),
(337,512,cs),
(423,512,o),
(453,464,o),
(453,406,cs),
(453,366,o),
(447,340,o),
(439,302,cs),
(374,0,l),
(404,0,l),
(467,298,ls),
(475,336,o),
(483,370,o),
(483,410,cs),
(483,485,o),
(442,542,o),
(347,542,cs),
(257,542,o),
(168,486,o),
(132,380,c),
(140,380,l),
(210,710,l),
(180,710,l),
(30,0,l)
);
}
);
width = 545;
},
{
anchors = (
{
name = bottom;
pos = (260,0);
},
{
name = center;
pos = (256,622);
},
{
name = top;
pos = (246,690);
}
);
background = {
shapes = (
{
closed = 1;
nodes = (
(194,0,l),
(257,298,ls),
(272,368,o),
(303,403,o),
(349,403,cs),
(395,403,o),
(403,368,o),
(389,304,cs),
(325,0,l),
(519,0,l),
(592,347,ls),
(618,467,o),
(575,552,o),
(451,552,cs),
(367,552,o),
(286,505,o),
(254,408,c),
(281,410,l),
(344,710,l),
(150,710,l),
(0,0,l)
);
}
);
};
layerId = "3507EE3D-0D92-4546-A145-3A991F0A2B71";
shapes = (
{
closed = 1;
nodes = (
(194,0,l),
(257,298,ls),
(273,376,o),
(300,403,o),
(347,403,cs),
(380,403,o),
(395,388,o),
(395,358,cs),
(395,334,o),
(389,304,o),
(383,278,cs),
(323,0,l),
(517,0,l),
(575,270,ls),
(583,308,o),
(595,368,o),
(595,412,cs),
(595,503,o),
(543,552,o),
(450,552,cs),
(366,552,o),
(297,508,o),
(255,410,c),
(279,410,l),
(344,710,l),
(150,710,l),
(0,0,l)
);
}
);
width = 631;
},
{
anchors = (
{
name = bottom;
pos = (236,0);
},
{
name = center;
pos = (235,616);
},
{
name = top;
pos = (213,690);
}
);
background = {
shapes = (
{
closed = 1;
nodes = (
(109,0,l),
(176,316,ls),
(197,414,o),
(264,468,o),
(350,468,cs),
(424,468,o),
(451,419,o),
(429,317,cs),
(362,0,l),
(446,0,l),
(518,341,ls),
(543,459,o),
(498,542,o),
(384,542,cs),
(300,542,o),
(225,503,o),
(187,415,c),
(196,413,l),
(259,710,l),
(175,710,l),
(25,0,l)
);
}
);
};
layerId = "6C190511-B94A-4F5A-B519-D6E9DB0E7B93";
shapes = (
{
closed = 1;
nodes = (
(109,0,l),
(176,316,ls),
(197,413,o),
(264,468,o),
(340,468,cs),
(397,468,o),
(426,439,o),
(426,390,cs),
(426,363,o),
(422,340,o),
(417,317,cs),
(349,0,l),
(433,0,l),
(498,306,ls),
(504,332,o),
(512,374,o),
(512,406,cs),
(512,485,o),
(466,542,o),
(370,542,cs),
(292,542,o),
(224,500,o),
(184,416,c),
(196,412,l),
(259,710,l),
(175,710,l),
(25,0,l)
);
}
);
width = 569;
}
);
metricLeft = b;
metricRight = n;
unicode = 104;
}
{
color = 4;
glyphname = k;
kernLeft = b;
kernRight = x;
layers = (
{
anchors = (
{
name = bottom;
pos = (219,0);
},
{
name = top;
pos = (188,670);
}
);
background = {
anchors = (
{
name = bottom;
pos = (219,0);
},
{
name = top;
pos = (162,670);
}
);
shapes = (
{
closed = 1;
nodes = (
(35,0,l),
(68,156,l),
(226,284,l),
(405,0,l),
(441,0,l),
(250,302,l),
(533,530,l),
(493,530,l),
(76,194,l),
(185,710,l),
(155,710,l),
(5,0,l)
);
}
);
};
layerId = "EE2FFE84-06F1-4AFB-BBEC-60D09A436D14";
shapes = (
{
closed = 1;
nodes = (
(517,530,l),
(475,530,l),
(86,204,l),
(80,162,l)
);
},
{
closed = 1;
nodes = (
(60,0,l),
(210,710,l),
(180,710,l),
(30,0,l)
);
},
{
closed = 1;
nodes = (
(421,0,l),
(236,308,l),
(212,290,l),
(385,0,l)
);
}
);
width = 501;
},
{
anchors = (
{
name = bottom;
pos = (274,0);
},
{
name = top;
pos = (274,530);
}
);
associatedMasterId = "EE2FFE84-06F1-4AFB-BBEC-60D09A436D14";
background = {
shapes = (
{
closed = 1;
nodes = (
(42,0,l),
(128,0,l),
(128,710,l),
(42,710,l)
);
},
{
closed = 1;
nodes = (
(506,0,l),
(283,314,l),
(264,278,l),
(496,530,l),
(379,530,l),
(74,186,l),
(74,59,l),
(250,265,l),
(218,265,l),
(400,0,l)
);
}
);
};
layerId = "057BC141-43A0-44B5-9F16-EF09775895DB";
name = "24 de feb. de 23 10:41";
shapes = (
{
closed = 1;
nodes = (
(60,0,l),
(90,0,l),
(90,710,l),
(60,710,l)
);
},
{
closed = 1;
nodes = (
(476,530,l),
(434,530,l),
(74,179,l),
(74,141,l)
);
},
{
closed = 1;
nodes = (
(211,294,l),
(459,0,l),
(496,0,l),
(229,314,l)
);
}
);
width = 536;
},
{
anchors = (
{
name = bottom;
pos = (269,0);
},
{
name = top;
pos = (239,700);
}
);
background = {
anchors = (
{
name = bottom;
pos = (269,0);
},
{
name = top;
pos = (239,700);
}
);
shapes = (
{
closed = 1;
nodes = (
(188,0,l),
(222,160,l),
(288,218,l),
(372,0,l),
(578,0,l),
(434,322,l),
(688,540,l),
(462,540,l),
(265,364,l),
(338,710,l),
(144,710,l),
(-6,0,l)
);
}
);
};
layerId = "3507EE3D-0D92-4546-A145-3A991F0A2B71";
shapes = (
{
closed = 1;
nodes = (
(684,540,l),
(448,540,l),
(238,354,l),
(198,134,l)
);
},
{
closed = 1;
nodes = (
(194,0,l),
(344,710,l),
(150,710,l),
(0,0,l)
);
},
{
closed = 1;
nodes = (
(578,0,l),
(428,342,l),
(281,237,l),
(372,0,l)
);
}
);
width = 655;
},
{
anchors = (
{
name = bottom;
pos = (240,0);
},
{
name = top;
pos = (209,670);
}
);
background = {
anchors = (
{
name = bottom;
pos = (240,0);
},
{
name = top;
pos = (209,670);
}
);
shapes = (
{
closed = 1;
nodes = (
(109,0,l),
(138,138,l),
(265,248,l),
(386,0,l),
(488,0,l),
(334,305,l),
(591,530,l),
(479,530,l),
(161,245,l),
(259,710,l),
(175,710,l),
(25,0,l)
);
}
);
};
layerId = "6C190511-B94A-4F5A-B519-D6E9DB0E7B93";
shapes = (
{
closed = 1;
nodes = (
(566,530,l),
(454,530,l),
(123,234,l),
(102,126,l)
);
},
{
closed = 1;
nodes = (
(109,0,l),
(259,710,l),
(175,710,l),
(25,0,l)
);
},
{
closed = 1;
nodes = (
(465,0,l),
(305,319,l),
(238,264,l),
(363,0,l)
);
}
);
width = 543;
}
);
metricLeft = n;
metricRight = "=x-10";
unicode = 107;
}
{
color = 4;
glyphname = l;
kernLeft = l;
kernRight = l;
layers = (
{
anchors = (
{
name = bottom;
pos = (89,0);
},
{
name = center;
pos = (141,348);
},
{
name = top;
pos = (187,670);
},
{
name = topright;
pos = (222,530);
}
);
background = {
shapes = (
{
closed = 1;
nodes = (
(148,0,l),
(153,28,l),
(121,28,ls),
(83,28,o),
(69,46,o),
(77,80,cs),
(210,710,l),
(180,710,l),
(47,80,ls),
(35,27,o),
(58,0,o),
(113,0,cs)
);
}
);
};
layerId = "EE2FFE84-06F1-4AFB-BBEC-60D09A436D14";
shapes = (
{
closed = 1;
nodes = (
(148,0,l),
(153,28,l),
(116,28,ls),
(84,28,o),
(74,40,o),
(74,56,cs),
(74,71,o),
(80,94,o),
(86,124,cs),
(210,710,l),
(180,710,l),
(58,132,ls),
(51,100,o),
(44,69,o),
(44,52,cs),
(44,18,o),
(64,0,o),
(110,0,cs)
);
}
);
width = 238;
},
{
anchors = (
{
name = bottom;
pos = (142,0);
},
{
name = center;
pos = (203,380);
},
{
name = top;
pos = (247,700);
},
{
name = topright;
pos = (320,540);
}
);
background = {
shapes = (
{
closed = 1;
nodes = (
(275,0,l),
(304,137,l),
(275,137,ls),
(243,137,o),
(227,150,o),
(236,188,cs),
(346,710,l),
(152,710,l),
(37,166,ls),
(12,48,o),
(62,0,o),
(166,0,cs)
);
}
);
};
layerId = "3507EE3D-0D92-4546-A145-3A991F0A2B71";
shapes = (
{
closed = 1;
nodes = (
(275,0,l),
(304,137,l),
(268,137,ls),
(242,137,o),
(234,145,o),
(234,164,cs),
(234,180,o),
(240,209,o),
(246,236,cs),
(346,710,l),
(152,710,l),
(54,249,ls),
(42,193,o),
(30,140,o),
(30,104,cs),
(30,31,o),
(70,0,o),
(156,0,cs)
);
}
);
width = 346;
},
{
anchors = (
{
name = bottom;
pos = (110,0);
},
{
name = center;
pos = (152,405);
},
{
name = top;
pos = (209,670);
},
{
name = topright;
pos = (251,530);
}
);
background = {
shapes = (
{
closed = 1;
nodes = (
(188,0,l),
(203,74,l),
(157,74,ls),
(135,74,o),
(127,85,o),
(131,107,cs),
(259,710,l),
(175,710,l),
(46,100,ls),
(31,30,o),
(67,0,o),
(129,0,cs)
);
}
);
};
layerId = "6C190511-B94A-4F5A-B519-D6E9DB0E7B93";
shapes = (
{
closed = 1;
nodes = (
(188,0,l),
(203,74,l),
(156,74,ls),
(139,74,o),
(130,80,o),
(130,92,cs),
(130,104,o),
(135,124,o),
(140,150,cs),
(259,710,l),
(175,710,l),
(58,156,ls),
(52,130,o),
(42,94,o),
(42,64,cs),
(42,20,o),
(73,0,o),
(126,0,cs)
);
}
);
width = 268;
}
);
metricLeft = n;
unicode = 108;
}
{
color = 4;
glyphname = m;
kernLeft = n;
kernRight = n;
layers = (
{
anchors = (
{
name = bottom;
pos = (354,0);
},
{
name = top;
pos = (467,530);
}
);
background = {
shapes = (
{
closed = 1;
nodes = (
(49,0,l),
(117,317,ls),
(140,426,o),
(230,512,o),
(323,512,cs),
(402,512,o),
(432,437,o),
(407,317,cs),
(339,0,l),
(369,0,l),
(435,308,ls),
(459,422,o),
(550,512,o),
(642,512,cs),
(723,512,o),
(758,436,o),
(732,314,cs),
(665,0,l),
(695,0,l),
(767,338,ls),
(793,458,o),
(746,542,o),
(653,542,cs),
(559,542,o),
(468,473,o),
(434,365,c),
(444,361,l),
(460,471,o),
(414,542,o),
(336,542,cs),
(241,542,o),
(150,473,o),
(127,385,c),
(129,370,l),
(160,530,l),
(132,530,l),
(19,0,l)
);
}
);
};
layerId = "EE2FFE84-06F1-4AFB-BBEC-60D09A436D14";
shapes = (
{
closed = 1;
nodes = (
(59,0,l),
(127,317,ls),
(150,426,o),
(225,512,o),
(315,512,cs),
(384,512,o),
(418,471,o),
(418,400,cs),
(418,368,o),
(412,340,o),
(404,302,cs),
(339,0,l),
(369,0,l),
(435,308,ls),
(459,422,o),
(540,512,o),
(622,512,cs),
(690,512,o),
(728,472,o),
(728,404,cs),
(728,366,o),
(720,329,o),
(714,302,cs),
(649,0,l),
(679,0,l),
(742,298,ls),
(747,320,o),
(758,368,o),
(758,410,cs),
(758,481,o),
(720,542,o),
(629,542,cs),
(553,542,o),
(466,473,o),
(432,365,c),
(445,382,l),
(445,492,o),
(408,542,o),
(322,542,cs),
(235,542,o),
(160,473,o),
(137,385,c),
(139,370,l),
(170,530,l),
(142,530,l),
(29,0,l)
);
}
);
width = 820;
},
{
associatedMasterId = "EE2FFE84-06F1-4AFB-BBEC-60D09A436D14";
background = {
shapes = (
{
closed = 1;
nodes = (
(11,0,l),
(97,0,l),
(97,317,ls),
(97,410,o),
(145,466,o),
(226,466,cs),
(289,466,o),
(327,410,o),
(327,317,cs),
(327,0,l),
(413,0,l),
(413,317,ls),
(413,412,o),
(460,466,o),
(542,466,cs),
(606,466,o),
(643,412,o),
(643,317,cs),
(643,0,l),
(729,0,l),
(729,341,ls),
(729,469,o),
(667,542,o),
(560,542,cs),
(465,542,o),
(407,491,o),
(391,400,c),
(407,399,l),
(392,489,o),
(332,542,o),
(244,542,cs),
(159,542,o),
(100,494,o),
(83,410,c),
(94,397,l),
(89,530,l),
(11,530,l)
);
}
);
};
layerId = "09ED80C9-A39B-4FA7-92C4-302824AFB0B4";
name = "8 de feb. de 23 15:09";
shapes = (
{
closed = 1;
nodes = (
(40,0,l),
(70,0,l),
(70,317,ls),
(70,426,o),
(142,512,o),
(235,512,cs),
(314,512,o),
(360,437,o),
(360,317,cs),
(360,0,l),
(390,0,l),
(390,341,ls),
(390,459,o),
(327,542,o),
(238,542,cs),
(154,542,o),
(88,488,o),
(70,415,c),
(68,530,l),
(40,530,l)
);
},
{
closed = 1;
nodes = (
(390,308,l),
(390,422,o),
(462,512,o),
(554,512,cs),
(635,512,o),
(686,436,o),
(686,314,cs),
(686,0,l),
(716,0,l),
(716,338,ls),
(716,458,o),
(651,542,o),
(558,542,cs),
(473,542,o),
(406,486,o),
(384,397,c)
);
}
);
width = 756;
},
{
anchors = (
{
name = bottom;
pos = (394,0);
},
{
name = top;
pos = (509,540);
}
);
background = {
shapes = (
{
closed = 1;
nodes = (
(187,0,l),
(249,290,ls),
(264,362,o),
(293,403,o),
(335,403,cs),
(380,403,o),
(387,366,o),
(371,290,cs),
(309,0,l),
(479,0,l),
(541,290,ls),
(556,362,o),
(585,403,o),
(627,403,cs),
(672,403,o),
(680,366,o),
(664,290,cs),
(602,0,l),
(796,0,l),
(870,347,ls),
(899,483,o),
(838,552,o),
(731,552,cs),
(653,552,o),
(580,502,o),
(540,406,c),
(560,408,l),
(562,494,o),
(521,552,o),
(433,552,cs),
(359,552,o),
(289,506,o),
(249,422,c),
(261,414,l),
(282,540,l),
(108,540,l),
(-7,0,l)
);
}
);
};
layerId = "3507EE3D-0D92-4546-A145-3A991F0A2B71";
shapes = (
{
closed = 1;
nodes = (
(193,0,l),
(255,290,ls),
(270,362,o),
(295,403,o),
(333,403,cs),
(364,403,o),
(378,387,o),
(378,358,cs),
(378,341,o),
(374,314,o),
(369,290,cs),
(307,0,l),
(478,0,l),
(540,290,ls),
(555,362,o),
(583,403,o),
(622,403,cs),
(648,403,o),
(664,390,o),
(664,360,cs),
(664,333,o),
(658,307,o),
(652,278,cs),
(592,0,l),
(786,0,l),
(844,270,ls),
(854,314,o),
(864,376,o),
(864,412,cs),
(864,498,o),
(815,552,o),
(721,552,cs),
(639,552,o),
(578,502,o),
(538,406,c),
(558,408,l),
(558,498,o),
(517,552,o),
(424,552,cs),
(353,552,o),
(295,506,o),
(255,422,c),
(267,414,l),
(288,540,l),
(114,540,l),
(-1,0,l)
);
}
);
width = 900;
},
{
anchors = (
{
name = bottom;
pos = (366,0);
},
{
name = top;
pos = (479,530);
}
);
background = {
shapes = (
{
closed = 1;
nodes = (
(92,0,l),
(160,317,ls),
(180,411,o),
(241,468,o),
(315,468,cs),
(393,468,o),
(412,411,o),
(392,317,cs),
(324,0,l),
(408,0,l),
(476,317,ls),
(496,412,o),
(556,468,o),
(630,468,cs),
(703,468,o),
(730,419,o),
(710,323,cs),
(641,0,l),
(725,0,l),
(798,341,ls),
(825,469,o),
(779,542,o),
(666,542,cs),
(577,542,o),
(508,490,o),
(472,399,c),
(488,398,l),
(492,489,o),
(444,542,o),
(352,542,cs),
(272,542,o),
(198,487,o),
(161,400,c),
(173,396,l),
(198,530,l),
(121,530,l),
(8,0,l)
);
}
);
};
layerId = "6C190511-B94A-4F5A-B519-D6E9DB0E7B93";
shapes = (
{
closed = 1;
nodes = (
(108,0,l),
(176,317,ls),
(196,411,o),
(249,468,o),
(319,468,cs),
(372,468,o),
(399,438,o),
(399,390,cs),
(399,372,o),
(395,340,o),
(390,317,cs),
(322,0,l),
(406,0,l),
(474,317,ls),
(494,412,o),
(550,468,o),
(618,468,cs),
(665,468,o),
(697,440,o),
(697,390,cs),
(697,364,o),
(692,337,o),
(688,317,cs),
(620,0,l),
(704,0,l),
(769,306,ls),
(774,330,o),
(783,370,o),
(783,406,cs),
(783,483,o),
(736,542,o),
(646,542,cs),
(567,542,o),
(506,490,o),
(470,399,c),
(486,398,l),
(484,496,o),
(442,542,o),
(350,542,cs),
(276,542,o),
(214,487,o),
(177,400,c),
(189,396,l),
(214,530,l),
(137,530,l),
(24,0,l)
);
}
);
width = 840;
}
);
metricLeft = n;
metricRight = n;
unicode = 109;
}
{
color = 4;
glyphname = n;
kernLeft = n;
kernRight = n;
layers = (
{
anchors = (
{
name = bottom;
pos = (215,0);
},
{
name = top;
pos = (328,530);
}
);
background = {
shapes = (
{
closed = 1;
nodes = (
(52,0,l),
(120,317,ls),
(144,431,o),
(226,512,o),
(336,512,cs),
(446,512,o),
(470,431,o),
(446,317,cs),
(378,0,l),
(408,0,l),
(481,341,ls),
(505,453,o),
(469,542,o),
(349,542,cs),
(254,542,o),
(161,488,o),
(129,384,c),
(134,384,l),
(163,530,l),
(135,530,l),
(22,0,l)
);
}
);
};
layerId = "EE2FFE84-06F1-4AFB-BBEC-60D09A436D14";
shapes = (
{
closed = 1;
nodes = (
(59,0,l),
(127,317,ls),
(151,431,o),
(233,512,o),
(337,512,cs),
(423,512,o),
(453,466,o),
(453,408,cs),
(453,368,o),
(447,340,o),
(439,302,cs),
(374,0,l),
(404,0,l),
(467,298,ls),
(475,336,o),
(483,370,o),
(483,412,cs),
(483,485,o),
(442,542,o),
(347,542,cs),
(254,542,o),
(168,488,o),
(136,384,c),
(141,384,l),
(170,530,l),
(142,530,l),
(29,0,l)
);
}
);
width = 545;
},
{
anchors = (
{
name = bottom;
pos = (256,0);
},
{
name = top;
pos = (371,540);
}
);
background = {
shapes = (
{
closed = 1;
nodes = (
(191,0,l),
(251,280,ls),
(267,358,o),
(297,403,o),
(346,403,cs),
(398,403,o),
(398,358,o),
(382,280,cs),
(322,0,l),
(516,0,l),
(590,347,ls),
(618,479,o),
(561,552,o),
(449,552,cs),
(357,552,o),
(275,507,o),
(234,370,c),
(258,368,l),
(286,540,l),
(112,540,l),
(-3,0,l)
);
}
);
};
layerId = "3507EE3D-0D92-4546-A145-3A991F0A2B71";
shapes = (
{
closed = 1;
nodes = (
(193,0,l),
(253,280,ls),
(269,358,o),
(299,403,o),
(346,403,cs),
(379,403,o),
(394,388,o),
(394,358,cs),
(394,334,o),
(388,304,o),
(382,278,cs),
(322,0,l),
(516,0,l),
(574,270,ls),
(582,308,o),
(594,368,o),
(594,412,cs),
(594,503,o),
(542,552,o),
(449,552,cs),
(357,552,o),
(277,507,o),
(236,370,c),
(260,368,l),
(288,540,l),
(114,540,l),
(-1,0,l)
);
}
);
width = 630;
},
{
anchors = (
{
name = bottom;
pos = (231,0);
},
{
name = top;
pos = (344,530);
}
);
background = {
shapes = (
{
closed = 1;
nodes = (
(104,0,l),
(172,317,ls),
(193,415,o),
(262,468,o),
(344,468,cs),
(424,468,o),
(446,415,o),
(425,317,cs),
(357,0,l),
(441,0,l),
(514,341,ls),
(538,453,o),
(499,542,o),
(378,542,cs),
(295,542,o),
(216,498,o),
(176,404,c),
(184,395,l),
(210,530,l),
(133,530,l),
(20,0,l)
);
}
);
};
layerId = "6C190511-B94A-4F5A-B519-D6E9DB0E7B93";
shapes = (
{
closed = 1;
nodes = (
(108,0,l),
(176,317,ls),
(197,415,o),
(264,468,o),
(340,468,cs),
(397,468,o),
(426,441,o),
(426,394,cs),
(426,365,o),
(422,340,o),
(417,317,cs),
(349,0,l),
(433,0,l),
(498,306,ls),
(504,332,o),
(512,374,o),
(512,408,cs),
(512,485,o),
(466,542,o),
(370,542,cs),
(293,542,o),
(220,498,o),
(180,404,c),
(188,395,l),
(214,530,l),
(137,530,l),
(24,0,l)
);
}
);
width = 569;
}
);
unicode = 110;
}
{
color = 4;
glyphname = o;
kernLeft = o;
kernRight = o;
layers = (
{
anchors = (
{
name = bottom;
pos = (213,0);
},
{
name = center;
pos = (269,265);
},
{
name = top;
pos = (325,530);
}
);
background = {
shapes = (
{
closed = 1;
nodes = (
(348,-12,o),
(458,95,o),
(494,265,cs),
(530,435,o),
(466,542,o),
(328,542,cs),
(190,542,o),
(80,435,o),
(44,265,cs),
(8,95,o),
(72,-12,o),
(210,-12,cs)
);
},
{
closed = 1;
nodes = (
(97,18,o),
(44,113,o),
(76,265,cs),
(108,417,o),
(203,512,o),
(322,512,cs),
(441,512,o),
(494,417,o),
(462,265,cs),
(430,113,o),
(335,18,o),
(216,18,cs)
);
}
);
};
layerId = "EE2FFE84-06F1-4AFB-BBEC-60D09A436D14";
shapes = (
{
closed = 1;
nodes = (
(388,-12,o),
(495,156,o),
(495,352,cs),
(495,472,o),
(436,542,o),
(328,542,cs),
(150,542,o),
(43,374,o),
(43,178,cs),
(43,58,o),
(102,-12,o),
(210,-12,cs)
);
},
{
closed = 1;
nodes = (
(122,18,o),
(75,70,o),
(75,184,cs),
(75,370,o),
(178,512,o),
(322,512,cs),
(416,512,o),
(463,460,o),
(463,346,cs),
(463,160,o),
(360,18,o),
(216,18,cs)
);
}
);
width = 538;
},
{
anchors = (
{
name = bottom;
pos = (257,0);
},
{
name = center;
pos = (314,270);
},
{
name = top;
pos = (371,540);
}
);
background = {
shapes = (
{
closed = 1;
nodes = (
(430,-12,o),
(570,100,o),
(606,270,cs),
(642,439,o),
(550,552,o),
(374,552,cs),
(198,552,o),
(58,439,o),
(22,270,cs),
(-14,100,o),
(78,-12,o),
(254,-12,cs)
);
},
{
closed = 1;
nodes = (
(224,127,o),
(201,178,o),
(221,270,cs),
(240,361,o),
(284,413,o),
(344,413,cs),
(404,413,o),
(426,361,o),
(407,270,cs),
(387,178,o),
(344,127,o),
(284,127,cs)
);
}
);
};
layerId = "3507EE3D-0D92-4546-A145-3A991F0A2B71";
shapes = (
{
closed = 1;
nodes = (
(500,-12,o),
(601,149,o),
(601,349,cs),
(601,479,o),
(522,552,o),
(368,552,cs),
(128,552,o),
(27,390,o),
(27,190,cs),
(27,60,o),
(106,-12,o),
(260,-12,cs)
);
},
{
closed = 1;
nodes = (
(248,127,o),
(226,156,o),
(226,212,cs),
(226,322,o),
(273,413,o),
(342,413,cs),
(380,413,o),
(402,383,o),
(402,327,cs),
(402,217,o),
(354,127,o),
(286,127,cs)
);
}
);
width = 628;
},
{
anchors = (
{
name = bottom;
pos = (217,0);
},
{
name = center;
pos = (273,265);
},
{
name = top;
pos = (329,530);
}
);
background = {
shapes = (
{
closed = 1;
nodes = (
(360,-12,o),
(479,96,o),
(515,265,cs),
(551,434,o),
(478,542,o),
(332,542,cs),
(185,542,o),
(66,434,o),
(30,265,cs),
(-6,96,o),
(67,-12,o),
(214,-12,cs)
);
},
{
closed = 1;
nodes = (
(133,68,o),
(92,142,o),
(118,265,cs),
(144,388,o),
(217,462,o),
(315,462,cs),
(412,462,o),
(453,388,o),
(427,265,cs),
(401,142,o),
(328,68,o),
(231,68,cs)
);
}
);
};
layerId = "6C190511-B94A-4F5A-B519-D6E9DB0E7B93";
shapes = (
{
closed = 1;
nodes = (
(410,-12,o),
(509,166,o),
(509,356,cs),
(509,466,o),
(444,542,o),
(324,542,cs),
(136,542,o),
(36,364,o),
(36,174,cs),
(36,64,o),
(102,-12,o),
(222,-12,cs)
);
},
{
closed = 1;
nodes = (
(160,68,o),
(124,102,o),
(124,188,cs),
(124,342,o),
(200,462,o),
(312,462,cs),
(386,462,o),
(421,426,o),
(421,342,cs),
(421,188,o),
(346,68,o),
(234,68,cs)
);
}
);
width = 546;
}
);
unicode = 111;
}
{
color = 4;
glyphname = p;
kernLeft = n;
kernRight = o;
layers = (
{
anchors = (
{
name = bottom;
pos = (229,0);
},
{
name = top;
pos = (342,530);
}
);
background = {
anchors = (
{
name = bottom;
pos = (229,0);
},
{
name = top;
pos = (342,530);
}
);
shapes = (
{
closed = 1;
nodes = (
(27,-150,l),
(96,173,l),
(87,162,l),
(82,74,o),
(147,-12,o),
(247,-12,cs),
(379,-12,o),
(485,95,o),
(521,265,cs),
(557,435,o),
(497,542,o),
(363,542,cs),
(265,542,o),
(176,476,o),
(125,360,c),
(133,355,l),
(168,530,l),
(142,530,l),
(-3,-150,l)
);
},
{
closed = 1;
nodes = (
(143,18,o),
(86,125,o),
(116,265,cs),
(145,405,o),
(246,512,o),
(356,512,cs),
(470,512,o),
(521,417,o),
(489,265,cs),
(456,113,o),
(366,18,o),
(253,18,cs)
);
}
);
};
layerId = "EE2FFE84-06F1-4AFB-BBEC-60D09A436D14";
shapes = (
{
closed = 1;
nodes = (
(27,-150,l),
(87,128,l),
(97,50,o),
(145,-12,o),
(232,-12,cs),
(391,-12,o),
(515,150,o),
(515,356,cs),
(515,474,o),
(457,542,o),
(353,542,cs),
(255,542,o),
(169,470,o),
(121,361,c),
(131,356,l),
(168,530,l),
(142,530,l),
(-3,-150,l)
);
},
{
closed = 1;
nodes = (
(159,18,o),
(107,80,o),
(107,184,cs),
(107,357,o),
(213,512,o),
(347,512,cs),
(435,512,o),
(483,460,o),
(483,348,cs),
(483,166,o),
(374,18,o),
(238,18,cs)
);
}
);
width = 557;
},
{
anchors = (
{
name = bottom;
pos = (274,0);
},
{
name = top;
pos = (389,540);
}
);
background = {
anchors = (
{
name = bottom;
pos = (274,0);
},
{
name = top;
pos = (389,540);
}
);
shapes = (
{
closed = 1;
nodes = (
(161,-150,l),
(217,112,l),
(203,108,l),
(212,34,o),
(267,-12,o),
(343,-12,cs),
(487,-12,o),
(594,105,o),
(629,270,cs),
(664,435,o),
(609,552,o),
(465,552,cs),
(385,552,o),
(313,509,o),
(271,432,c),
(283,427,l),
(303,540,l),
(114,540,l),
(-33,-150,l)
);
},
{
closed = 1;
nodes = (
(252,127,o),
(231,176,o),
(251,270,cs),
(271,364,o),
(314,413,o),
(370,413,cs),
(426,413,o),
(448,358,o),
(430,270,cs),
(411,182,o),
(365,127,o),
(309,127,cs)
);
}
);
};
layerId = "3507EE3D-0D92-4546-A145-3A991F0A2B71";
shapes = (
{
closed = 1;
nodes = (
(161,-150,l),
(210,78,l),
(227,20,o),
(273,-12,o),
(341,-12,cs),
(499,-12,o),
(617,149,o),
(617,362,cs),
(617,482,o),
(568,552,o),
(463,552,cs),
(375,552,o),
(312,508,o),
(271,432,c),
(279,416,l),
(303,540,l),
(114,540,l),
(-33,-150,l)
);
},
{
closed = 1;
nodes = (
(265,127,o),
(244,155,o),
(244,206,cs),
(244,312,o),
(295,413,o),
(363,413,cs),
(402,413,o),
(418,381,o),
(418,328,cs),
(418,219,o),
(365,127,o),
(301,127,cs)
);
}
);
width = 642;
},
{
anchors = (
{
name = bottom;
pos = (243,0);
},
{
name = top;
pos = (356,530);
}
);
background = {
anchors = (
{
name = bottom;
pos = (243,0);
},
{
name = top;
pos = (356,530);
}
);
shapes = (
{
closed = 1;
nodes = (
(76,-150,l),
(133,114,l),
(118,100,l),
(121,32,o),
(182,-12,o),
(264,-12,cs),
(422,-12,o),
(521,119,o),
(552,265,cs),
(583,411,o),
(540,542,o),
(382,542,cs),
(300,542,o),
(225,500,o),
(182,422,c),
(193,416,l),
(215,530,l),
(137,530,l),
(-8,-150,l)
);
},
{
closed = 1;
nodes = (
(180,68,o),
(137,135,o),
(165,265,cs),
(192,395,o),
(265,462,o),
(357,462,cs),
(449,462,o),
(490,389,o),
(464,265,cs),
(437,141,o),
(365,68,o),
(273,68,cs)
);
}
);
};
layerId = "6C190511-B94A-4F5A-B519-D6E9DB0E7B93";
shapes = (
{
closed = 1;
nodes = (
(76,-150,l),
(123,74,l),
(137,26,o),
(185,-12,o),
(253,-12,cs),
(423,-12,o),
(541,152,o),
(541,342,cs),
(541,462,o),
(485,542,o),
(373,542,cs),
(281,542,o),
(220,492,o),
(179,418,c),
(191,410,l),
(215,530,l),
(137,530,l),
(-8,-150,l)
);
},
{
closed = 1;
nodes = (
(198,68,o),
(155,110,o),
(155,192,cs),
(155,360,o),
(243,462,o),
(351,462,cs),
(421,462,o),
(453,420,o),
(453,330,cs),
(453,190,o),
(372,68,o),
(264,68,cs)
);
}
);
width = 579;
}
);
metricLeft = n;
metricRight = o;
unicode = 112;
}
{
color = 4;
glyphname = q;
kernLeft = o;
kernRight = u;
layers = (
{
anchors = (
{
name = bottom;
pos = (196,0);
},
{
name = top;
pos = (309,530);
}
);
background = {
anchors = (
{
name = bottom;
pos = (196,0);
},
{
name = top;
pos = (309,530);
}
);
shapes = (
{
closed = 1;
nodes = (
(527,530,l),
(501,530,l),
(462,355,l),
(472,360,l),
(471,476,o),
(410,542,o),
(312,542,cs),
(178,542,o),
(72,435,o),
(36,265,cs),
(0,95,o),
(60,-12,o),
(192,-12,cs),
(292,-12,o),
(393,74,o),
(426,162,c),
(421,173,l),
(352,-150,l),
(382,-150,l)
);
},
{
closed = 1;
nodes = (
(85,18,o),
(35,113,o),
(68,265,cs),
(100,417,o),
(191,512,o),
(305,512,cs),
(415,512,o),
(470,405,o),
(441,265,cs),
(411,125,o),
(308,18,o),
(198,18,cs)
);
}
);
};
layerId = "EE2FFE84-06F1-4AFB-BBEC-60D09A436D14";
shapes = (
{
closed = 1;
nodes = (
(302,-12,o),
(388,60,o),
(433,169,c),
(421,173,l),
(352,-150,l),
(382,-150,l),
(527,530,l),
(501,530,l),
(470,393,l),
(460,480,o),
(412,542,o),
(325,542,cs),
(166,542,o),
(42,380,o),
(42,174,cs),
(42,56,o),
(100,-12,o),
(204,-12,cs)
);
},
{
closed = 1;
nodes = (
(122,18,o),
(74,70,o),
(74,182,cs),
(74,364,o),
(183,512,o),
(319,512,cs),
(398,512,o),
(450,450,o),
(450,346,cs),
(450,173,o),
(344,18,o),
(210,18,cs)
);
}
);
width = 556;
},
{
anchors = (
{
name = bottom;
pos = (244,0);
},
{
name = top;
pos = (359,540);
}
);
background = {
anchors = (
{
name = bottom;
pos = (244,0);
},
{
name = top;
pos = (359,540);
}
);
shapes = (
{
closed = 1;
nodes = (
(642,540,l),
(453,540,l),
(425,427,l),
(439,432,l),
(429,509,o),
(377,552,o),
(297,552,cs),
(153,552,o),
(48,435,o),
(13,270,cs),
(-22,105,o),
(35,-12,o),
(179,-12,cs),
(255,-12,o),
(330,34,o),
(369,108,c),
(357,112,l),
(301,-150,l),
(495,-150,l)
);
},
{
closed = 1;
nodes = (
(215,127,o),
(193,182,o),
(212,270,cs),
(230,358,o),
(276,413,o),
(332,413,cs),
(388,413,o),
(411,364,o),
(391,270,cs),
(371,176,o),
(328,127,o),
(271,127,cs)
);
}
);
};
layerId = "3507EE3D-0D92-4546-A145-3A991F0A2B71";
shapes = (
{
closed = 1;
nodes = (
(267,-12,o),
(329,32,o),
(368,108,c),
(358,112,l),
(301,-150,l),
(495,-150,l),
(642,540,l),
(453,540,l),
(433,460,l),
(416,518,o),
(369,552,o),
(301,552,cs),
(143,552,o),
(25,391,o),
(25,178,cs),
(25,58,o),
(74,-12,o),
(179,-12,cs)
);
},
{
closed = 1;
nodes = (
(240,127,o),
(224,159,o),
(224,212,cs),
(224,321,o),
(277,413,o),
(341,413,cs),
(377,413,o),
(398,385,o),
(398,334,cs),
(398,228,o),
(347,127,o),
(279,127,cs)
);
}
);
width = 641;
},
{
anchors = (
{
name = bottom;
pos = (208,0);
},
{
name = top;
pos = (321,530);
}
);
background = {
anchors = (
{
name = bottom;
pos = (208,0);
},
{
name = top;
pos = (321,530);
}
);
shapes = (
{
closed = 1;
nodes = (
(554,530,l),
(476,530,l),
(450,416,l),
(463,422,l),
(454,500,o),
(397,542,o),
(315,542,cs),
(157,542,o),
(58,411,o),
(27,265,cs),
(-4,119,o),
(39,-12,o),
(197,-12,cs),
(279,-12,o),
(358,32,o),
(391,100,c),
(382,114,l),
(325,-150,l),
(409,-150,l)
);
},
{
closed = 1;
nodes = (
(130,68,o),
(88,141,o),
(115,265,cs),
(141,389,o),
(214,462,o),
(306,462,cs),
(398,462,o),
(441,395,o),
(414,265,cs),
(386,135,o),
(315,68,o),
(222,68,cs)
);
}
);
};
layerId = "6C190511-B94A-4F5A-B519-D6E9DB0E7B93";
shapes = (
{
closed = 1;
nodes = (
(298,-12,o),
(359,38,o),
(400,112,c),
(383,118,l),
(325,-150,l),
(409,-150,l),
(554,530,l),
(476,530,l),
(458,450,l),
(444,503,o),
(394,542,o),
(326,542,cs),
(156,542,o),
(38,378,o),
(38,188,cs),
(38,68,o),
(94,-12,o),
(206,-12,cs)
);
},
{
closed = 1;
nodes = (
(158,68,o),
(126,110,o),
(126,200,cs),
(126,340,o),
(207,462,o),
(315,462,cs),
(381,462,o),
(424,420,o),
(424,338,cs),
(424,170,o),
(336,68,o),
(228,68,cs)
);
}
);
width = 578;
}
);
metricLeft = o;
metricRight = "=|n";
unicode = 113;
}
{
color = 4;
glyphname = r;
kernLeft = n;
kernRight = r;
layers = (
{
anchors = (
{
name = bottom;
pos = (44,0);
},
{
name = top;
pos = (235,530);
}
);
background = {
anchors = (
{
name = bottom;
pos = (100,0);
},
{
name = top;
pos = (179,530);
}
);
shapes = (
{
closed = 1;
nodes = (
(115,0,l),
(115,316,ls),
(115,421,o),
(173,503,o),
(259,503,cs),
(293,503,l),
(293,530,l),
(259,530,ls),
(176,530,o),
(125,472,o),
(100,370,c),
(112,360,l),
(107,530,l),
(85,530,l),
(85,0,l)
);
}
);
};
layerId = "EE2FFE84-06F1-4AFB-BBEC-60D09A436D14";
shapes = (
{
closed = 1;
nodes = (
(59,0,l),
(128,328,ls),
(148,418,o),
(222,498,o),
(300,498,cs),
(343,498,l),
(349,530,l),
(314,530,ls),
(224,530,o),
(170,476,o),
(124,372,c),
(134,364,l),
(165,530,l),
(141,530,l),
(29,0,l)
);
}
);
width = 343;
},
{
anchors = (
{
name = bottom;
pos = (96,0);
},
{
name = top;
pos = (312,540);
}
);
background = {
anchors = (
{
name = bottom;
pos = (153,0);
},
{
name = top;
pos = (255,540);
}
);
shapes = (
{
closed = 1;
nodes = (
(250,0,l),
(250,286,ls),
(250,365,o),
(284,402,o),
(375,402,cs),
(423,402,l),
(423,540,l),
(377,540,ls),
(297,540,o),
(254,481,o),
(237,373,c),
(250,370,l),
(245,540,l),
(56,540,l),
(56,0,l)
);
}
);
};
layerId = "3507EE3D-0D92-4546-A145-3A991F0A2B71";
shapes = (
{
closed = 1;
nodes = (
(193,0,l),
(254,289,ls),
(270,364,o),
(314,386,o),
(400,386,cs),
(448,386,l),
(480,540,l),
(434,540,ls),
(354,540,o),
(303,492,o),
(258,372,c),
(271,370,l),
(301,540,l),
(113,540,l),
(-1,0,l)
);
}
);
width = 455;
},
{
anchors = (
{
name = bottom;
pos = (66,0);
},
{
name = top;
pos = (252,530);
}
);
background = {
anchors = (
{
name = bottom;
pos = (122,0);
},
{
name = top;
pos = (196,530);
}
);
shapes = (
{
closed = 1;
nodes = (
(164,0,l),
(164,316,ls),
(164,407,o),
(202,456,o),
(283,456,cs),
(335,456,l),
(335,530,l),
(283,530,ls),
(203,530,o),
(163,489,o),
(150,399,c),
(158,391,l),
(154,530,l),
(80,530,l),
(80,0,l)
);
}
);
};
layerId = "6C190511-B94A-4F5A-B519-D6E9DB0E7B93";
shapes = (
{
closed = 1;
nodes = (
(108,0,l),
(176,320,ls),
(194,406,o),
(242,450,o),
(322,450,cs),
(374,450,l),
(391,530,l),
(339,530,ls),
(264,530,o),
(211,488,o),
(178,398,c),
(186,396,l),
(210,530,l),
(136,530,l),
(24,0,l)
);
}
);
width = 379;
}
);
metricLeft = n;
metricRight = o;
unicode = 114;
}
{
color = 4;
glyphname = s;
kernLeft = o;
kernRight = o;
layers = (
{
anchors = (
{
name = bottom;
pos = (191,0);
},
{
name = top;
pos = (289,530);
}
);
background = {
anchors = (
{
name = bottom;
pos = (191,0);
},
{
name = top;
pos = (289,530);
}
);
shapes = (
{
closed = 1;
nodes = (
(314,-12,o),
(395,38,o),
(414,130,cs),
(431,208,o),
(394,249,o),
(249,273,cs),
(123,294,o),
(97,320,o),
(112,390,cs),
(128,468,o),
(196,512,o),
(286,512,cs),
(386,512,o),
(426,449,o),
(421,379,c),
(454,385,l),
(456,471,o),
(406,542,o),
(292,542,cs),
(184,542,o),
(99,482,o),
(80,390,cs),
(63,312,o),
(86,272,o),
(229,246,cs),
(379,219,o),
(394,186,o),
(382,128,cs),
(367,56,o),
(303,18,o),
(197,18,cs),
(87,18,o),
(30,75,o),
(43,159,c),
(12,155,l),
(-2,61,o),
(61,-12,o),
(191,-12,cs)
);
}
);
};
layerId = "EE2FFE84-06F1-4AFB-BBEC-60D09A436D14";
shapes = (
{
closed = 1;
nodes = (
(323,-12,o),
(399,56,o),
(399,158,cs),
(399,218,o),
(374,250,o),
(250,272,cs),
(136,292,o),
(120,312,o),
(120,366,cs),
(120,452,o),
(192,512,o),
(286,512,cs),
(374,512,o),
(407,471,o),
(407,379,c),
(439,385,l),
(439,487,o),
(388,542,o),
(290,542,cs),
(170,542,o),
(90,466,o),
(90,360,cs),
(90,300,o),
(110,268,o),
(228,248,cs),
(356,226,o),
(369,200,o),
(369,152,cs),
(369,72,o),
(300,18,o),
(196,18,cs),
(96,18,o),
(59,60,o),
(59,159,c),
(27,155,l),
(27,42,o),
(84,-12,o),
(191,-12,cs)
);
}
);
width = 476;
},
{
anchors = (
{
name = bottom;
pos = (242,0);
},
{
name = top;
pos = (332,540);
}
);
background = {
anchors = (
{
name = bottom;
pos = (239,0);
},
{
name = top;
pos = (350,540);
}
);
shapes = (
{
closed = 1;
nodes = (
(401,-12,o),
(510,47,o),
(533,156,cs),
(554,254,o),
(497,306,o),
(324,329,cs),
(264,337,o),
(247,350,o),
(253,380,cs),
(260,410,o),
(289,428,o),
(327,428,cs),
(368,428,o),
(389,402,o),
(382,352,c),
(576,358,l),
(589,476,o),
(521,552,o),
(355,552,cs),
(176,552,o),
(76,482,o),
(53,374,cs),
(32,274,o),
(77,233,o),
(253,204,cs),
(326,192,o),
(338,178,o),
(333,151,cs),
(327,125,o),
(303,112,o),
(262,112,cs),
(213,112,o),
(192,132,o),
(193,175,c),
(-3,170,l),
(-18,64,o),
(53,-12,o),
(235,-12,cs)
);
}
);
};
layerId = "3507EE3D-0D92-4546-A145-3A991F0A2B71";
shapes = (
{
closed = 1;
nodes = (
(426,-12,o),
(528,57,o),
(528,180,cs),
(528,265,o),
(480,299,o),
(324,328,cs),
(270,338,o),
(256,349,o),
(256,374,cs),
(256,408,o),
(277,428,o),
(312,428,cs),
(354,428,o),
(370,407,o),
(370,352,c),
(564,358,l),
(564,496,o),
(497,552,o),
(330,552,cs),
(156,552,o),
(57,478,o),
(57,348,cs),
(57,263,o),
(103,229,o),
(253,204,cs),
(311,195,o),
(329,184,o),
(329,156,cs),
(329,126,o),
(310,112,o),
(266,112,cs),
(220,112,o),
(205,132,o),
(205,175,c),
(11,170,l),
(11,37,o),
(73,-12,o),
(239,-12,cs)
);
}
);
width = 584;
},
{
anchors = (
{
name = bottom;
pos = (203,0);
},
{
name = top;
pos = (302,530);
}
);
background = {
anchors = (
{
name = bottom;
pos = (198,0);
},
{
name = top;
pos = (302,530);
}
);
shapes = (
{
closed = 1;
nodes = (
(320,-12,o),
(422,44,o),
(443,142,cs),
(461,226,o),
(425,268,o),
(269,296,cs),
(178,312,o),
(148,332,o),
(159,384,cs),
(169,429,o),
(211,462,o),
(287,462,cs),
(359,462,o),
(392,422,o),
(392,366,c),
(482,372,l),
(485,464,o),
(434,542,o),
(305,542,cs),
(177,542,o),
(90,474,o),
(70,380,cs),
(53,296,o),
(91,249,o),
(237,222,cs),
(347,202,o),
(364,184,o),
(355,142,cs),
(344,90,o),
(292,68,o),
(220,68,cs),
(130,68,o),
(98,109,o),
(101,173,c),
(12,167,l),
(-2,63,o),
(61,-12,o),
(203,-12,cs)
);
}
);
};
layerId = "6C190511-B94A-4F5A-B519-D6E9DB0E7B93";
shapes = (
{
closed = 1;
nodes = (
(338,-12,o),
(436,44,o),
(436,160,cs),
(436,228,o),
(402,274,o),
(268,296,cs),
(182,310,o),
(168,327,o),
(168,362,cs),
(168,420,o),
(208,462,o),
(290,462,cs),
(359,462,o),
(382,430,o),
(382,366,c),
(470,372,l),
(470,476,o),
(424,542,o),
(304,542,cs),
(150,542,o),
(80,453,o),
(80,354,cs),
(80,276,o),
(116,241,o),
(240,222,cs),
(334,208,o),
(348,188,o),
(348,153,cs),
(348,94,o),
(297,68,o),
(214,68,cs),
(134,68,o),
(111,99,o),
(111,173,c),
(23,167,l),
(23,51,o),
(75,-12,o),
(201,-12,cs)
);
}
);
width = 507;
}
);
metricLeft = o;
metricRight = o;
unicode = 115;
}
{
color = 4;
glyphname = t;
kernLeft = t;
kernRight = t;
layers = (
{
anchors = (
{
name = bottom;
pos = (170,0);
},
{
name = center;
pos = (199,325);
},
{
name = top;
pos = (232,530);
},
{
name = topright;
pos = (368,530);
}
);
background = {
shapes = (
{
closed = 1;
nodes = (
(255,0,l),
(261,28,l),
(205,28,ls),
(166,28,o),
(145,41,o),
(145,73,cs),
(145,84,o),
(147,98,o),
(152,120,cs),
(266,654,l),
(236,654,l),
(118,100,ls),
(116,88,o),
(114,78,o),
(114,68,cs),
(114,23,o),
(141,0,o),
(197,0,cs)
);
},
{
closed = 1;
nodes = (
(362,502,l),
(368,530,l),
(116,530,l),
(110,502,l)
);
}
);
};
layerId = "EE2FFE84-06F1-4AFB-BBEC-60D09A436D14";
shapes = (
{
closed = 1;
nodes = (
(255,0,l),
(261,28,l),
(194,28,ls),
(157,28,o),
(144,42,o),
(144,62,cs),
(144,85,o),
(150,114,o),
(158,150,cs),
(266,654,l),
(236,654,l),
(128,148,ls),
(121,114,o),
(114,84,o),
(114,56,cs),
(114,17,o),
(138,0,o),
(190,0,cs)
);
},
{
closed = 1;
nodes = (
(362,502,l),
(368,530,l),
(116,530,l),
(110,502,l)
);
}
);
width = 356;
},
{
anchors = (
{
name = bottom;
pos = (222,0);
},
{
name = center;
pos = (239,278);
},
{
name = top;
pos = (298,540);
},
{
name = topright;
pos = (515,540);
}
);
background = {
shapes = (
{
closed = 1;
nodes = (
(400,0,l),
(429,137,l),
(355,137,ls),
(319,137,o),
(299,147,o),
(299,178,cs),
(299,186,o),
(301,195,o),
(303,206,cs),
(401,667,l),
(207,667,l),
(103,178,ls),
(98,155,o),
(96,134,o),
(96,115,cs),
(96,36,o),
(142,0,o),
(240,0,cs)
);
},
{
closed = 1;
nodes = (
(486,403,l),
(515,540,l),
(88,540,l),
(59,403,l)
);
}
);
};
layerId = "3507EE3D-0D92-4546-A145-3A991F0A2B71";
shapes = (
{
closed = 1;
nodes = (
(400,0,l),
(429,137,l),
(347,137,ls),
(315,137,o),
(300,148,o),
(300,172,cs),
(300,193,o),
(308,229,o),
(316,266,cs),
(401,667,l),
(207,667,l),
(122,268,ls),
(109,207,o),
(96,155,o),
(96,106,cs),
(96,34,o),
(134,0,o),
(231,0,cs)
);
},
{
closed = 1;
nodes = (
(486,403,l),
(515,540,l),
(88,540,l),
(59,403,l)
);
}
);
width = 484;
},
{
anchors = (
{
name = bottom;
pos = (178,0);
},
{
name = center;
pos = (209,290);
},
{
name = top;
pos = (255,530);
},
{
name = topright;
pos = (415,530);
}
);
background = {
shapes = (
{
closed = 1;
nodes = (
(302,0,l),
(318,74,l),
(242,74,ls),
(206,74,o),
(188,85,o),
(188,115,cs),
(188,121,o),
(189,129,o),
(191,138,cs),
(301,654,l),
(217,654,l),
(106,136,ls),
(102,119,o),
(101,104,o),
(101,91,cs),
(101,28,o),
(139,0,o),
(218,0,cs)
);
},
{
closed = 1;
nodes = (
(399,456,l),
(415,530,l),
(112,530,l),
(96,456,l)
);
}
);
};
layerId = "6C190511-B94A-4F5A-B519-D6E9DB0E7B93";
shapes = (
{
closed = 1;
nodes = (
(302,0,l),
(318,74,l),
(230,74,ls),
(202,74,o),
(188,85,o),
(188,106,cs),
(188,124,o),
(193,149,o),
(198,173,cs),
(301,654,l),
(217,654,l),
(116,184,ls),
(109,150,o),
(100,106,o),
(100,80,cs),
(100,28,o),
(129,0,o),
(208,0,cs)
);
},
{
closed = 1;
nodes = (
(399,456,l),
(415,530,l),
(112,530,l),
(96,456,l)
);
}
);
width = 397;
}
);
metricLeft = "=f-5";
metricRight = "=o-6";
unicode = 116;
}
{
color = 4;
glyphname = u;
kernLeft = u;
kernRight = u;
layers = (
{
anchors = (
{
name = bottom;
pos = (222,0);
},
{
name = ogonek;
pos = (415,0);
},
{
name = top;
pos = (335,530);
}
);
background = {
shapes = (
{
closed = 1;
nodes = (
(307,-12,o),
(390,46,o),
(422,145,c),
(417,145,l),
(389,0,l),
(415,0,l),
(528,530,l),
(498,530,l),
(430,213,ls),
(405,94,o),
(321,18,o),
(215,18,cs),
(117,18,o),
(76,81,o),
(102,202,cs),
(172,530,l),
(142,530,l),
(69,189,ls),
(42,63,o),
(94,-12,o),
(200,-12,cs)
);
}
);
};
layerId = "EE2FFE84-06F1-4AFB-BBEC-60D09A436D14";
shapes = (
{
closed = 1;
nodes = (
(305,-12,o),
(390,46,o),
(422,145,c),
(417,145,l),
(389,0,l),
(415,0,l),
(528,530,l),
(498,530,l),
(430,213,ls),
(405,94,o),
(319,18,o),
(205,18,cs),
(127,18,o),
(93,51,o),
(93,108,cs),
(93,152,o),
(103,208,o),
(111,244,cs),
(172,530,l),
(142,530,l),
(85,263,ls),
(71,195,o),
(63,152,o),
(63,106,cs),
(63,28,o),
(111,-12,o),
(198,-12,cs)
);
}
);
width = 557;
},
{
anchors = (
{
name = bottom;
pos = (255,0);
},
{
name = ogonek;
pos = (515,0);
},
{
name = top;
pos = (370,540);
}
);
background = {
shapes = (
{
closed = 1;
nodes = (
(282,-12,o),
(355,47,o),
(392,168,c),
(370,170,l),
(341,0,l),
(515,0,l),
(630,540,l),
(436,540,l),
(373,246,ls),
(357,168,o),
(325,137,o),
(279,137,cs),
(239,137,o),
(227,166,o),
(242,236,cs),
(307,540,l),
(113,540,l),
(39,192,ls),
(11,62,o),
(59,-12,o),
(173,-12,cs)
);
}
);
};
layerId = "3507EE3D-0D92-4546-A145-3A991F0A2B71";
shapes = (
{
closed = 1;
nodes = (
(282,-12,o),
(355,47,o),
(392,168,c),
(370,170,l),
(341,0,l),
(515,0,l),
(630,540,l),
(436,540,l),
(373,246,ls),
(357,168,o),
(325,137,o),
(279,137,cs),
(250,137,o),
(236,152,o),
(236,179,cs),
(236,204,o),
(242,233,o),
(246,253,cs),
(307,540,l),
(113,540,l),
(47,229,ls),
(39,192,o),
(32,156,o),
(32,114,cs),
(32,37,o),
(80,-12,o),
(173,-12,cs)
);
}
);
width = 629;
},
{
anchors = (
{
name = bottom;
pos = (228,0);
},
{
name = ogonek;
pos = (439,0);
},
{
name = top;
pos = (341,530);
}
);
background = {
shapes = (
{
closed = 1;
nodes = (
(285,-12,o),
(359,37,o),
(398,124,c),
(387,131,l),
(359,0,l),
(439,0,l),
(552,530,l),
(468,530,l),
(400,214,ls),
(380,119,o),
(317,62,o),
(233,62,cs),
(157,62,o),
(131,109,o),
(153,212,cs),
(221,530,l),
(137,530,l),
(64,189,ls),
(37,63,o),
(89,-12,o),
(195,-12,cs)
);
}
);
};
layerId = "6C190511-B94A-4F5A-B519-D6E9DB0E7B93";
shapes = (
{
closed = 1;
nodes = (
(285,-12,o),
(359,37,o),
(398,124,c),
(387,131,l),
(359,0,l),
(439,0,l),
(552,530,l),
(468,530,l),
(400,214,ls),
(380,119,o),
(317,62,o),
(227,62,cs),
(174,62,o),
(145,88,o),
(145,133,cs),
(145,166,o),
(150,196,o),
(157,230,cs),
(221,530,l),
(137,530,l),
(75,240,ls),
(67,204,o),
(57,157,o),
(57,118,cs),
(57,39,o),
(108,-12,o),
(195,-12,cs)
);
}
);
width = 576;
}
);
metricLeft = n;
metricRight = n;
unicode = 117;
}
{
color = 4;
glyphname = v;
kernLeft = v;
kernRight = v;
layers = (
{
anchors = (
{
name = bottom;
pos = (179,0);
},
{
name = top;
pos = (291,530);
}
);
background = {
anchors = (
{
name = bottom;
pos = (179,0);
},
{
name = top;
pos = (291,530);
}
);
shapes = (
{
closed = 1;
nodes = (
(198,0,l),
(508,530,l),
(476,530,l),
(185,28,l),
(106,530,l),
(74,530,l),
(160,0,l)
);
}
);
};
layerId = "EE2FFE84-06F1-4AFB-BBEC-60D09A436D14";
shapes = (
{
closed = 1;
nodes = (
(198,0,l),
(500,530,l),
(467,530,l),
(184,28,l),
(112,530,l),
(80,530,l),
(160,0,l)
);
}
);
width = 468;
},
{
anchors = (
{
name = bottom;
pos = (268,0);
},
{
name = top;
pos = (382,540);
}
);
background = {
anchors = (
{
name = bottom;
pos = (268,0);
},
{
name = top;
pos = (382,540);
}
);
shapes = (
{
closed = 1;
nodes = (
(378,0,l),
(691,540,l),
(491,540,l),
(310,194,l),
(274,540,l),
(74,540,l),
(158,0,l)
);
}
);
};
layerId = "3507EE3D-0D92-4546-A145-3A991F0A2B71";
shapes = (
{
closed = 1;
nodes = (
(382,0,l),
(687,540,l),
(477,540,l),
(306,194,l),
(273,540,l),
(77,540,l),
(162,0,l)
);
}
);
width = 650;
},
{
anchors = (
{
name = bottom;
pos = (206,0);
},
{
name = top;
pos = (318,530);
}
);
background = {
anchors = (
{
name = bottom;
pos = (206,0);
},
{
name = top;
pos = (318,530);
}
);
shapes = (
{
closed = 1;
nodes = (
(259,0,l),
(564,530,l),
(472,530,l),
(224,86,l),
(164,530,l),
(72,530,l),
(153,0,l)
);
}
);
};
layerId = "6C190511-B94A-4F5A-B519-D6E9DB0E7B93";
shapes = (
{
closed = 1;
nodes = (
(260,0,l),
(556,530,l),
(463,530,l),
(223,86,l),
(170,530,l),
(78,530,l),
(154,0,l)
);
}
);
width = 522;
}
);
unicode = 118;
}
{
color = 4;
glyphname = w;
kernLeft = v;
kernRight = v;
layers = (
{
anchors = (
{
name = bottom;
pos = (316,0);
},
{
name = top;
pos = (428,530);
}
);
background = {
anchors = (
{
name = bottom;
pos = (316,0);
},
{
name = top;
pos = (428,530);
}
);
shapes = (
{
closed = 1;
nodes = (
(166,0,l),
(419,484,l),
(465,0,l),
(501,0,l),
(792,530,l),
(760,530,l),
(489,30,l),
(443,530,l),
(413,530,l),
(154,30,l),
(95,530,l),
(63,530,l),
(130,0,l)
);
}
);
};
layerId = "EE2FFE84-06F1-4AFB-BBEC-60D09A436D14";
shapes = (
{
closed = 1;
nodes = (
(183,0,l),
(419,484,l),
(459,0,l),
(495,0,l),
(782,530,l),
(750,530,l),
(482,30,l),
(443,530,l),
(413,530,l),
(170,30,l),
(112,530,l),
(80,530,l),
(147,0,l)
);
}
);
width = 750;
},
{
anchors = (
{
name = bottom;
pos = (374,0);
},
{
name = top;
pos = (488,540);
}
);
background = {
anchors = (
{
name = bottom;
pos = (374,0);
},
{
name = top;
pos = (488,540);
}
);
shapes = (
{
closed = 1;
nodes = (
(287,0,l),
(434,290,l),
(460,0,l),
(632,0,l),
(902,540,l),
(712,540,l),
(574,230,l),
(559,540,l),
(415,540,l),
(269,230,l),
(263,540,l),
(73,540,l),
(115,0,l)
);
}
);
};
layerId = "3507EE3D-0D92-4546-A145-3A991F0A2B71";
shapes = (
{
closed = 1;
nodes = (
(293,0,l),
(430,290,l),
(464,0,l),
(636,0,l),
(893,540,l),
(699,540,l),
(574,230,l),
(557,540,l),
(409,540,l),
(272,230,l),
(267,540,l),
(77,540,l),
(121,0,l)
);
}
);
width = 856;
},
{
anchors = (
{
name = bottom;
pos = (343,0);
},
{
name = top;
pos = (455,530);
}
);
background = {
anchors = (
{
name = bottom;
pos = (343,0);
},
{
name = top;
pos = (455,530);
}
);
shapes = (
{
closed = 1;
nodes = (
(224,0,l),
(427,403,l),
(460,0,l),
(566,0,l),
(842,530,l),
(750,530,l),
(531,88,l),
(499,530,l),
(409,530,l),
(189,88,l),
(159,530,l),
(67,530,l),
(119,0,l)
);
}
);
};
layerId = "6C190511-B94A-4F5A-B519-D6E9DB0E7B93";
shapes = (
{
closed = 1;
nodes = (
(238,0,l),
(427,403,l),
(458,0,l),
(564,0,l),
(828,530,l),
(736,530,l),
(525,88,l),
(499,530,l),
(409,530,l),
(203,88,l),
(170,530,l),
(78,530,l),
(133,0,l)
);
}
);
width = 794;
}
);
metricLeft = v;
metricRight = v;
unicode = 119;
}
{
color = 4;
glyphname = x;
kernLeft = x;
kernRight = x;
layers = (
{
anchors = (
{
name = bottom;
pos = (198,0);
},
{
name = top;
pos = (310,530);
}
);
background = {
anchors = (
{
name = bottom;
pos = (198,0);
},
{
name = top;
pos = (310,530);
}
);
shapes = (
{
closed = 1;
nodes = (
(15,0,l),
(253,249,l),
(382,0,l),
(417,0,l),
(274,266,l),
(522,530,l),
(486,530,l),
(258,284,l),
(133,530,l),
(98,530,l),
(234,266,l),
(-21,0,l)
);
}
);
};
layerId = "EE2FFE84-06F1-4AFB-BBEC-60D09A436D14";
shapes = (
{
closed = 1;
nodes = (
(403,0,l),
(268,272,l),
(263,279,l),
(147,530,l),
(112,530,l),
(240,261,l),
(248,254,l),
(368,0,l)
);
},
{
closed = 1;
nodes = (
(29,0,l),
(257,254,l),
(239,272,l),
(-7,0,l)
);
},
{
closed = 1;
nodes = (
(508,530,l),
(472,530,l),
(252,280,l),
(268,262,l)
);
}
);
width = 508;
},
{
anchors = (
{
name = bottom;
pos = (275,0);
},
{
name = top;
pos = (389,540);
}
);
background = {
anchors = (
{
name = bottom;
pos = (275,0);
},
{
name = top;
pos = (389,540);
}
);
shapes = (
{
closed = 1;
nodes = (
(178,0,l),
(312,160,l),
(377,0,l),
(577,0,l),
(445,272,l),
(688,540,l),
(484,540,l),
(356,386,l),
(290,540,l),
(90,540,l),
(219,272,l),
(-26,0,l)
);
}
);
};
layerId = "3507EE3D-0D92-4546-A145-3A991F0A2B71";
shapes = (
{
closed = 1;
nodes = (
(565,0,l),
(429,286,l),
(368,371,l),
(300,540,l),
(102,540,l),
(232,258,l),
(296,176,l),
(367,0,l)
);
},
{
closed = 1;
nodes = (
(196,0,l),
(328,172,l),
(236,284,l),
(-10,0,l)
);
},
{
closed = 1;
nodes = (
(672,540,l),
(466,540,l),
(340,374,l),
(428,260,l)
);
}
);
width = 667;
},
{
anchors = (
{
name = bottom;
pos = (227,0);
},
{
name = top;
pos = (339,530);
}
);
background = {
anchors = (
{
name = bottom;
pos = (227,0);
},
{
name = top;
pos = (339,530);
}
);
shapes = (
{
closed = 1;
nodes = (
(81,0,l),
(273,214,l),
(374,0,l),
(472,0,l),
(337,270,l),
(575,530,l),
(475,530,l),
(298,330,l),
(201,530,l),
(103,530,l),
(233,272,l),
(-19,0,l)
);
}
);
};
layerId = "6C190511-B94A-4F5A-B519-D6E9DB0E7B93";
shapes = (
{
closed = 1;
nodes = (
(467,0,l),
(327,284,l),
(304,314,l),
(209,530,l),
(111,530,l),
(243,260,l),
(267,230,l),
(369,0,l)
);
},
{
closed = 1;
nodes = (
(93,0,l),
(288,226,l),
(244,286,l),
(-9,0,l)
);
},
{
closed = 1;
nodes = (
(570,530,l),
(468,530,l),
(285,318,l),
(326,258,l)
);
}
);
width = 570;
}
);
metricLeft = "=v+25";
metricRight = "=v+25";
unicode = 120;
}
